<svg width="68" height="68" viewBox="0 0 68 68" fill="none" xmlns="http://www.w3.org/2000/svg">
<g style="mix-blend-mode:plus-lighter">
<circle cx="34" cy="34" r="32.5" fill="#2C2525"/>
<circle cx="34" cy="34" r="32.5" stroke="white" stroke-width="3"/>
</g>
<path d="M53.0358 47.5547H49.2179C48.1451 47.5547 47.2722 46.582 47.2722 45.3867V30.4102C47.2722 29.2148 48.1451 28.2422 49.2179 28.2422H53.0358C55.7703 28.2422 58 30.7266 58 33.7734V42.0234C57.9895 45.0703 55.7703 47.5547 53.0358 47.5547ZM51.1531 43.2305H53.0358C53.6353 43.2305 54.1191 42.6914 54.1191 42.0352V33.7734C54.1191 33.1055 53.6353 32.5781 53.0358 32.5781H51.1531V43.2305ZM16.7926 47.5547H12.9642C10.2297 47.5547 8 45.0703 8 42.0234V33.7734C8 30.7266 10.2297 28.2422 12.9642 28.2422H16.7821C17.8549 28.2422 18.7278 29.2148 18.7278 30.4102V45.3984C18.7278 46.582 17.8654 47.5547 16.7926 47.5547ZM12.9642 32.5664C12.3647 32.5664 11.8809 33.1055 11.8809 33.7617V42.0117C11.8809 42.6797 12.3647 43.207 12.9642 43.207H14.8469V32.5547H12.9642V32.5664Z" fill="#2E660F"/>
<path d="M51.9944 32.5664C50.9216 32.5664 50.0487 31.5938 50.0487 30.3984V28.7813C50.0487 18.5977 42.6128 10.3125 33.4732 10.3125H32.5161C23.3659 10.3125 15.93 18.5977 15.93 28.7813V30.3984C15.93 31.5938 15.0571 32.5664 13.9843 32.5664C12.9115 32.5664 12.0386 31.5938 12.0386 30.3984V28.7813C12.0596 16.2305 21.2414 6 32.5266 6H33.4837C44.7584 6 53.9296 16.2305 53.9296 28.793V30.4102C53.9296 31.6055 53.0672 32.5664 51.9944 32.5664ZM48.4605 59.0859H40.015C38.9422 59.0859 38.0693 58.1133 38.0693 56.918C38.0693 55.7227 38.9422 54.75 40.015 54.75H48.4605C49.9119 54.75 51.0899 53.4375 51.0899 51.832V45.3867C51.0899 44.1914 51.9628 43.2188 53.0356 43.2188C54.1084 43.2188 54.9814 44.1914 54.9814 45.3867V51.832C54.9814 55.8399 52.0575 59.0859 48.4605 59.0859Z" fill="#2E660F"/>
<path d="M51.9944 32.5664C50.9216 32.5664 50.0487 31.5938 50.0487 30.3984V28.7813C50.0487 18.5977 42.6128 10.3125 33.4732 10.3125H32.5161C23.3659 10.3125 15.93 18.5977 15.93 28.7813V30.3984C15.93 31.5938 15.0571 32.5664 13.9843 32.5664C12.9115 32.5664 12.0386 31.5938 12.0386 30.3984V28.7813C12.0596 16.2305 21.2414 6 32.5266 6H33.4837C44.7584 6 53.9296 16.2305 53.9296 28.793V30.4102C53.9296 31.6055 53.0672 32.5664 51.9944 32.5664ZM48.4605 59.0859H40.015C38.9422 59.0859 38.0693 58.1133 38.0693 56.918C38.0693 55.7227 38.9422 54.75 40.015 54.75H48.4605C49.9119 54.75 51.0899 53.4375 51.0899 51.832V45.3867C51.0899 44.1914 51.9628 43.2188 53.0356 43.2188C54.1084 43.2188 54.9814 44.1914 54.9814 45.3867V51.832C54.9814 55.8399 52.0575 59.0859 48.4605 59.0859Z" fill="#2E660F"/>
<path d="M38.5111 62.25H33.3154C31.4118 62.25 29.8657 60.5273 29.8657 58.4063V55.4648C29.8657 53.3437 31.4118 51.6211 33.3154 51.6211H38.5111C40.4147 51.6211 41.9608 53.3437 41.9608 55.4648V58.4063C41.9608 60.5273 40.4147 62.25 38.5111 62.25ZM33.7467 57.9258H38.0799V55.9453H33.7467V57.9258Z" fill="#2E660F"/>
</svg>
