<svg width="62" height="64" viewBox="0 0 62 64" fill="none" xmlns="http://www.w3.org/2000/svg">
<g style="mix-blend-mode:color-dodge">
<circle cx="31" cy="31" r="31" fill="#D9D9D9"/>
</g>
<path d="M24.5115 39.9789V53.5346H26.3625V46.7568H30.0644V44.8202H26.3625V40.9472H31.9154V39.0107H25.437C25.1915 39.0107 24.9561 39.1127 24.7826 39.2943C24.609 39.4759 24.5115 39.7221 24.5115 39.9789ZM44.8723 37.5583C44.8723 37.9435 44.726 38.3129 44.4657 38.5853C44.2053 38.8577 43.8522 39.0107 43.484 39.0107C43.1159 39.0107 42.7628 38.8577 42.5024 38.5853C42.2421 38.3129 42.0958 37.9435 42.0958 37.5583V33.2011H45.7978V31.2646H42.0958V28.3598H40.2448V37.5583C40.2448 38.4571 40.5861 39.3191 41.1936 39.9546C41.801 40.5902 42.625 40.9472 43.484 40.9472C44.3431 40.9472 45.167 40.5902 45.7745 39.9546C46.382 39.3191 46.7233 38.4571 46.7233 37.5583V36.1059H44.8723V37.5583ZM17.8387 27.8273C17.9248 27.918 18.0271 27.9901 18.1399 28.0392C18.2527 28.0884 18.3736 28.1137 18.4958 28.1137C18.618 28.1137 18.739 28.0884 18.8517 28.0392C18.9645 27.9901 19.0669 27.918 19.1529 27.8273L24.3819 22.3469C25.1958 21.4934 25.676 20.3529 25.7285 19.1486C25.7811 17.9442 25.4022 16.7627 24.6661 15.8351C23.93 14.9076 22.8896 14.3007 21.7484 14.1333C20.6072 13.9659 19.4474 14.25 18.4958 14.93C17.5443 14.25 16.3844 13.9659 15.2433 14.1333C14.1021 14.3007 13.0616 14.9076 12.3255 15.8351C11.5894 16.7627 11.2106 17.9442 11.2631 19.1486C11.3157 20.3529 11.7959 21.4934 12.6097 22.3469L17.8387 27.8273ZM15.8767 16.0242C16.6128 16.0249 17.3185 16.3313 17.8387 16.8763C17.9248 16.967 18.0271 17.039 18.1399 17.0882C18.2527 17.1374 18.3736 17.1627 18.4958 17.1627C18.618 17.1627 18.739 17.1374 18.8517 17.0882C18.9645 17.039 19.0669 16.967 19.1529 16.8763C19.6792 16.3632 20.3754 16.0838 21.0947 16.0971C21.814 16.1104 22.5003 16.4152 23.009 16.9474C23.5177 17.4796 23.809 18.1976 23.8217 18.9502C23.8344 19.7027 23.5674 20.431 23.077 20.9817L18.4958 25.7746L13.9146 20.9817C13.5268 20.5754 13.2628 20.0581 13.1559 19.495C13.0489 18.9318 13.1039 18.3482 13.3139 17.8177C13.5238 17.2872 13.8793 16.8338 14.3354 16.5145C14.7916 16.1953 15.3279 16.0247 15.8767 16.0242Z" fill="#2E660F"/>
<path d="M43.4839 21.5821C40.3346 21.5873 37.3032 22.8356 34.9955 25.0777C32.6878 27.3197 31.2738 30.3902 31.036 33.6756C28.3368 32.8983 25.4661 33.0934 22.8858 34.2296C20.3054 35.3658 18.1652 37.377 16.8096 39.9397C15.454 42.5024 14.9617 45.4676 15.4119 48.3585C15.8621 51.2494 17.2285 53.8978 19.2916 55.8778C19.516 57.929 19.4033 60.0052 18.9584 62.0166C18.9136 62.1812 18.9113 62.3554 18.9517 62.5213C18.9922 62.6872 19.074 62.8389 19.1888 62.9609C19.3035 63.0829 19.4472 63.171 19.6051 63.216C19.7629 63.261 19.9294 63.2614 20.0875 63.2172C21.1989 62.9968 22.2463 62.5095 23.1472 61.7938C24.0482 61.078 24.7781 60.1533 25.2795 59.0924C27.0178 59.468 28.8126 59.4513 30.5442 59.0432C32.2758 58.6352 33.9042 57.8452 35.3207 56.7262C36.7372 55.6072 37.9091 54.1848 38.7582 52.5541C39.6074 50.9234 40.1141 49.1219 40.2447 47.27C41.3009 47.5681 42.3898 47.7211 43.4839 47.7251C43.8889 47.7256 44.2936 47.703 44.6963 47.6573C45.1407 48.899 45.8864 49.9984 46.86 50.8472C47.8336 51.6961 49.0016 52.2652 50.2492 52.4986C50.3989 52.532 50.5541 52.526 50.701 52.4813C50.848 52.4365 50.982 52.3543 51.0911 52.2421C51.2002 52.1298 51.2811 51.991 51.3263 51.8381C51.3716 51.6852 51.3799 51.5229 51.3505 51.3657C50.8989 49.299 50.8018 47.1647 51.0636 45.0624C53.148 43.4058 54.6825 41.1061 55.4503 38.488C56.2182 35.8699 56.1807 33.0656 55.3431 30.471C54.5056 27.8764 52.9102 25.6225 50.7823 24.0276C48.6544 22.4327 46.1015 21.5772 43.4839 21.5821ZM24.9741 57.0107C24.7532 56.9495 24.5185 56.976 24.3152 57.0851C24.1118 57.1941 23.9543 57.378 23.8727 57.6013C23.6351 58.302 23.2675 58.9468 22.791 59.4984C22.3146 60.0501 21.7386 60.4978 21.0963 60.8159C21.328 58.981 21.328 57.1221 21.0963 55.2872C21.0716 55.0481 20.9627 54.8272 20.7909 54.6675C18.8188 52.8742 17.5468 50.3841 17.2177 47.6723C16.8885 44.9605 17.5251 42.2168 19.0061 39.9648C20.487 37.7127 22.7087 36.1099 25.2471 35.4622C27.7856 34.8144 30.4631 35.1672 32.7688 36.453C35.0746 37.7388 36.8471 39.8678 37.7482 42.4337C38.6494 44.9996 38.616 47.8227 37.6545 50.3645C36.6931 52.9063 34.8708 54.9888 32.5354 56.2146C30.2 57.4405 27.515 57.7238 24.9926 57.0107H24.9741ZM49.6291 43.7358C49.5235 43.8128 49.4344 43.912 49.3674 44.027C49.3005 44.142 49.2572 44.2704 49.2404 44.4039C48.9912 46.3317 48.9912 48.2858 49.2404 50.2135C48.4924 49.8469 47.8334 49.3081 47.3125 48.6374C46.7916 47.9667 46.4225 47.1815 46.2326 46.3405C46.1681 46.115 46.0272 45.9218 45.8365 45.7971C45.6457 45.6723 45.418 45.6245 45.196 45.6627C44.6296 45.7539 44.0569 45.796 43.4839 45.7886C42.3833 45.7814 41.2905 45.5952 40.2447 45.2366C40.0562 42.8948 39.2695 40.6491 37.967 38.7345C36.6644 36.8198 34.8939 35.3067 32.8407 34.3534C32.8895 32.4572 33.4008 30.6055 34.3262 28.9742C35.2515 27.343 36.5602 25.9864 38.1278 25.0333C39.6955 24.0802 41.47 23.5623 43.2828 23.5288C45.0957 23.4952 46.8866 23.9472 48.4854 24.8417C50.0843 25.7363 51.438 27.0436 52.4179 28.6396C53.3978 30.2357 53.9713 32.0673 54.0841 33.9605C54.1968 35.8538 53.845 37.7457 53.062 39.4566C52.2791 41.1675 51.091 42.6406 49.6106 43.7358H49.6291Z" fill="#2E660F"/>
<path d="M10.8326 37.0741C11.944 36.8537 12.9914 36.3664 13.8923 35.6507C14.7933 34.9349 15.5232 34.0102 16.0246 32.9493C16.8376 33.1234 17.6658 33.2078 18.4956 33.2011C21.4157 33.2075 24.2461 32.146 26.4973 30.2002C28.7485 28.2544 30.2789 25.5466 30.8238 22.5452C31.3687 19.5438 30.8939 16.4376 29.4814 13.7637C28.069 11.0899 25.8077 9.01653 23.0887 7.90233C20.3697 6.78814 17.3641 6.70315 14.5916 7.66206C11.819 8.62097 9.45402 10.5635 7.90555 13.1536C6.35709 15.7438 5.72257 18.8186 6.11172 21.8464C6.50087 24.8742 7.88923 27.6645 10.0367 29.7347C10.2611 31.7859 10.1484 33.8621 9.70349 35.8735C9.65867 36.0381 9.65637 36.2123 9.69684 36.3782C9.73731 36.5441 9.8191 36.6957 9.93387 36.8178C10.0486 36.9398 10.1923 37.0278 10.3502 37.0729C10.508 37.1179 10.6745 37.1183 10.8326 37.0741ZM7.85251 20.1296C7.8408 17.7859 8.53257 15.4975 9.83026 13.5871C11.128 11.6767 12.9661 10.2406 15.0855 9.48147C17.2049 8.7223 19.4986 8.67829 21.6432 9.35567C23.7877 10.033 25.675 11.3976 27.0387 13.257C28.4025 15.1163 29.174 17.3766 29.2444 19.7192C29.3148 22.0617 28.6806 24.3683 27.4313 26.3136C26.1819 28.259 24.3803 29.7449 22.2807 30.562C20.1811 31.379 17.8892 31.4859 15.7284 30.8676C15.5075 30.8064 15.2729 30.8329 15.0695 30.942C14.8662 31.051 14.7086 31.2349 14.6271 31.4582C14.3895 32.1589 14.0219 32.8036 13.5454 33.3553C13.0689 33.907 12.493 34.3547 11.8506 34.6728C12.0823 32.8379 12.0823 30.979 11.8506 29.1441C11.8259 28.905 11.717 28.6841 11.5452 28.5244C10.3907 27.4837 9.46344 26.1955 8.82633 24.7471C8.18921 23.2987 7.85711 21.724 7.85251 20.1296Z" fill="#2E660F"/>
</svg>
