<svg width="62" height="62" viewBox="0 0 62 62" fill="none" xmlns="http://www.w3.org/2000/svg">
<g style="mix-blend-mode:color-dodge">
<circle cx="31" cy="31" r="31" fill="#D9D9D9"/>
</g>
<path d="M46.625 15.375C44.9229 17.0041 42.898 18.2581 40.6812 19.0562C38.3438 19.4688 31.875 16.4687 28.6875 19.5312C28.1562 20.0625 27.5 20.5938 26.8125 21.125C25.3125 20.4688 23 19.4688 21.3125 18.5C19.625 17.5312 15.375 15.375 15.375 15.375L6 26.3125C6 26.3125 8.3125 29.4375 9.75 31.5C10.6875 32.875 11.8437 34.9688 12.5937 36.375L11.5312 37.625C11.2768 38.1305 11.1853 38.7023 11.2692 39.262C11.3531 39.8216 11.6085 40.3414 12 40.75C12.4519 41.0888 13.0018 41.2714 13.5667 41.2703C14.1315 41.2692 14.6807 41.0844 15.1312 40.7437C14.9642 40.9394 14.8377 41.1663 14.7593 41.4113C14.6809 41.6563 14.652 41.9145 14.6744 42.1708C14.6968 42.427 14.77 42.6763 14.8898 42.904C15.0095 43.1317 15.1734 43.3332 15.3719 43.4969C15.8491 43.7756 16.392 43.9219 16.9446 43.9208C17.4972 43.9197 18.0395 43.7712 18.5156 43.4906C18.1586 43.9357 17.9632 44.4887 17.9615 45.0593C17.9598 45.6299 18.1519 46.1841 18.5062 46.6313C18.9669 46.7907 19.4582 46.8415 19.9417 46.7797C20.4253 46.718 20.888 46.5452 21.2937 46.275C21.0916 46.7534 21.0393 47.2819 21.1436 47.7907C21.2479 48.2995 21.504 48.7647 21.8781 49.125C22.4066 49.3598 22.986 49.4566 23.5621 49.4063C24.1382 49.3561 24.6921 49.1603 25.1719 48.8375L26.7844 47.3781C28.2594 48.8469 30.2938 49.7562 32.5406 49.7562L32.7312 49.7531C33.4717 49.6899 34.181 49.4265 34.7833 48.9911C35.3855 48.5556 35.8579 47.9646 36.15 47.2812C36.6062 47.4562 37.125 47.575 37.675 47.575C38.4125 47.575 39.0969 47.3625 39.675 46.9969C41.5031 45.7875 41.0656 44.85 41.0656 44.85C41.7157 45.1298 42.4378 45.1962 43.1279 45.0395C43.8181 44.8828 44.4407 44.5112 44.9062 43.9781C45.39 43.4833 45.695 42.8413 45.7731 42.1537C45.8512 41.466 45.6979 40.772 45.3375 40.1812C45.3573 40.193 45.3802 40.1985 45.4031 40.1969C46.7188 40.1969 47.8625 39.4719 48.4594 38.4031C48.7531 37.6435 48.8524 36.8226 48.7481 36.0148C48.6439 35.2071 48.3394 34.4383 47.8625 33.7781L47.8719 33.7938C50.4344 33.2938 50.3406 32.0125 51.5906 30.1375C52.7742 28.6074 54.2469 27.3248 55.925 26.3625L46.625 15.375ZM46.4688 37.4375C45.0938 38.8125 44.0312 38.2188 41.6875 36.4375C39.3438 34.6562 34.6875 31.3125 34.6875 31.3125C34.8781 32.2656 35.3188 33.0937 35.9406 33.7531C36.9375 34.875 39.9062 37.4375 41.3125 38.75C42.1875 39.5625 44.4375 41.1875 43.125 42.4375C41.8125 43.6875 40.7812 42.4375 38.625 40.6875C36.4687 38.9375 31.6562 34.625 31.6562 34.625C31.6297 35.0384 31.6912 35.4527 31.8367 35.8405C31.9821 36.2284 32.2082 36.581 32.5 36.875C33.0312 37.5 36 40.375 37.25 41.6875C38.5 43 39.5938 43.7812 38.5312 44.8125C37.4688 45.8438 35.3125 44.2188 34.125 43C32.2812 41.2188 28.625 37.9062 28.625 37.9062L28.6219 38.0719C28.6219 38.9594 28.9281 39.7719 29.4438 40.4156C30.3438 41.5969 32.0937 43.1281 33.1562 44.3156C34.2187 45.5031 34.8437 46.5031 33.1562 47.4406C31.4687 48.3781 28.9688 46.0656 27.875 44.9406V44.9344C27.8752 44.6257 27.7643 44.3273 27.5625 44.0937C27.1887 43.7475 26.7275 43.5098 26.2286 43.4062C25.7297 43.3027 25.212 43.3373 24.7313 43.5063C24.929 43.3292 25.0876 43.1127 25.1967 42.8707C25.3058 42.6287 25.3631 42.3665 25.3649 42.101C25.3667 41.8356 25.3129 41.5727 25.207 41.3292C25.1011 41.0858 24.9454 40.8672 24.75 40.6875C24.3398 40.3767 23.8391 40.2088 23.3245 40.2093C22.8098 40.2099 22.3095 40.3789 21.9 40.6906C22.1071 40.4928 22.2669 40.2509 22.3677 39.9829C22.4684 39.7148 22.5075 39.4275 22.482 39.1423C22.4565 38.8571 22.367 38.5813 22.2203 38.3354C22.0735 38.0895 21.8733 37.8798 21.6344 37.7219C21.0749 37.3704 20.4185 37.2052 19.7593 37.2501C19.1002 37.295 18.4722 37.5477 17.9656 37.9719C18.3042 37.5615 18.4711 37.0362 18.4315 36.5057C18.3919 35.9752 18.1489 35.4805 17.7531 35.125C17.2613 34.6672 16.6345 34.3809 15.9665 34.3088C15.2985 34.2367 14.6251 34.3827 14.0469 34.725L11.9688 31.2156C10.5312 28.9344 8.84375 26.5594 8.84375 26.5594L15.9688 17.9031C15.9688 17.9031 18.5 19.4656 20.5938 20.6531C21.625 21.2469 23.4062 22.0281 24.75 22.6531C22.625 24.2469 20.8438 25.7781 21.375 26.8406C22.3217 27.5202 23.4531 27.8951 24.6184 27.9152C25.7836 27.9353 26.9273 27.5997 27.8969 26.9531C29.1401 26.1267 30.6009 25.6883 32.0938 25.6938C33.1781 25.6938 34.2094 25.9188 35.1438 26.3281C36.875 27.4969 40.0625 30.3719 42.9688 32.1844C46.625 34.8406 47.3438 36.5594 46.4688 37.4344V37.4375Z" fill="#2E660F"/>
</svg>
