<svg width="318" height="322" viewBox="0 0 318 322" fill="none" xmlns="http://www.w3.org/2000/svg">
<path fill-rule="evenodd" clip-rule="evenodd" d="M140.235 148.198C140.01 148.642 139.875 152.733 143.306 152.088C143.905 151.976 144.457 151.722 144.862 151.372C145.266 151.023 145.495 150.601 145.506 150.184C145.402 145.647 141.144 146.463 140.235 148.198ZM171.119 142.325C171.598 143.813 172.108 145.117 174.366 144.692C174.966 144.58 175.518 144.326 175.922 143.977C176.327 143.627 176.555 143.205 176.567 142.789C176.439 141.855 176.114 140.958 175.603 140.126C174.077 138.819 170.334 139.911 171.119 142.325ZM158.819 159.026C159.48 158.902 165.176 157.636 166.386 156.679C166.753 156.401 166.637 156.021 166.569 155.661C165.674 151.606 164.324 147.648 162.532 143.822C162.491 143.606 162.206 143.615 162.041 143.676C161.876 143.737 161.829 143.955 161.915 144.296C162.137 145.475 162.064 145.906 163.924 152.391C165.141 156.63 164.743 155.454 165.007 156.149C163.102 157.019 161.123 157.795 159.09 158.469C157.743 158.931 158.777 159.034 158.819 159.026ZM167.426 167.712C165.953 168.582 164.273 169.248 162.499 169.667C162.409 169.684 162.327 169.725 162.271 169.78C162.215 169.835 162.19 169.9 162.201 169.962C162.213 170.023 162.26 170.074 162.332 170.105C162.404 170.137 162.495 170.144 162.586 170.127C163.632 170.182 164.718 170.068 165.762 169.795C166.806 169.521 167.782 169.094 168.616 168.546C169.45 167.999 170.121 167.344 170.58 166.631C171.038 165.918 171.272 165.165 171.264 164.428C171.27 164.397 171.267 164.366 171.255 164.337C171.243 164.308 171.223 164.282 171.195 164.261C171.167 164.239 171.133 164.222 171.094 164.21C171.054 164.199 171.011 164.193 170.966 164.194C170.922 164.194 170.876 164.201 170.833 164.214C170.789 164.226 170.748 164.244 170.712 164.267C170.677 164.29 170.647 164.316 170.625 164.346C170.602 164.375 170.588 164.406 170.582 164.437C169.919 165.661 168.832 166.789 167.426 167.712ZM51.0499 74.7653C58.8514 86.0896 78.1055 81.8399 80.5373 82.3353C80.5644 82.4791 87.1647 93.1658 89.2523 94.411C90.4189 95.0999 92.7616 94.3015 94.3217 93.7994C97.9769 92.5901 102.294 91.6137 105.146 89.3045C105.872 88.7063 105.062 86.9822 104.733 86.4039C103.568 83.9453 102.148 81.5704 100.483 79.2958C99.8707 78.6302 99.3266 77.9318 98.8534 77.2047C100.158 76.0487 101.611 74.9718 103.19 73.9907C105.758 72.1686 107.962 70.1214 109.725 67.9205C113.036 63.1314 113.96 57.9231 112.335 53.2099C110.709 48.4966 106.638 44.5796 100.836 42.1464C83.0798 34.6617 55.1704 43.4447 48.3846 58.3786C46.0708 63.55 47.9937 70.3664 51.0499 74.7653ZM104.036 88.7986C101.492 90.871 97.3538 91.8585 93.8051 93.0477C92.8521 93.376 90.6028 94.2015 89.8847 93.7857C88.458 92.8378 87.3426 91.6837 86.5969 90.3835C92.0172 88.8195 97.228 86.8079 102.104 84.3966C103.081 85.7547 103.732 87.2388 104.036 88.7986ZM101.759 83.851C96.4437 85.5607 91.2856 87.568 86.3422 89.8506C85.4776 88.2849 84.4566 86.7757 83.2856 85.3327C88.7172 83.9073 93.9467 81.9908 98.826 79.6374C99.9719 80.996 100.977 82.4187 101.834 83.8965L101.759 83.851ZM49.8109 58.5718C56.3938 44.4356 83.0948 36.1482 99.8641 43.1932C105.316 45.4904 109.149 49.1724 110.7 53.6019C112.251 58.0314 111.422 62.9295 108.357 67.4483C105.331 71.6516 98.3287 75.4717 97.4164 76.954C97.0955 77.4761 98.0551 78.472 98.6754 79.1892C96.306 79.9628 93.7158 80.8525 91.3971 81.6613C90.387 79.8111 85.9069 72.4187 84.447 70.7575C83.8801 70.0898 83.5074 70.2195 82.4187 70.6478C76.1972 71.8189 69.1573 72.042 66.2182 68.4997C65.8658 68.086 65.5891 67.6384 65.3935 67.1657C64.7054 65.1506 66.6795 62.2771 69.3966 61.9443C69.3109 63.5987 70.263 66.5469 72.4364 67.0761C74.6098 67.6052 76.5976 65.7418 76.3539 64.4473C76.0646 63.5352 75.4456 62.7192 74.5506 62.0701C73.6556 61.421 72.5118 60.9585 71.2184 60.7227C71.4567 60.1462 71.8668 59.5946 72.4204 59.1062C72.9739 58.6178 73.6576 58.2042 74.424 57.8942C75.1905 57.5842 76.0213 57.3851 76.859 57.3108C77.6967 57.2364 78.5211 57.2886 79.2752 57.4637C78.0089 59.9956 80.6478 64.756 83.4061 63.0007C86.1643 61.2454 84.6319 58.4958 82.4723 57.2194C81.4285 56.5968 81.2774 56.8486 81.6815 56.5342C84.8323 54.1689 89.1477 55.4118 91.2996 57.7024C94.3601 60.8346 90.0777 66.2127 87.0908 68.16C87.0178 68.2073 86.9708 68.2703 86.9603 68.3351C86.9497 68.3999 86.9765 68.4613 87.0345 68.5056C87.0926 68.55 87.1773 68.5737 87.27 68.5717C87.3627 68.5696 87.4558 68.5418 87.5288 68.4945C91.1968 66.1808 95.3348 60.6213 92.324 57.167C89.3132 53.7127 83.3001 53.2957 80.1138 56.2932C79.1223 56.0424 78.029 55.9594 76.9144 56.0503C75.7999 56.1412 74.6925 56.4036 73.6739 56.8183C72.6554 57.233 71.7515 57.7893 71.029 58.4463C70.3065 59.1033 69.7838 59.8442 69.4993 60.6144C65.4713 61.0152 62.7136 64.766 63.6944 67.5153C64.1708 68.7223 65.0964 69.7821 66.3867 70.5979C67.6771 71.4138 69.2912 71.9597 71.0818 72.1861C73.2064 72.4563 80.5449 72.2962 83.2545 71.2202C84.5054 72.474 89.6528 80.2471 90.625 81.896C81.4355 85.115 83.4804 85.43 82.8357 84.5834C82.0624 83.5226 81.3993 81.8752 80.9089 81.8483C68.8092 82.2643 57.9493 82.9384 52.213 74.2634C49.4158 70.0689 47.632 63.4051 49.8109 58.5718ZM70.921 61.9553C71.8011 62.19 72.5698 62.5624 73.175 63.0472C73.7801 63.532 74.2075 64.1179 74.4282 64.7651C74.5013 65.1534 73.3992 66.448 72.3516 65.4538C71.4968 64.4117 71.0361 63.2083 71.0062 61.9392L70.921 61.9553ZM80.5635 57.8616C82.4792 58.6627 84.0373 61.0799 82.3271 62.1911C81.5611 61.6559 81.0049 60.989 80.6996 60.2396C80.3943 59.4902 80.3478 58.6776 80.5635 57.8616ZM26.9772 124.794C35.3052 121.335 46.1073 120.94 51.3739 126.65C60.4468 136.291 42.9604 145.36 43.2604 145.9C43.9573 147.258 45.1981 149.63 45.7912 151.023C45.8396 151.14 45.9566 151.232 46.1164 151.279C46.2762 151.326 46.4657 151.323 46.6433 151.272C46.8209 151.221 46.972 151.125 47.0634 151.006C47.1547 150.887 47.1789 150.754 47.1304 150.637C46.604 149.247 45.9372 147.228 45.3573 145.788C48.2163 144.405 50.7869 142.728 52.9614 140.827C65.7487 126.014 46.1136 114.058 25.5484 122.829C22.2769 124.137 19.5291 126.069 17.6865 128.356C15.8438 130.643 14.9976 133.171 15.2653 135.591C15.6502 141.387 23.261 145.018 33.9444 142.351C34.1036 142.301 34.2403 142.216 34.3305 142.111C34.4207 142.005 34.4586 141.886 34.4376 141.775C34.4166 141.663 34.338 141.566 34.2156 141.5C34.0932 141.435 33.9349 141.405 33.7684 141.416C24.2426 143.552 18.2332 139.873 18.3101 135.242C18.1537 133.243 18.9012 131.169 20.4515 129.3C22.0018 127.431 24.2799 125.858 26.9772 124.794ZM179.054 57.313C179.241 57.3114 179.43 57.2578 179.58 57.1639C179.73 57.0701 179.828 56.9437 179.853 56.8126C179.878 56.6815 179.828 56.5564 179.714 56.4648C179.599 56.3733 179.43 56.3227 179.243 56.3243C169.687 56.3062 165.986 51.2988 168.209 46.6957C169.031 44.6719 170.7 42.7835 172.992 41.2865C175.283 39.7896 178.085 38.7565 181.018 38.3275C197.092 35.5848 205.996 44.2144 201.325 52.4507C198.256 58.0621 193.176 60.3736 186.471 62.2611C186.26 62.3221 186.073 62.4269 185.939 62.5596C185.804 62.6923 185.73 62.8458 185.727 62.9969C185.742 64.3642 185.721 67.0638 185.622 68.6462C185.607 68.7733 185.666 68.8917 185.786 68.9754C185.905 69.0591 186.074 69.1012 186.257 69.0925C186.44 69.0838 186.621 69.025 186.76 68.929C186.899 68.833 186.985 68.7076 186.999 68.5806C187.197 66.9349 187.513 64.984 187.671 63.3607C190.886 62.6339 193.978 61.5483 196.818 60.1497C203.499 55.9135 207.033 50.5423 205.375 44.8973C201.49 31.6443 171.391 32.3061 165.365 46.4715C163.068 52.2055 168.204 57.6874 179.054 57.313ZM310.137 102.516C309.391 99.8955 307.501 97.6032 304.705 95.9279C302.071 94.6114 298.995 93.7271 295.665 93.3294C292.334 92.9318 288.821 93.0292 285.341 93.6157C281.791 94.1697 278.417 95.46 275.686 97.308C272.955 99.1561 271.002 101.471 270.097 103.932C267.735 109.782 272.907 115.108 283.736 114.857C283.835 114.868 283.939 114.863 284.042 114.843C284.144 114.823 284.242 114.787 284.329 114.74C284.416 114.692 284.489 114.634 284.544 114.568C284.599 114.502 284.634 114.43 284.646 114.358C284.659 114.287 284.649 114.216 284.617 114.151C284.585 114.087 284.532 114.03 284.461 113.985C284.391 113.94 284.305 113.908 284.209 113.891C284.113 113.874 284.009 113.873 283.906 113.887C274.392 113.742 270.663 108.933 272.893 104.254C273.715 102.23 275.385 100.342 277.677 98.845C279.968 97.348 282.77 96.315 285.702 95.8859C288.668 95.3851 291.662 95.2972 294.503 95.6276C297.345 95.9578 299.975 96.6995 302.235 97.8076C304.562 99.1903 306.146 101.083 306.79 103.25C310.69 115.651 290.457 119.504 290.455 120.547C290.47 122.034 290.477 124.653 290.349 126.197C290.335 126.324 290.394 126.442 290.513 126.526C290.632 126.61 290.802 126.652 290.984 126.643C291.167 126.634 291.348 126.575 291.487 126.479C291.626 126.383 291.712 126.258 291.726 126.131C291.948 124.496 292.241 122.534 292.398 120.911C295.618 120.178 298.716 119.091 301.567 117.696C308.152 113.538 311.806 108.218 310.137 102.516ZM57.3249 160.141C57.7591 157.408 54.5043 155.236 51.8176 155.965C50.0246 156.169 48.237 156.47 46.472 156.867C41.9892 158.485 40.5848 162.979 45.3077 164.16C50.7158 165.465 56.8794 162.697 57.3249 160.141ZM53.9682 160.475C53.2917 161.043 52.4148 161.483 51.4483 161.738C45.7558 163.376 43.8756 160.185 47.5636 158.329L52.0362 156.892C54.0394 156.634 55.0256 159.412 53.9546 160.403L53.9682 160.475ZM184.887 74.4735C179.693 74.1854 175.035 78.9788 179.152 81.5101C183.269 84.0414 190.236 82.7299 191.838 80.2242C193.44 77.7185 191.619 74.7253 188.859 74.8279C188.611 74.8001 186.649 74.5737 184.887 74.4735ZM188.655 79.7214C187.743 80.1197 186.731 80.3607 185.718 80.4209C184.705 80.4812 183.725 80.3586 182.873 80.065C182.186 79.8783 181.594 79.5772 181.141 79.1848C180.304 78.136 182.295 76.5251 183.901 76.1484L188.587 75.728C190.499 76.0383 190.134 79.0259 188.663 79.7645L188.655 79.7214ZM293.539 132.477C293.088 132.427 290.777 132.222 289.594 132.147C284.378 131.863 279.742 136.652 283.858 139.184C287.975 141.715 294.921 140.407 296.545 137.898C298.168 135.388 296.32 132.37 293.539 132.477ZM293.348 137.442C292.436 137.839 291.424 138.079 290.412 138.139C289.399 138.2 288.419 138.078 287.566 137.786C286.883 137.588 286.291 137.283 285.832 136.891C285.018 135.853 286.988 134.246 288.594 133.869L293.28 133.449C295.184 133.716 294.817 136.689 293.348 137.442Z" fill="black"/>
<mask id="path-2-inside-1_159_499" fill="white">
<path fill-rule="evenodd" clip-rule="evenodd" d="M291.064 215.091C284.139 201.74 263.458 183.055 242.51 181.235L237.44 176.336C237.404 176.301 237.356 176.272 237.299 176.253C237.242 176.233 237.178 176.223 237.111 176.223C237.044 176.222 236.976 176.232 236.911 176.252C236.846 176.271 236.785 176.3 236.734 176.335L232.822 178.993C230.319 173.143 225.119 168.251 217.943 164.995C221.505 159.543 228.335 156.798 235.624 155.203C241.664 153.887 246.093 152.801 248.948 148.629C254.61 140.385 251.697 133.934 242.302 129.03C227.991 121.567 223.643 125.424 216.55 121.145C203.085 113.135 197.63 98.5693 179.151 93.9309C155.548 88.083 145.337 98.3002 141.243 101.632C134.059 100.155 119.366 103.904 113.67 108.803C108.827 112.961 102.389 118.373 100.45 123.429C96.306 134.113 99.0759 145.312 92.0153 155.621C90.2907 158.18 86.9207 160.318 84.7271 162.846C81.7521 166.507 79.356 170.337 77.5871 174.258C75.1918 178.878 73.6261 183.805 77.2876 187.434C82.1946 192.289 91.8255 195.987 100.954 193.851C106.235 192.604 112.881 189.119 118.156 189.601C121.296 189.873 122.813 191.598 125.377 192.799C131.213 195.676 143.365 194.595 149.469 190.691C143.378 198.301 132.258 200.171 114.286 211C86.7013 227.6 78.2329 242.151 77.4704 255.564C77.0065 259.78 76.8685 263.977 77.0572 268.137C79.1586 289.38 93.5419 314.105 124.836 312.757C133.416 312.393 143.129 311.369 151.133 308.418C166.298 302.838 183.644 292.201 196.277 283.836C202.163 279.943 223.786 264.718 234.515 261.239C235.899 264.953 238.04 268.443 240.88 271.613C251.978 282.168 267.421 286.737 286.561 279.888C298.963 275.453 300.876 265.577 299.56 256.71C304.225 246.211 294.297 221.482 291.064 215.091ZM204.667 161.626C208.549 161.386 211.601 163.299 214.781 164.726C223.162 168.346 229.289 172.763 232.114 179.335C226.455 183.14 222.763 185.563 222.694 185.665C222.625 185.767 218.705 181.233 216.799 180.952C213.952 180.558 211.297 179.814 208.95 178.75C207.127 177.857 204.771 176.127 204.729 174.496C205.785 173.876 206.973 173.385 208.229 173.048L208.061 172.156C201.502 173.525 200.007 178.006 199.581 179.025C199.277 179.752 198.802 180.512 197.419 180.668C196.037 180.824 195.346 179.852 195.679 178.806C196.012 177.76 196.462 173.357 205.006 170.81C205.113 170.779 205.214 170.735 205.302 170.679C205.389 170.624 205.463 170.558 205.518 170.486C205.573 170.414 205.609 170.337 205.623 170.26C205.637 170.183 205.629 170.107 205.6 170.036C205.57 169.965 205.52 169.901 205.452 169.848C205.384 169.794 205.299 169.752 205.203 169.724C205.107 169.696 205 169.682 204.89 169.683C204.78 169.685 204.668 169.702 204.561 169.733C202.766 170.232 201.069 170.94 199.549 171.823C198.176 172.581 197.005 173.508 196.11 174.545C195.216 175.583 194.617 176.708 194.352 177.85C193.7 180.013 189.955 179.809 190.488 177.951C191.035 176.139 192.021 174.361 193.404 172.696C195.002 171.184 197.021 169.893 199.311 168.919C201.089 168.048 202.733 167.992 203.08 167.494C203.428 166.997 202.164 165.79 201.574 165.469C198.409 163.772 190.864 167.173 187.373 165.268C185.128 164.008 189.187 163.184 190.8 162.732C195.337 161.52 199.933 161.906 204.667 161.626ZM219.196 195.795C213.357 198.282 207.345 200.523 201.199 202.504C201.789 193.919 201.916 186.627 201.224 184.121C206.311 183.834 212.086 183.224 218.438 182.743C220.475 184.31 221.689 185.72 222.178 186.09L218.378 188.637C218.2 188.864 218.096 188.079 219.196 195.795ZM203.878 241.703C205.341 244.288 206.538 246.963 207.459 249.712C198.653 250.982 191.998 252.309 188.7 252.841C188.067 248.775 187.896 247.512 187.842 246.643C193.047 244.711 198.41 243.059 203.878 241.703ZM163.694 212.587C175.793 210.369 187.739 207.433 199.393 203.812C198.2 218.333 195.55 236.018 193.448 239.854C185.012 229.498 185.643 229.335 163.694 212.587ZM195.202 239.33C197.671 233.46 199.981 216.896 201.033 203.265C207.241 201.263 213.307 198.987 219.187 196.452C221.45 212.11 224.908 231.535 229.225 246.851C225.131 247.368 219.185 248.13 213.418 248.903C212.617 246.641 209.663 238.798 208.048 236.898C207.62 236.382 207.193 236.224 205.76 236.464C202.217 237.24 198.723 238.192 195.309 239.31L195.202 239.33ZM192.48 183.027C190.162 182.582 188.198 181.632 186.85 180.304C187.889 180.399 188.957 180.413 190.034 180.345C190.491 180.573 191.048 180.7 191.645 180.711C192.243 180.722 192.857 180.617 193.421 180.408C194.342 180.026 193.708 180.056 194.39 180.866C194.655 181.194 195.047 181.457 195.529 181.63C196.011 181.803 196.568 181.88 197.145 181.855C197.723 181.83 198.304 181.702 198.833 181.485C199.361 181.267 199.82 180.967 200.167 180.612C200.903 179.952 200.853 179.336 201.611 177.853C202.566 177.539 203.493 177.186 204.395 176.823C207.775 180.833 216.132 181.509 216.748 181.736C207.218 182.561 198.819 183.532 192.587 183.007L192.48 183.027ZM151.31 188.989C155.671 184.028 154.089 181.363 148.292 179.52C136.578 175.887 138.183 177.148 132.523 171.691C125.335 162.455 126.841 145.492 128.767 134.273C129.291 131.195 135.977 126.75 141.348 126.215C148.796 125.469 146.218 128.65 152.761 128.952C153.889 128.962 155.036 128.866 156.171 128.667C156.241 128.669 156.313 128.661 156.382 128.643C156.451 128.626 156.517 128.599 156.575 128.566C156.633 128.532 156.683 128.491 156.721 128.446C156.759 128.402 156.785 128.353 156.798 128.304C156.81 128.254 156.809 128.205 156.794 128.159C156.778 128.113 156.75 128.071 156.709 128.035C156.669 127.999 156.617 127.97 156.557 127.95C156.497 127.93 156.431 127.918 156.361 127.917C152.785 127.197 149.417 126.155 146.335 124.815C146.96 120.989 149.895 118.411 156.089 117.215C160.351 116.413 164.129 117.966 167.506 119.266C171.596 120.834 176.686 126.191 177.018 129.598C177.075 133.608 179.162 137.275 182.92 139.97C185.521 142.071 189.936 143.489 192.72 145.154C194.263 146.085 194.487 151.494 194.156 153.954C193.536 156.17 192.134 160.44 191.809 161.41C182.943 163.302 183.933 166.452 188.454 167.031C185.077 171.002 176.013 176.417 183.831 179.621C185.72 181.455 188.651 183.897 192.012 184.173C194.397 184.366 196.834 184.406 199.293 184.291C200.181 186.433 200.036 194.1 199.308 203.128C187.338 206.803 175.071 209.765 162.653 211.978C153.361 204.926 144.196 198.311 142.014 197.381C146.04 195.094 149.282 192.194 151.417 188.969L151.31 188.989ZM138.206 199.305C142.264 197.424 140.169 198.012 141.292 198.351C142.415 198.691 150.862 204.89 160.704 212.286C151.011 214.006 140.032 215.566 135.86 216.024C136.971 215.13 131.636 204.369 130.13 203.163C133.062 201.747 135.779 200.476 138.313 199.284L138.206 199.305ZM128.637 203.906C131.186 207.811 133.192 211.919 134.632 216.181C125.271 217.022 115.955 217.142 106.857 216.539C113.688 211.929 121.013 207.694 128.743 203.886L128.637 203.906ZM150.15 307.53C142.414 310.386 132.912 311.356 124.639 311.707C111.702 312.251 101.919 308.21 94.8811 301.999C83.7025 292.189 77.7988 275.592 78.2921 263.094C78.394 260.588 78.6504 258.082 78.7921 255.553C79.5998 241.209 89.9925 228.559 105.738 217.509C123.422 218.514 135.055 217.843 161.622 212.947C183.8 229.622 184.584 231.559 191.701 240.421C190.12 240.927 182.812 243.36 181.666 244.306C181.207 244.675 181.309 245.222 183.448 253.77C164.107 257.678 145.529 263.29 129.157 274.414C125.074 264.445 126.935 260.848 130.781 253.973C136.822 243.171 135.091 241.71 129.17 237.329C128.224 236.765 127.488 236.051 127.011 235.233C126.946 234.888 124.726 234.814 128.401 237.816C133.648 242.249 135.032 243.27 129.181 253.679C124.903 261.305 123.28 265.11 128.553 274.84C127.189 275.797 125.628 276.88 124.155 278.081C121.873 279.744 119.772 281.52 117.874 283.388C117.842 283.452 117.846 283.518 117.885 283.572C117.925 283.626 117.996 283.664 118.083 283.677C118.17 283.69 118.267 283.677 118.351 283.642C118.435 283.607 118.501 283.551 118.533 283.488C119.044 282.572 129.126 275.537 131.895 273.958C147.371 265.222 164.737 256.92 194.925 252.622C196.157 261.244 199.077 269.544 203.608 277.303C189.459 286.758 169.401 300.452 150.257 307.51L150.15 307.53ZM204.82 276.479C200.556 268.883 197.782 260.799 196.563 252.418C229.177 247.768 218.949 249.217 229.476 247.712C230.65 251.84 232.083 256.291 233.723 260.316C225.569 262.938 211.712 271.95 204.927 276.459L204.82 276.479ZM285.471 279.021C267.223 285.568 252.559 281.15 241.869 271.01C230.058 259.83 221.03 203.313 218.866 188.887L236.808 177.081C270.316 210.463 274.151 213.494 282.444 225.083C293.118 239.828 309.317 270.571 285.577 279.001L285.471 279.021ZM298.502 253.782C296.559 246.173 293.362 238.863 288.972 231.986C278.879 215.523 269.898 208.01 244.277 183.121L244.833 182.793C263.901 185.876 282.794 203.035 289.273 215.651C292.759 222.218 301.208 244.248 298.608 253.762L298.502 253.782Z"/>
</mask>
<path fill-rule="evenodd" clip-rule="evenodd" d="M291.064 215.091C284.139 201.74 263.458 183.055 242.51 181.235L237.44 176.336C237.404 176.301 237.356 176.272 237.299 176.253C237.242 176.233 237.178 176.223 237.111 176.223C237.044 176.222 236.976 176.232 236.911 176.252C236.846 176.271 236.785 176.3 236.734 176.335L232.822 178.993C230.319 173.143 225.119 168.251 217.943 164.995C221.505 159.543 228.335 156.798 235.624 155.203C241.664 153.887 246.093 152.801 248.948 148.629C254.61 140.385 251.697 133.934 242.302 129.03C227.991 121.567 223.643 125.424 216.55 121.145C203.085 113.135 197.63 98.5693 179.151 93.9309C155.548 88.083 145.337 98.3002 141.243 101.632C134.059 100.155 119.366 103.904 113.67 108.803C108.827 112.961 102.389 118.373 100.45 123.429C96.306 134.113 99.0759 145.312 92.0153 155.621C90.2907 158.18 86.9207 160.318 84.7271 162.846C81.7521 166.507 79.356 170.337 77.5871 174.258C75.1918 178.878 73.6261 183.805 77.2876 187.434C82.1946 192.289 91.8255 195.987 100.954 193.851C106.235 192.604 112.881 189.119 118.156 189.601C121.296 189.873 122.813 191.598 125.377 192.799C131.213 195.676 143.365 194.595 149.469 190.691C143.378 198.301 132.258 200.171 114.286 211C86.7013 227.6 78.2329 242.151 77.4704 255.564C77.0065 259.78 76.8685 263.977 77.0572 268.137C79.1586 289.38 93.5419 314.105 124.836 312.757C133.416 312.393 143.129 311.369 151.133 308.418C166.298 302.838 183.644 292.201 196.277 283.836C202.163 279.943 223.786 264.718 234.515 261.239C235.899 264.953 238.04 268.443 240.88 271.613C251.978 282.168 267.421 286.737 286.561 279.888C298.963 275.453 300.876 265.577 299.56 256.71C304.225 246.211 294.297 221.482 291.064 215.091ZM204.667 161.626C208.549 161.386 211.601 163.299 214.781 164.726C223.162 168.346 229.289 172.763 232.114 179.335C226.455 183.14 222.763 185.563 222.694 185.665C222.625 185.767 218.705 181.233 216.799 180.952C213.952 180.558 211.297 179.814 208.95 178.75C207.127 177.857 204.771 176.127 204.729 174.496C205.785 173.876 206.973 173.385 208.229 173.048L208.061 172.156C201.502 173.525 200.007 178.006 199.581 179.025C199.277 179.752 198.802 180.512 197.419 180.668C196.037 180.824 195.346 179.852 195.679 178.806C196.012 177.76 196.462 173.357 205.006 170.81C205.113 170.779 205.214 170.735 205.302 170.679C205.389 170.624 205.463 170.558 205.518 170.486C205.573 170.414 205.609 170.337 205.623 170.26C205.637 170.183 205.629 170.107 205.6 170.036C205.57 169.965 205.52 169.901 205.452 169.848C205.384 169.794 205.299 169.752 205.203 169.724C205.107 169.696 205 169.682 204.89 169.683C204.78 169.685 204.668 169.702 204.561 169.733C202.766 170.232 201.069 170.94 199.549 171.823C198.176 172.581 197.005 173.508 196.11 174.545C195.216 175.583 194.617 176.708 194.352 177.85C193.7 180.013 189.955 179.809 190.488 177.951C191.035 176.139 192.021 174.361 193.404 172.696C195.002 171.184 197.021 169.893 199.311 168.919C201.089 168.048 202.733 167.992 203.08 167.494C203.428 166.997 202.164 165.79 201.574 165.469C198.409 163.772 190.864 167.173 187.373 165.268C185.128 164.008 189.187 163.184 190.8 162.732C195.337 161.52 199.933 161.906 204.667 161.626ZM219.196 195.795C213.357 198.282 207.345 200.523 201.199 202.504C201.789 193.919 201.916 186.627 201.224 184.121C206.311 183.834 212.086 183.224 218.438 182.743C220.475 184.31 221.689 185.72 222.178 186.09L218.378 188.637C218.2 188.864 218.096 188.079 219.196 195.795ZM203.878 241.703C205.341 244.288 206.538 246.963 207.459 249.712C198.653 250.982 191.998 252.309 188.7 252.841C188.067 248.775 187.896 247.512 187.842 246.643C193.047 244.711 198.41 243.059 203.878 241.703ZM163.694 212.587C175.793 210.369 187.739 207.433 199.393 203.812C198.2 218.333 195.55 236.018 193.448 239.854C185.012 229.498 185.643 229.335 163.694 212.587ZM195.202 239.33C197.671 233.46 199.981 216.896 201.033 203.265C207.241 201.263 213.307 198.987 219.187 196.452C221.45 212.11 224.908 231.535 229.225 246.851C225.131 247.368 219.185 248.13 213.418 248.903C212.617 246.641 209.663 238.798 208.048 236.898C207.62 236.382 207.193 236.224 205.76 236.464C202.217 237.24 198.723 238.192 195.309 239.31L195.202 239.33ZM192.48 183.027C190.162 182.582 188.198 181.632 186.85 180.304C187.889 180.399 188.957 180.413 190.034 180.345C190.491 180.573 191.048 180.7 191.645 180.711C192.243 180.722 192.857 180.617 193.421 180.408C194.342 180.026 193.708 180.056 194.39 180.866C194.655 181.194 195.047 181.457 195.529 181.63C196.011 181.803 196.568 181.88 197.145 181.855C197.723 181.83 198.304 181.702 198.833 181.485C199.361 181.267 199.82 180.967 200.167 180.612C200.903 179.952 200.853 179.336 201.611 177.853C202.566 177.539 203.493 177.186 204.395 176.823C207.775 180.833 216.132 181.509 216.748 181.736C207.218 182.561 198.819 183.532 192.587 183.007L192.48 183.027ZM151.31 188.989C155.671 184.028 154.089 181.363 148.292 179.52C136.578 175.887 138.183 177.148 132.523 171.691C125.335 162.455 126.841 145.492 128.767 134.273C129.291 131.195 135.977 126.75 141.348 126.215C148.796 125.469 146.218 128.65 152.761 128.952C153.889 128.962 155.036 128.866 156.171 128.667C156.241 128.669 156.313 128.661 156.382 128.643C156.451 128.626 156.517 128.599 156.575 128.566C156.633 128.532 156.683 128.491 156.721 128.446C156.759 128.402 156.785 128.353 156.798 128.304C156.81 128.254 156.809 128.205 156.794 128.159C156.778 128.113 156.75 128.071 156.709 128.035C156.669 127.999 156.617 127.97 156.557 127.95C156.497 127.93 156.431 127.918 156.361 127.917C152.785 127.197 149.417 126.155 146.335 124.815C146.96 120.989 149.895 118.411 156.089 117.215C160.351 116.413 164.129 117.966 167.506 119.266C171.596 120.834 176.686 126.191 177.018 129.598C177.075 133.608 179.162 137.275 182.92 139.97C185.521 142.071 189.936 143.489 192.72 145.154C194.263 146.085 194.487 151.494 194.156 153.954C193.536 156.17 192.134 160.44 191.809 161.41C182.943 163.302 183.933 166.452 188.454 167.031C185.077 171.002 176.013 176.417 183.831 179.621C185.72 181.455 188.651 183.897 192.012 184.173C194.397 184.366 196.834 184.406 199.293 184.291C200.181 186.433 200.036 194.1 199.308 203.128C187.338 206.803 175.071 209.765 162.653 211.978C153.361 204.926 144.196 198.311 142.014 197.381C146.04 195.094 149.282 192.194 151.417 188.969L151.31 188.989ZM138.206 199.305C142.264 197.424 140.169 198.012 141.292 198.351C142.415 198.691 150.862 204.89 160.704 212.286C151.011 214.006 140.032 215.566 135.86 216.024C136.971 215.13 131.636 204.369 130.13 203.163C133.062 201.747 135.779 200.476 138.313 199.284L138.206 199.305ZM128.637 203.906C131.186 207.811 133.192 211.919 134.632 216.181C125.271 217.022 115.955 217.142 106.857 216.539C113.688 211.929 121.013 207.694 128.743 203.886L128.637 203.906ZM150.15 307.53C142.414 310.386 132.912 311.356 124.639 311.707C111.702 312.251 101.919 308.21 94.8811 301.999C83.7025 292.189 77.7988 275.592 78.2921 263.094C78.394 260.588 78.6504 258.082 78.7921 255.553C79.5998 241.209 89.9925 228.559 105.738 217.509C123.422 218.514 135.055 217.843 161.622 212.947C183.8 229.622 184.584 231.559 191.701 240.421C190.12 240.927 182.812 243.36 181.666 244.306C181.207 244.675 181.309 245.222 183.448 253.77C164.107 257.678 145.529 263.29 129.157 274.414C125.074 264.445 126.935 260.848 130.781 253.973C136.822 243.171 135.091 241.71 129.17 237.329C128.224 236.765 127.488 236.051 127.011 235.233C126.946 234.888 124.726 234.814 128.401 237.816C133.648 242.249 135.032 243.27 129.181 253.679C124.903 261.305 123.28 265.11 128.553 274.84C127.189 275.797 125.628 276.88 124.155 278.081C121.873 279.744 119.772 281.52 117.874 283.388C117.842 283.452 117.846 283.518 117.885 283.572C117.925 283.626 117.996 283.664 118.083 283.677C118.17 283.69 118.267 283.677 118.351 283.642C118.435 283.607 118.501 283.551 118.533 283.488C119.044 282.572 129.126 275.537 131.895 273.958C147.371 265.222 164.737 256.92 194.925 252.622C196.157 261.244 199.077 269.544 203.608 277.303C189.459 286.758 169.401 300.452 150.257 307.51L150.15 307.53ZM204.82 276.479C200.556 268.883 197.782 260.799 196.563 252.418C229.177 247.768 218.949 249.217 229.476 247.712C230.65 251.84 232.083 256.291 233.723 260.316C225.569 262.938 211.712 271.95 204.927 276.459L204.82 276.479ZM285.471 279.021C267.223 285.568 252.559 281.15 241.869 271.01C230.058 259.83 221.03 203.313 218.866 188.887L236.808 177.081C270.316 210.463 274.151 213.494 282.444 225.083C293.118 239.828 309.317 270.571 285.577 279.001L285.471 279.021ZM298.502 253.782C296.559 246.173 293.362 238.863 288.972 231.986C278.879 215.523 269.898 208.01 244.277 183.121L244.833 182.793C263.901 185.876 282.794 203.035 289.273 215.651C292.759 222.218 301.208 244.248 298.608 253.762L298.502 253.782Z" fill="black" stroke="black" stroke-width="2" mask="url(#path-2-inside-1_159_499)"/>
</svg>
