<svg width="382" height="356" viewBox="0 0 382 356" fill="none" xmlns="http://www.w3.org/2000/svg">
<path d="M232.017 200.576C231.846 200.575 231.681 200.498 231.56 200.359C230.082 198.668 228.666 196.818 227.171 194.871L226.308 193.779C226.193 193.632 226.135 193.439 226.145 193.242C226.156 193.046 226.234 192.862 226.364 192.732C226.493 192.601 226.663 192.535 226.835 192.547C227.008 192.559 227.169 192.648 227.284 192.796L228.148 193.897C229.633 195.864 231.033 197.654 232.467 199.317C232.557 199.42 232.619 199.551 232.644 199.694C232.669 199.837 232.656 199.985 232.607 200.12C232.558 200.255 232.475 200.37 232.368 200.451C232.262 200.532 232.137 200.575 232.009 200.576H232.017Z" fill="#2E660F"/>
<path d="M232.251 230.555C229.02 228.902 226.809 227.85 226.809 227.85C226.809 227.85 230.575 214.454 223.811 209.693L225.668 209.86C227.828 210.137 229.974 210.544 232.095 211.08C233.317 214.133 233.962 217.444 233.989 220.799C234.016 224.153 233.424 227.477 232.251 230.555Z" fill="#2E660F"/>
<path d="M212.21 160.534C209.057 161.105 203.572 162.973 194.778 168.688C194.139 165.934 193.526 163.288 192.947 160.819C198.821 156.384 205.36 154.013 209.532 153.856C210.31 155.921 211.226 158.174 212.21 160.534Z" fill="#2E660F"/>
<path d="M309.52 181.042H309.408C303.912 180.092 298.354 179.681 292.796 179.812C292.625 179.812 292.46 179.735 292.338 179.596C292.217 179.458 292.149 179.27 292.149 179.075C292.149 178.879 292.217 178.691 292.338 178.553C292.46 178.415 292.625 178.337 292.796 178.337H292.926C298.498 178.208 304.07 178.62 309.581 179.566C309.742 179.597 309.887 179.695 309.987 179.842C310.087 179.989 310.135 180.173 310.121 180.358C310.107 180.544 310.031 180.716 309.91 180.841C309.789 180.966 309.631 181.034 309.468 181.032L309.52 181.042Z" fill="#2E660F"/>
<path d="M276.729 180.039C269.36 180.039 262.977 179.567 259.599 177.216C256.125 174.833 253.089 171.707 250.659 168.01C249.747 166.543 248.633 165.254 247.359 164.194C247.282 164.144 247.216 164.077 247.163 163.997C247.11 163.917 247.071 163.826 247.051 163.729C247.03 163.631 247.026 163.53 247.041 163.431C247.055 163.333 247.087 163.238 247.135 163.154C247.182 163.07 247.244 162.997 247.317 162.941C247.39 162.885 247.472 162.847 247.559 162.828C247.645 162.809 247.734 162.811 247.82 162.833C247.906 162.854 247.987 162.896 248.058 162.954C249.449 164.099 250.665 165.494 251.661 167.085C254.011 170.643 256.944 173.65 260.299 175.937C264.471 178.888 274.12 178.652 284.304 178.446C284.476 178.446 284.641 178.523 284.763 178.662C284.884 178.8 284.952 178.988 284.952 179.183C284.952 179.379 284.884 179.566 284.763 179.705C284.641 179.843 284.476 179.921 284.304 179.921C281.713 179.99 279.165 180.039 276.729 180.039Z" fill="#2E660F"/>
<path d="M294.438 198.717H294.265C288.218 196.799 284.288 195.54 278.915 195.51C278.743 195.51 278.578 195.432 278.457 195.294C278.335 195.156 278.267 194.968 278.267 194.772C278.267 194.577 278.335 194.389 278.457 194.251C278.578 194.113 278.743 194.035 278.915 194.035C284.461 194.035 288.719 195.422 294.611 197.29C294.76 197.34 294.888 197.449 294.973 197.597C295.057 197.745 295.092 197.923 295.071 198.098C295.05 198.273 294.975 198.434 294.859 198.551C294.742 198.668 294.593 198.734 294.438 198.736V198.717Z" fill="#2E660F"/>
<path d="M266.821 196.218C259.431 196.26 252.154 194.147 245.683 190.081C244.193 189.145 242.831 187.965 241.641 186.579C241.577 186.513 241.525 186.432 241.489 186.342C241.453 186.251 241.433 186.154 241.431 186.055C241.428 185.956 241.444 185.858 241.476 185.766C241.507 185.674 241.555 185.59 241.616 185.519C241.677 185.448 241.75 185.392 241.83 185.354C241.91 185.316 241.996 185.297 242.083 185.298C242.17 185.299 242.256 185.319 242.336 185.359C242.416 185.398 242.488 185.455 242.548 185.527C243.648 186.811 244.909 187.905 246.288 188.773C255.868 194.556 263.426 195.245 271.84 194.497C272.011 194.483 272.181 194.547 272.311 194.674C272.442 194.801 272.524 194.981 272.54 195.176C272.547 195.273 272.537 195.37 272.511 195.463C272.485 195.556 272.443 195.641 272.387 195.715C272.332 195.789 272.264 195.85 272.188 195.894C272.112 195.939 272.029 195.965 271.944 195.973C270.285 196.11 268.609 196.218 266.821 196.218Z" fill="#2E660F"/>
<path d="M239.533 183.54C239.438 183.541 239.343 183.517 239.256 183.471C239.17 183.425 239.093 183.358 239.032 183.275C238.471 182.488 237.926 181.701 237.391 180.924C235.508 178.19 233.728 175.603 231.983 174.806C231.831 174.727 231.712 174.585 231.65 174.409C231.588 174.232 231.588 174.035 231.65 173.859C231.713 173.683 231.833 173.541 231.985 173.462C232.137 173.384 232.31 173.376 232.467 173.439C234.532 174.422 236.328 176.99 238.41 180.019C238.937 180.776 239.473 181.563 240.034 182.34C240.113 182.448 240.163 182.58 240.179 182.719C240.195 182.858 240.175 183 240.122 183.127C240.07 183.254 239.986 183.361 239.882 183.436C239.777 183.511 239.656 183.551 239.533 183.55V183.54Z" fill="#2E660F"/>
<path d="M277.99 217.021C277.918 217.035 277.845 217.035 277.774 217.021C273.866 215.464 269.887 214.15 265.853 213.087C265.768 213.068 265.687 213.029 265.615 212.974C265.543 212.918 265.481 212.847 265.434 212.763C265.387 212.68 265.355 212.587 265.34 212.489C265.325 212.392 265.327 212.292 265.347 212.195C265.367 212.099 265.403 212.008 265.454 211.928C265.506 211.848 265.571 211.78 265.645 211.73C265.72 211.679 265.803 211.646 265.889 211.632C265.975 211.618 266.063 211.625 266.147 211.651C270.239 212.73 274.276 214.063 278.24 215.644C278.386 215.7 278.51 215.814 278.589 215.965C278.667 216.116 278.696 216.294 278.67 216.467C278.644 216.64 278.565 216.796 278.447 216.909C278.328 217.021 278.179 217.082 278.024 217.08L277.99 217.021Z" fill="#2E660F"/>
<path d="M263.176 212.329H263.038C258.304 211.188 253.268 210.264 247.636 209.496C242.65 208.975 237.925 206.723 234.1 203.044C234.034 202.98 233.981 202.901 233.942 202.813C233.904 202.725 233.881 202.629 233.875 202.531C233.869 202.433 233.88 202.334 233.907 202.241C233.935 202.147 233.978 202.061 234.035 201.987C234.092 201.913 234.161 201.852 234.238 201.808C234.315 201.764 234.399 201.738 234.486 201.731C234.572 201.724 234.659 201.737 234.74 201.768C234.822 201.799 234.898 201.849 234.963 201.913C238.597 205.402 243.084 207.537 247.817 208.031C253.492 208.798 258.572 209.733 263.366 210.883C263.52 210.925 263.655 211.028 263.746 211.175C263.838 211.322 263.879 211.502 263.862 211.681C263.845 211.86 263.771 212.025 263.654 212.147C263.537 212.268 263.386 212.336 263.228 212.339L263.176 212.329Z" fill="#2E660F"/>
<path d="M200.298 182.911H199.892C199.722 182.898 199.563 182.809 199.449 182.664C199.336 182.518 199.278 182.328 199.287 182.134C199.292 182.037 199.313 181.943 199.35 181.855C199.387 181.768 199.438 181.691 199.502 181.626C199.565 181.562 199.639 181.513 199.72 181.482C199.8 181.451 199.885 181.438 199.97 181.445C203.857 181.701 211.597 177.078 214.758 173.281C214.81 173.192 214.878 173.115 214.957 173.058C215.037 173.001 215.127 172.965 215.22 172.951C215.314 172.938 215.409 172.948 215.498 172.98C215.588 173.013 215.67 173.067 215.74 173.14C215.809 173.212 215.864 173.301 215.9 173.4C215.936 173.499 215.953 173.606 215.949 173.713C215.945 173.82 215.921 173.925 215.878 174.02C215.835 174.116 215.774 174.199 215.7 174.265C212.461 178.209 204.686 182.911 200.298 182.911Z" fill="#2E660F"/>
<path d="M205.792 204.284C205.62 204.284 205.455 204.206 205.334 204.068C205.212 203.929 205.144 203.742 205.144 203.546C205.144 203.35 205.212 203.163 205.334 203.024C205.455 202.886 205.62 202.808 205.792 202.808C209.8 202.808 218.939 195.5 221.228 189.412C221.262 189.323 221.31 189.242 221.371 189.174C221.432 189.107 221.504 189.053 221.583 189.017C221.662 188.981 221.747 188.963 221.832 188.964C221.917 188.965 222.001 188.985 222.079 189.024C222.157 189.062 222.228 189.117 222.288 189.186C222.347 189.256 222.394 189.338 222.426 189.427C222.458 189.517 222.473 189.614 222.473 189.711C222.472 189.807 222.454 189.903 222.42 189.992C220.054 196.268 210.733 204.284 205.792 204.284Z" fill="#2E660F"/>
<path d="M239.991 235.463C239.866 235.463 239.743 235.422 239.638 235.344C239.533 235.267 239.45 235.157 239.399 235.027C239.348 234.897 239.331 234.752 239.35 234.612C239.369 234.471 239.424 234.339 239.507 234.233C243.127 229.61 243.826 221.26 241.019 216.706C240.965 216.628 240.925 216.537 240.903 216.441C240.88 216.345 240.875 216.244 240.887 216.146C240.9 216.047 240.93 215.952 240.975 215.867C241.021 215.782 241.081 215.708 241.153 215.65C241.224 215.592 241.305 215.551 241.39 215.53C241.476 215.509 241.564 215.507 241.65 215.526C241.736 215.545 241.818 215.583 241.891 215.639C241.963 215.695 242.025 215.767 242.073 215.85C245.217 220.906 244.448 230.142 240.466 235.217C240.406 235.293 240.333 235.354 240.251 235.397C240.169 235.439 240.081 235.461 239.991 235.463Z" fill="#2E660F"/>
<path d="M255.885 238.109C255.774 238.108 255.664 238.075 255.568 238.012C255.471 237.949 255.39 237.859 255.332 237.75C255.275 237.642 255.243 237.518 255.24 237.391C255.237 237.264 255.263 237.139 255.315 237.027C258.528 230.142 257.043 224.447 253.587 217.562C253.517 217.394 253.506 217.201 253.555 217.024C253.604 216.846 253.71 216.696 253.852 216.604C253.994 216.512 254.162 216.485 254.321 216.527C254.48 216.57 254.619 216.679 254.71 216.834C257.578 222.578 260.308 229.404 256.438 237.725C256.383 237.839 256.304 237.934 256.207 238.001C256.11 238.068 255.999 238.105 255.885 238.109Z" fill="#2E660F"/>
<path d="M114.399 131.617C113.452 132.717 112.411 133.706 111.29 134.568C107.895 137.519 102.816 141.709 101.909 142.437L101.77 142.555L101.641 142.673C101.37 142.887 101.081 143.068 100.777 143.214C98.3496 141.099 96.1296 139.732 94.6352 140.037C92.9756 140.616 91.448 141.603 90.1606 142.928C84.8467 139.141 79.8139 134.864 75.1128 130.142C78.7149 123.09 92.4929 111.513 96.0692 111.513C99.6454 111.513 106.478 117.503 108.353 120.149C108.742 119.171 109.241 118.255 109.838 117.424C112.179 124.929 114.287 131.519 114.399 131.617Z" fill="#2E660F"/>
<path d="M88.2863 355.655C81.8768 355.655 72.1674 354.485 60.2639 352.704C53.4051 351.721 49.3193 349.429 49.0342 346.508C48.8787 344.747 50.2004 343.164 52.5586 342.259C64.6521 337.646 85.142 327.171 90.4804 323.276C90.5518 323.217 90.6329 323.176 90.7188 323.154C90.8047 323.133 90.8935 323.131 90.9799 323.15C91.0664 323.168 91.1485 323.207 91.2215 323.263C91.2944 323.319 91.3565 323.391 91.4041 323.475C91.4516 323.56 91.4837 323.654 91.4981 323.753C91.5126 323.852 91.5093 323.953 91.4883 324.05C91.4674 324.147 91.4293 324.239 91.3763 324.319C91.3233 324.399 91.2565 324.466 91.1801 324.515C85.7812 328.449 65.1186 339.013 52.9732 343.655C51.2456 344.314 50.2349 345.347 50.3213 346.36C50.4595 347.944 53.1806 350.176 60.3935 351.278C69.4118 352.606 93.3829 356.137 95.4129 352.872C97.5724 349.399 102.496 336.239 102.548 336.151C102.582 336.062 102.63 335.981 102.691 335.913C102.752 335.845 102.824 335.792 102.903 335.756C102.982 335.72 103.066 335.702 103.151 335.703C103.237 335.704 103.321 335.724 103.399 335.762C103.477 335.8 103.548 335.856 103.608 335.925C103.667 335.994 103.714 336.076 103.746 336.166C103.777 336.256 103.793 336.352 103.792 336.449C103.791 336.546 103.774 336.642 103.74 336.731C103.533 337.282 98.7127 350.167 96.4667 353.776C95.6547 355.075 92.7868 355.655 88.2863 355.655Z" fill="#0F2064"/>
<path d="M42.2096 287.336C41.6063 287.379 41.0054 287.218 40.4819 286.874C34.677 282.468 16.1826 260.072 15.7852 252.39C15.7361 251.97 15.7763 251.542 15.9026 251.143C16.0289 250.745 16.2375 250.386 16.5108 250.098C18.5754 248.131 28.924 251.298 43.2894 256.049C45.6649 256.836 47.9022 257.573 49.8458 258.183C50.0119 258.235 50.153 258.361 50.238 258.531C50.3231 258.702 50.3451 258.904 50.2993 259.093C50.2535 259.282 50.1435 259.443 49.9937 259.54C49.8438 259.636 49.6663 259.662 49.5003 259.609C47.5566 258.99 45.3107 258.252 42.9266 257.465C33.986 254.514 19.0246 249.597 17.3315 251.22C17.2537 251.298 17.0205 251.524 17.055 252.311C17.4006 258.911 35.1003 281.041 41.173 285.654C41.89 286.195 45.6821 286.992 64.5826 274.432L65.1527 274.058C65.3025 273.968 65.4773 273.948 65.6398 274.002C65.8023 274.057 65.9395 274.182 66.022 274.351C66.1045 274.519 66.1257 274.718 66.0811 274.904C66.0365 275.09 65.9296 275.249 65.7833 275.347L65.2305 275.71C53.6207 283.441 45.8895 287.336 42.2096 287.336Z" fill="#0F2064"/>
<path d="M111.203 331.617H111.091C109.234 331.243 92.7346 327.682 85.634 318.83C85.5375 318.711 85.4785 318.558 85.466 318.396C85.4535 318.234 85.4883 318.072 85.5649 317.935C85.5649 317.935 87.4826 314.493 90.2555 309.447C90.9811 308.129 92.1473 305.936 93.633 303.123C102.617 286.166 123.668 246.439 132.272 241.895C144.262 235.561 184.464 254.003 198.942 261.636C199.091 261.723 199.204 261.872 199.259 262.052C199.313 262.232 199.305 262.429 199.234 262.602C199.164 262.775 199.038 262.91 198.882 262.98C198.726 263.049 198.552 263.047 198.398 262.973C185.034 255.921 144.314 237.164 132.825 243.233C124.575 247.59 103.671 287.041 94.7474 303.88C93.253 306.703 92.0781 308.906 91.3525 310.234C89.193 314.168 87.5431 317.119 86.9211 318.24C93.5035 325.951 107.722 329.374 110.858 330.043C111.436 328.863 113.104 325.528 115.445 321.063C121.151 310.013 127.373 299.319 134.086 289.028C139.537 280.874 144.149 275.415 147.786 272.789C147.932 272.685 148.108 272.651 148.275 272.694C148.443 272.737 148.589 272.855 148.68 273.02C148.772 273.186 148.802 273.386 148.764 273.577C148.726 273.768 148.623 273.934 148.477 274.038C144.97 276.566 140.478 281.907 135.114 289.923C128.438 300.177 122.25 310.831 116.576 321.84C113.656 327.407 111.799 331.204 111.782 331.243C111.724 331.359 111.64 331.455 111.538 331.521C111.436 331.587 111.32 331.62 111.203 331.617Z" fill="#0F2064"/>
<path d="M300.182 163.249H300.13C299.96 163.232 299.802 163.138 299.692 162.989C299.582 162.84 299.528 162.647 299.543 162.453C299.802 159 298.601 154.21 297.435 149.587C296.546 146.368 295.856 143.081 295.37 139.752C294.835 135.06 295.88 130.427 296.986 125.519C298.808 117.444 300.692 109.094 295.465 99.6909C289.082 88.1831 279.709 92.2551 279.312 92.442L278.854 92.6485L278.552 92.2059C278.491 92.1174 272.427 83.2456 264.178 85.2226C252.456 88.0257 248.283 103.763 246.901 116.471C245.856 125.706 242.142 127.241 237.84 129.001C235.246 129.924 232.803 131.326 230.61 133.152C226.472 136.781 226.342 140.489 226.221 144.079C226.126 146.755 226.04 149.292 224.131 151.22C222.973 152.337 221.518 152.975 220.002 153.03C217.816 153.335 215.562 153.64 212.348 159.708C212.305 159.792 212.247 159.864 212.179 159.922C212.11 159.98 212.033 160.022 211.95 160.046C211.783 160.094 211.606 160.065 211.459 159.964C211.311 159.864 211.204 159.701 211.162 159.511C211.12 159.321 211.146 159.119 211.234 158.951C214.776 152.263 217.462 151.899 219.872 151.564C221.135 151.547 222.355 151.036 223.328 150.119C224.822 148.604 224.9 146.588 224.986 144.02C225.107 140.47 225.263 136.044 229.875 131.982C232.174 130.059 234.737 128.583 237.46 127.614C241.684 125.883 244.733 124.664 245.675 116.284C247.16 103.104 251.54 86.7766 264.014 83.8259C272.09 81.8588 278.016 89.088 279.39 90.9469C281.515 90.2093 290.516 87.888 296.666 98.963C302.186 108.907 300.121 117.956 298.342 125.942C297.271 130.703 296.252 135.198 296.761 139.614C297.238 142.877 297.913 146.097 298.783 149.253C299.975 154.013 301.218 158.931 300.933 162.649C300.919 162.745 300.888 162.836 300.842 162.918C300.796 163 300.737 163.071 300.667 163.127C300.597 163.183 300.518 163.222 300.435 163.243C300.352 163.264 300.266 163.266 300.182 163.249Z" fill="#0F2064"/>
<path d="M116.006 321.446C113.043 327.082 111.203 330.869 111.203 330.869C104.932 329.6 91.9659 325.626 86.1523 318.328C86.1523 318.328 88.07 314.886 90.8515 309.84C95.0411 313.578 102.582 317.935 116.006 321.446Z" fill="#0F2064"/>
<path d="M111.203 331.617H111.091C109.234 331.243 92.7346 327.682 85.634 318.83C85.5375 318.711 85.4785 318.558 85.466 318.396C85.4535 318.234 85.4883 318.072 85.5649 317.935C85.5649 317.935 87.4826 314.493 90.2555 309.447C90.3038 309.359 90.3679 309.284 90.4434 309.226C90.519 309.169 90.6043 309.13 90.694 309.112C90.7836 309.095 90.8755 309.099 90.9637 309.124C91.0518 309.15 91.1343 309.196 91.2057 309.26C96.4318 313.893 104.828 317.748 116.153 320.729C116.253 320.755 116.345 320.808 116.424 320.883C116.502 320.959 116.563 321.054 116.603 321.161C116.642 321.269 116.659 321.386 116.651 321.502C116.644 321.618 116.612 321.731 116.559 321.83C113.639 327.397 111.782 331.194 111.765 331.233C111.709 331.348 111.628 331.444 111.53 331.512C111.431 331.579 111.318 331.615 111.203 331.617ZM86.9298 318.25C93.5121 325.961 107.731 329.384 110.866 330.053C111.411 328.951 112.896 325.971 115.004 321.938C104.319 319.047 96.2504 315.339 90.9897 310.922C89.0029 314.562 87.5085 317.207 86.9211 318.26L86.9298 318.25Z" fill="#0F2064"/>
<path d="M66.7253 279.055C66.6276 279.056 66.531 279.031 66.4427 278.983C66.3545 278.936 66.2768 278.866 66.2156 278.779C65.896 278.317 58.303 267.272 56.7654 254.003C56.7492 253.868 56.7666 253.729 56.8154 253.604C56.8642 253.479 56.9426 253.372 57.0418 253.295C57.0418 253.295 59.8924 251.092 64.4707 247.659C77.4799 237.922 124.938 206.487 129.137 205.149C133.568 203.733 141.506 203.821 149.255 207.205C153.038 208.898 156.712 210.889 160.251 213.165C162.566 214.621 165.046 216.273 167.628 218.083C185 230.289 226.697 256.029 227.12 256.295C227.264 256.392 227.37 256.548 227.415 256.732C227.46 256.916 227.441 257.112 227.361 257.28C227.282 257.448 227.149 257.574 226.989 257.632C226.83 257.691 226.657 257.677 226.507 257.593C226.083 257.337 184.361 231.578 166.955 219.342C164.363 217.542 161.927 215.9 159.638 214.424C156.153 212.172 152.533 210.2 148.806 208.523C141.377 205.267 133.594 205.198 129.499 206.556C125.405 207.913 77.6008 239.594 65.1963 248.849C61.5251 251.603 58.9854 253.551 58.113 254.22C59.5383 265.413 65.5073 275.16 66.9326 277.363C68.0124 276.783 70.8803 275.258 74.8366 273.114C85.4443 267.34 105.131 256.393 117.855 248.151C118.003 248.071 118.171 248.058 118.327 248.114C118.483 248.17 118.615 248.291 118.696 248.452C118.777 248.614 118.801 248.805 118.763 248.986C118.726 249.167 118.63 249.326 118.494 249.43C105.736 257.731 86.0145 268.668 75.3894 274.452C70.2929 277.215 67.0017 278.956 67.0017 278.956C66.9174 279.013 66.8228 279.046 66.7253 279.055Z" fill="#0F2064"/>
<path d="M75.1128 273.812C70.0163 276.576 66.7338 278.317 66.7338 278.317C66.7338 278.317 58.9594 267.124 57.4218 253.904C57.4218 253.904 60.2119 251.741 64.8506 248.278C66.1982 255.606 69.0661 265.589 75.1128 273.812Z" fill="#0F2064"/>
<path d="M66.7253 279.055C66.6276 279.055 66.531 279.031 66.4427 278.983C66.3545 278.936 66.2768 278.866 66.2156 278.779C65.896 278.317 58.303 267.271 56.7654 254.003C56.7492 253.867 56.7666 253.729 56.8154 253.604C56.8642 253.479 56.9426 253.372 57.0418 253.295C57.0418 253.295 59.8924 251.092 64.4793 247.659C64.5675 247.592 64.6686 247.551 64.774 247.539C64.8794 247.527 64.9858 247.544 65.0838 247.59C65.1818 247.636 65.2685 247.708 65.3363 247.801C65.4041 247.893 65.451 248.003 65.4727 248.121C66.7598 255.085 69.5673 265.108 75.6054 273.34C75.6692 273.426 75.7148 273.528 75.7387 273.637C75.7626 273.747 75.7642 273.861 75.7433 273.971C75.7225 274.081 75.6797 274.184 75.6184 274.273C75.557 274.361 75.4787 274.432 75.3894 274.481C70.2929 277.245 67.0017 278.986 67.0017 278.986C66.9152 279.032 66.8208 279.055 66.7253 279.055ZM58.087 254.249C59.5124 265.442 65.4814 275.189 66.9067 277.392C67.9174 276.851 70.4916 275.474 74.0591 273.547C68.5048 265.678 65.7405 256.324 64.3843 249.469C61.1536 251.908 58.9163 253.58 58.1043 254.249H58.087Z" fill="#0F2064"/>
<path d="M63.7621 239.328C63.6729 239.328 63.5847 239.307 63.503 239.267C63.4212 239.226 63.3477 239.167 63.287 239.092C34.6513 204.451 16.2259 160.515 1.42001 125.205C1.39542 125.145 1.37799 125.082 1.36819 125.018C0.806702 121.398 1.1004 119.323 2.30112 118.467C3.87328 117.356 6.54249 118.605 11.5008 122.785C16.9775 127.398 18.1436 129.542 20.2773 133.437C20.8906 134.548 21.573 135.817 22.4714 137.371C22.8774 138.05 23.4734 139.142 24.2941 140.647C45.5355 179.33 69.0228 208.336 94.1169 226.886C94.1884 226.939 94.25 227.008 94.2982 227.088C94.3464 227.168 94.3803 227.258 94.398 227.353C94.4156 227.448 94.4167 227.546 94.401 227.641C94.3854 227.737 94.3534 227.828 94.3069 227.909C94.2604 227.99 94.2003 228.061 94.13 228.115C94.0596 228.17 93.9805 228.209 93.8971 228.229C93.8137 228.249 93.7276 228.25 93.6438 228.233C93.56 228.215 93.48 228.178 93.4086 228.125C68.1676 209.438 44.5507 180.304 23.2056 141.394C22.385 139.899 21.7976 138.827 21.4089 138.168C20.4932 136.634 19.8022 135.355 19.1889 134.234C17.0811 130.368 16.0186 128.431 10.7493 123.985C6.58568 120.474 3.98557 119.067 2.9749 119.736C2.59482 120.001 2.05924 120.995 2.62073 124.654C17.3835 159.846 35.757 203.625 64.2286 238.069C64.3143 238.175 64.3712 238.306 64.3923 238.448C64.4134 238.589 64.3978 238.734 64.3473 238.866C64.2969 238.998 64.2139 239.11 64.1084 239.188C64.0029 239.267 63.8796 239.309 63.7535 239.309L63.7621 239.328Z" fill="#0F2064"/>
<path d="M104.085 275.671C103.977 275.672 103.87 275.641 103.774 275.582C100.025 273.202 96.2938 270.586 92.6916 267.822C92.5598 267.708 92.4714 267.54 92.4446 267.354C92.4178 267.168 92.4546 266.977 92.5475 266.821C92.6404 266.665 92.7823 266.555 92.9441 266.515C93.1059 266.474 93.2752 266.505 93.4172 266.602C96.9934 269.347 100.691 271.933 104.405 274.294C104.533 274.372 104.634 274.498 104.692 274.649C104.75 274.801 104.761 274.97 104.724 275.13C104.687 275.29 104.604 275.432 104.488 275.531C104.373 275.631 104.231 275.684 104.085 275.681V275.671Z" fill="#0F2064"/>
<path d="M182.59 297.733C166.3 297.854 150.08 295.317 134.423 290.199C134.341 290.172 134.265 290.126 134.199 290.066C134.132 290.005 134.077 289.93 134.036 289.845C133.995 289.76 133.97 289.667 133.96 289.571C133.951 289.474 133.959 289.377 133.982 289.284C134.006 289.191 134.046 289.104 134.099 289.029C134.152 288.953 134.218 288.89 134.293 288.844C134.367 288.797 134.449 288.768 134.534 288.757C134.618 288.747 134.704 288.755 134.786 288.782C152.425 294.684 171.766 297.113 192.273 295.982C211.51 294.92 229.081 292.048 244.5 287.573C244.661 287.539 244.828 287.576 244.966 287.677C245.104 287.778 245.204 287.935 245.244 288.116C245.285 288.297 245.264 288.489 245.185 288.653C245.106 288.817 244.975 288.94 244.819 288.999C229.314 293.543 211.657 296.385 192.334 297.448C189.051 297.638 185.803 297.733 182.59 297.733Z" fill="#0F2064"/>
<path d="M256.395 285.133C256.242 285.13 256.096 285.066 255.98 284.952C255.865 284.838 255.789 284.682 255.765 284.51C255.741 284.338 255.771 284.163 255.85 284.014C255.929 283.865 256.052 283.753 256.196 283.697C316.664 261.006 333.5 212.998 348.34 170.636L348.435 170.35C365.038 122.962 377.529 67.6065 379.861 56.9938C379.882 56.8995 379.918 56.8107 379.969 56.7325C380.019 56.6542 380.083 56.5881 380.156 56.5379C380.229 56.4877 380.31 56.4543 380.394 56.4397C380.479 56.4251 380.565 56.4295 380.647 56.4528C380.73 56.476 380.808 56.5176 380.877 56.5752C380.946 56.6328 381.004 56.7052 381.048 56.7883C381.092 56.8714 381.121 56.9636 381.134 57.0596C381.147 57.1556 381.143 57.2535 381.123 57.3478C378.782 67.9802 366.273 123.424 349.645 170.901L349.55 171.186C342.397 191.605 334.295 214.739 320.517 235.118C304.717 258.527 283.813 274.865 256.594 285.064C256.531 285.1 256.464 285.123 256.395 285.133Z" fill="#0F2064"/>
<path d="M366.549 59.9744C358.818 59.9861 351.163 58.2441 344.03 54.85C343.882 54.7664 343.768 54.6221 343.711 54.4464C343.654 54.2706 343.657 54.0766 343.721 53.9038C343.785 53.7309 343.904 53.5922 344.054 53.5159C344.205 53.4395 344.375 53.4312 344.531 53.4926C363.638 62.6103 380.12 56.5417 380.284 56.4434C380.367 56.4043 380.455 56.385 380.544 56.3867C380.633 56.3884 380.721 56.411 380.802 56.4532C380.884 56.4954 380.956 56.5561 381.016 56.6317C381.075 56.7073 381.12 56.7961 381.149 56.8925C381.177 56.9889 381.187 57.0908 381.179 57.1919C381.17 57.2931 381.144 57.3912 381.101 57.4801C381.058 57.5691 380.999 57.6469 380.929 57.7089C380.858 57.7708 380.777 57.8155 380.69 57.84C376.091 59.3204 371.329 60.0393 366.549 59.9744Z" fill="#0F2064"/>
<path d="M297.262 146.981C297.141 146.98 297.022 146.941 296.92 146.868C296.817 146.795 296.735 146.69 296.682 146.566C296.629 146.442 296.607 146.304 296.62 146.167C296.632 146.03 296.678 145.899 296.752 145.791C329.448 97.8809 341.568 60.8593 343.667 53.9251C343.694 53.8334 343.738 53.7488 343.794 53.6762C343.851 53.6036 343.919 53.5444 343.996 53.5019C344.072 53.4594 344.156 53.4346 344.241 53.4287C344.326 53.4229 344.411 53.4361 344.492 53.4678C344.572 53.4994 344.646 53.5488 344.71 53.6132C344.774 53.6775 344.826 53.7555 344.863 53.8427C344.901 53.9299 344.922 54.0247 344.928 54.1215C344.933 54.2183 344.921 54.3154 344.893 54.4071C342.785 61.3806 330.606 98.5989 297.78 146.695C297.719 146.785 297.64 146.858 297.551 146.907C297.461 146.957 297.362 146.982 297.262 146.981Z" fill="#0F2064"/>
<path d="M154.04 279.261C151.639 279.261 149.206 279.192 146.741 279.055C146.656 279.049 146.573 279.025 146.496 278.983C146.419 278.942 146.35 278.883 146.293 278.811C146.236 278.739 146.192 278.654 146.164 278.563C146.135 278.471 146.123 278.374 146.128 278.278C146.132 278.181 146.153 278.086 146.19 277.998C146.227 277.911 146.278 277.832 146.342 277.767C146.405 277.703 146.479 277.653 146.559 277.62C146.64 277.588 146.725 277.574 146.81 277.579C190.001 280.038 223.69 260.023 248.249 242.308C276.876 221.653 318.218 176.763 338.51 134.293C357.445 94.6253 360.883 65.9345 360.909 65.6493C360.919 65.553 360.947 65.4602 360.989 65.376C361.031 65.2918 361.088 65.2179 361.155 65.1585C361.223 65.0991 361.3 65.0555 361.382 65.03C361.464 65.0045 361.55 64.9977 361.634 65.01C361.719 65.0222 361.8 65.0533 361.874 65.1015C361.948 65.1497 362.013 65.2139 362.065 65.2907C362.117 65.3674 362.156 65.455 362.178 65.5486C362.201 65.6422 362.207 65.7399 362.196 65.8362C362.196 66.1214 358.697 95.0875 339.65 134.991C319.272 177.688 277.705 222.794 248.949 243.558C225.634 260.377 194.104 279.261 154.04 279.261Z" fill="#0F2064"/>
<path d="M346.146 55.7445C346.06 55.7443 345.974 55.7242 345.895 55.6855C345.814 55.649 345.741 55.5942 345.679 55.5244C345.617 55.4547 345.568 55.3714 345.534 55.2795C345.501 55.1877 345.485 55.0892 345.486 54.99C345.487 54.8907 345.506 54.7928 345.541 54.702C352.21 36.3387 355.752 19.5196 358.879 4.67755L359.742 0.566228C359.783 0.375801 359.887 0.211304 360.034 0.108932C360.181 0.00655896 360.357 -0.025304 360.524 0.0203463C360.691 0.0659967 360.836 0.185423 360.926 0.352355C361.016 0.519287 361.044 0.720049 361.004 0.910477L360.14 5.0218C357.004 19.9229 353.445 36.801 346.742 55.2724C346.695 55.4099 346.614 55.5283 346.507 55.6125C346.401 55.6966 346.275 55.7426 346.146 55.7445Z" fill="#0F2064"/>
<path d="M377.2 58.8334C377.115 58.8296 377.032 58.8067 376.954 58.7661C376.877 58.7255 376.807 58.6679 376.75 58.5966C376.692 58.5254 376.647 58.4419 376.618 58.3508C376.588 58.2598 376.575 58.1631 376.578 58.0662C376.872 50.2665 369.374 18.8119 362.757 2.98626C362.716 2.89848 362.69 2.80197 362.682 2.70259C362.674 2.6032 362.684 2.503 362.711 2.40805C362.738 2.31311 362.781 2.22538 362.839 2.15019C362.897 2.075 362.967 2.01391 363.046 1.97061C363.125 1.92732 363.211 1.90272 363.298 1.8983C363.386 1.89389 363.473 1.90976 363.555 1.94494C363.638 1.98012 363.712 2.03389 363.776 2.10298C363.839 2.17208 363.889 2.25507 363.923 2.34693C370.748 18.6644 378.185 49.9911 377.874 58.1252C377.871 58.2221 377.851 58.3173 377.815 58.4054C377.779 58.4934 377.729 58.5726 377.666 58.6384C377.604 58.7042 377.53 58.7552 377.45 58.7887C377.37 58.8222 377.285 58.8373 377.2 58.8334Z" fill="#0F2064"/>
<path d="M355.208 63.9575C355.103 63.9596 355 63.9328 354.906 63.8794C354.813 63.826 354.732 63.7477 354.671 63.651C354.61 63.5543 354.57 63.4423 354.555 63.3244C354.54 63.2065 354.551 63.0863 354.586 62.974C355.916 57.8496 360.892 25.254 361.721 3.90071C361.725 3.80384 361.745 3.70881 361.782 3.62104C361.818 3.53327 361.869 3.45448 361.932 3.38918C361.995 3.32388 362.069 3.27334 362.149 3.24044C362.229 3.20755 362.314 3.19294 362.399 3.19746C362.484 3.20198 362.568 3.22554 362.645 3.26679C362.722 3.30804 362.791 3.36617 362.848 3.43787C362.906 3.50956 362.95 3.59341 362.979 3.68464C363.008 3.77587 363.021 3.87269 363.017 3.96956C362.153 25.4311 357.177 58.243 355.83 63.3969C355.795 63.5556 355.715 63.6968 355.603 63.7983C355.49 63.8998 355.351 63.9558 355.208 63.9575Z" fill="#0F2064"/>
<path d="M366.869 65.3839C366.697 65.3839 366.532 65.3062 366.41 65.1678C366.289 65.0295 366.221 64.8419 366.221 64.6462C366.213 64.581 366.213 64.5148 366.221 64.4495C366.428 62.0496 365.858 24.8018 361.712 4.12714C361.686 3.9421 361.723 3.75283 361.815 3.59775C361.907 3.44266 362.048 3.33338 362.209 3.29208C362.369 3.25078 362.537 3.28055 362.679 3.37535C362.821 3.47016 362.926 3.6229 362.973 3.80256C366.895 23.3559 368.113 64.0266 367.352 65.1085C367.294 65.1909 367.22 65.2581 367.137 65.3056C367.053 65.3531 366.962 65.3798 366.869 65.3839Z" fill="#0F2064"/>
<path d="M1.92103 121.044C1.79795 121.044 1.67734 121.005 1.57331 120.93C1.46928 120.855 1.38614 120.748 1.33363 120.621C-0.394019 116.412 0.772144 81.062 6.58567 60.0628C6.60894 59.9674 6.64882 59.8783 6.70295 59.8008C6.75707 59.7234 6.82433 59.6591 6.90072 59.6119C6.97712 59.5647 7.06109 59.5354 7.14762 59.5259C7.23415 59.5164 7.32147 59.5268 7.40439 59.5565C7.48732 59.5862 7.56414 59.6346 7.63029 59.6988C7.69644 59.763 7.75057 59.8418 7.78943 59.9303C7.8283 60.0189 7.85111 60.1154 7.85652 60.2142C7.86194 60.313 7.84985 60.412 7.82095 60.5054C2.22337 80.7374 0.910355 116.028 2.50843 119.992C2.55506 120.104 2.57593 120.228 2.56909 120.353C2.56224 120.477 2.52791 120.597 2.46928 120.702C2.41065 120.807 2.32965 120.894 2.23379 120.953C2.13793 121.013 2.03034 121.044 1.92103 121.044Z" fill="#0F2064"/>
<path d="M15.4055 123.748C15.2517 123.748 15.1029 123.686 14.9858 123.573C14.8687 123.459 14.7908 123.302 14.7662 123.129C14.1011 118.339 13.22 112.369 12.2871 106.044C9.49691 87.1498 6.34394 65.7178 6.54262 60.2984C6.5436 60.2006 6.56209 60.1041 6.59697 60.0148C6.63185 59.9255 6.68238 59.8452 6.74546 59.7789C6.80855 59.7126 6.88285 59.6617 6.96383 59.6292C7.04481 59.5968 7.13076 59.5835 7.2164 59.5902C7.30151 59.594 7.38512 59.6168 7.46245 59.6575C7.53978 59.6981 7.60932 59.7557 7.66709 59.8269C7.72485 59.8982 7.76972 59.9817 7.79911 60.0727C7.82849 60.1638 7.84183 60.2605 7.83836 60.3574C7.63968 65.6391 10.9222 87.8973 13.5655 105.798C14.4984 112.123 15.3795 118.093 16.0447 122.893C16.0721 123.086 16.0311 123.283 15.9307 123.442C15.8302 123.601 15.6786 123.707 15.5091 123.739L15.4055 123.748Z" fill="#0F2064"/>
<path d="M10.6111 123.749C10.4548 123.748 10.3039 123.683 10.1864 123.565C10.069 123.448 9.99276 123.286 9.97191 123.109C9.97191 122.785 6.28339 90.0023 5.95514 69.9374C5.95399 69.8406 5.96962 69.7444 6.00112 69.6544C6.03263 69.5644 6.0794 69.4824 6.13876 69.4129C6.19812 69.3435 6.26891 69.2881 6.34708 69.2498C6.42526 69.2116 6.50928 69.1912 6.59436 69.1899C6.76487 69.1923 6.92807 69.2692 7.05024 69.4046C7.17242 69.5401 7.24424 69.7238 7.25087 69.9178C7.57049 89.9039 11.2158 122.598 11.2504 122.932C11.2613 123.028 11.2554 123.126 11.233 123.22C11.2107 123.314 11.1724 123.401 11.1202 123.478C11.068 123.555 11.0031 123.619 10.9291 123.667C10.8551 123.715 10.7734 123.746 10.6889 123.758L10.6111 123.749Z" fill="#0F2064"/>
<path d="M5.37635 115.782C5.22254 115.782 5.07377 115.719 4.95665 115.606C4.83954 115.492 4.76172 115.335 4.73711 115.162C4.14971 111.08 4.34839 92.1368 5.96374 79.8126C5.99922 79.6304 6.09403 79.4703 6.22908 79.3645C6.36413 79.2587 6.52938 79.2152 6.69151 79.2426C6.85364 79.2701 7.0006 79.3665 7.10279 79.5124C7.20498 79.6583 7.2548 79.8429 7.24219 80.029C5.51455 92.9138 5.51455 111.395 6.01557 114.926C6.04298 115.119 6.00198 115.317 5.90155 115.475C5.80113 115.634 5.6495 115.741 5.48 115.772L5.37635 115.782Z" fill="#0F2064"/>
<path d="M123.055 183.284C98.0041 182.773 80.7276 182.773 67.2175 183.284C63.4693 183.284 59.8742 181.591 57.2215 178.576C54.5687 175.561 53.0749 171.471 53.068 167.203C54.3897 140.765 54.3897 120.759 53.068 104.205C53.0635 102.089 53.4253 99.9919 54.1327 98.0347C54.8401 96.0774 55.8793 94.298 57.1909 92.7982C58.5025 91.2983 60.0608 90.1075 61.7768 89.2937C63.4927 88.4798 65.3327 88.0589 67.1915 88.0551C86.7485 88.6452 108.923 89.1763 124.826 88.0551C128.577 88.0498 132.176 89.7409 134.833 92.7564C137.49 95.772 138.986 99.8653 138.993 104.136C137.757 116.126 138.267 137.017 138.759 157.249C138.837 160.584 138.923 163.918 138.993 167.223C139.001 170.433 138.161 173.572 136.582 176.232C136.482 176.382 136.335 176.483 136.172 176.513C136.008 176.544 135.841 176.502 135.704 176.396C135.566 176.29 135.47 176.129 135.434 175.945C135.398 175.76 135.426 175.568 135.511 175.406C136.941 172.995 137.702 170.151 137.697 167.242C137.628 163.967 137.541 160.633 137.464 157.298C136.971 137.047 136.462 116.106 137.705 104.097C137.685 100.236 136.323 96.5412 133.918 93.8193C131.513 91.0974 128.26 89.5697 124.869 89.5698C108.949 90.691 86.7399 90.1599 67.1743 89.5698C63.7855 89.5853 60.5394 91.125 58.1432 93.8534C55.7469 96.5818 54.3947 100.278 54.3811 104.136C55.7027 120.7 55.7027 140.774 54.3811 167.242C54.3993 171.098 55.755 174.79 58.1528 177.513C60.5507 180.236 63.7964 181.769 67.1829 181.78C80.7104 181.268 97.9523 181.268 123.072 181.78C123.244 181.78 123.409 181.857 123.53 181.996C123.652 182.134 123.72 182.322 123.72 182.517C123.72 182.713 123.652 182.9 123.53 183.039C123.409 183.177 123.244 183.255 123.072 183.255L123.055 183.284Z" fill="#0F2064"/>
<path d="M222.671 184.298C222.541 184.298 222.414 184.253 222.306 184.17C222.198 184.086 222.115 183.968 222.068 183.829C222.02 183.691 222.01 183.54 222.039 183.396C222.068 183.251 222.135 183.12 222.23 183.019C232.864 171.767 253.181 152.873 269.818 152.755C269.925 152.755 270.031 152.785 270.125 152.841C270.22 152.898 270.302 152.979 270.363 153.079C272.134 156.109 273.861 157.476 276.323 157.8C278.051 158.036 280.184 157.8 283.484 154.604C283.561 154.53 283.652 154.478 283.749 154.451C283.846 154.424 283.948 154.422 284.046 154.446C295.828 157.446 305.512 164.282 312.059 174.265C312.163 174.422 312.207 174.619 312.183 174.812C312.158 175.006 312.067 175.181 311.93 175.298C311.792 175.415 311.62 175.466 311.45 175.438C311.279 175.411 311.126 175.307 311.023 175.151C304.717 165.561 295.405 158.931 284.072 155.961C280.521 159.305 278.085 159.512 276.176 159.266C273.421 158.902 271.408 157.397 269.482 154.24C253.345 154.614 233.529 173.075 223.112 184.101C222.992 184.228 222.834 184.298 222.671 184.298Z" fill="#0F2064"/>
<path d="M266.174 153.492C266.657 155.744 268.877 163.662 277.153 163.613C286.111 163.564 289.488 156.462 288.806 154.908C288.123 153.354 284.34 151.033 283.623 151.544C282.906 152.056 277.775 163.928 270.864 152.43C269.914 150.787 265.932 152.351 266.174 153.492Z" fill="#2E660F"/>
<path d="M270.509 151.19C270.424 151.187 270.341 151.164 270.263 151.123C270.186 151.082 270.116 151.025 270.059 150.954C270.001 150.882 269.956 150.799 269.927 150.708C269.897 150.617 269.884 150.52 269.887 150.423C269.96 148.952 269.96 147.478 269.887 146.007C269.872 145.815 269.923 145.623 270.03 145.474C270.136 145.324 270.291 145.228 270.459 145.206C270.627 145.184 270.797 145.238 270.93 145.357C271.064 145.475 271.152 145.649 271.174 145.84C271.256 147.383 271.256 148.93 271.174 150.472C271.172 150.569 271.153 150.665 271.119 150.753C271.084 150.842 271.034 150.922 270.972 150.988C270.911 151.055 270.838 151.107 270.759 151.142C270.679 151.177 270.594 151.193 270.509 151.19Z" fill="#0F2064"/>
<path d="M255.324 108.081C255.185 108.081 255.049 108.031 254.937 107.937C254.825 107.843 254.743 107.711 254.702 107.559C253.838 104.323 253.519 97.5071 257.95 92.5401C258.074 92.4108 258.237 92.3414 258.405 92.3464C258.573 92.3515 258.732 92.4306 258.85 92.5672C258.968 92.7037 259.034 92.887 259.036 93.0783C259.037 93.2696 258.973 93.454 258.857 93.5925C254.857 98.0776 255.194 104.412 255.937 107.126C255.972 107.239 255.983 107.359 255.968 107.477C255.953 107.595 255.913 107.707 255.852 107.803C255.791 107.9 255.71 107.978 255.617 108.032C255.523 108.085 255.42 108.112 255.315 108.11L255.324 108.081Z" fill="#0F2064"/>
<path d="M263.495 107.785C263.339 107.785 263.188 107.719 263.071 107.602C262.953 107.484 262.877 107.323 262.856 107.146C262.174 101.146 263.331 95.8449 265.802 93.6515C265.938 93.5474 266.103 93.5059 266.265 93.5354C266.427 93.5648 266.573 93.663 266.674 93.8102C266.775 93.9574 266.823 94.1426 266.808 94.3285C266.794 94.5145 266.718 94.6873 266.596 94.8121C264.506 96.6612 263.521 101.54 264.143 106.949C264.154 107.046 264.148 107.143 264.126 107.237C264.103 107.331 264.065 107.418 264.013 107.495C263.961 107.572 263.896 107.636 263.822 107.684C263.748 107.732 263.666 107.763 263.582 107.776L263.495 107.785Z" fill="#0F2064"/>
<path d="M271.918 107.786C271.804 107.786 271.693 107.753 271.594 107.689C271.496 107.625 271.414 107.533 271.356 107.422C269.741 104.294 270.112 97.3007 272.73 94.1631C272.85 94.0559 273.001 94.0009 273.154 94.0079C273.307 94.0149 273.453 94.0835 273.566 94.2014C273.679 94.3194 273.751 94.479 273.77 94.6521C273.79 94.8251 273.755 95.0003 273.671 95.1466C271.442 97.8219 271.08 103.999 272.47 106.635C272.55 106.801 272.57 106.997 272.527 107.18C272.483 107.363 272.38 107.52 272.237 107.618C272.146 107.707 272.036 107.765 271.918 107.786Z" fill="#0F2064"/>
<path d="M277.386 109.172C277.275 109.172 277.165 109.14 277.069 109.078C276.972 109.016 276.891 108.926 276.833 108.818C275.304 105.966 275.235 99.799 277.446 96.4253C277.497 96.3478 277.561 96.2825 277.634 96.2332C277.708 96.1838 277.789 96.1514 277.873 96.1377C277.957 96.124 278.043 96.1293 278.125 96.1533C278.208 96.1774 278.285 96.2197 278.353 96.2778C278.421 96.3359 278.479 96.4087 278.522 96.4921C278.565 96.5754 278.594 96.6677 278.606 96.7636C278.618 96.8595 278.613 96.9572 278.592 97.051C278.571 97.1449 278.534 97.233 278.483 97.3105C276.617 100.163 276.625 105.602 277.938 108.051C277.998 108.163 278.031 108.291 278.033 108.422C278.035 108.553 278.006 108.682 277.95 108.796C277.894 108.91 277.812 109.005 277.713 109.071C277.613 109.137 277.501 109.172 277.386 109.172Z" fill="#0F2064"/>
<path d="M283.113 150.413C282.961 150.414 282.815 150.354 282.698 150.245C282.581 150.135 282.502 149.983 282.474 149.813C280.469 137.666 283.536 125.804 283.666 125.312C283.714 125.131 283.822 124.978 283.966 124.885C284.111 124.791 284.282 124.765 284.443 124.811C286.94 125.529 289.116 123.67 290.17 121.506C290.974 119.854 291.388 117.336 289.885 115.693C289.558 115.281 289.158 114.952 288.712 114.728C288.265 114.504 287.782 114.391 287.294 114.395C286.081 114.588 284.969 115.268 284.158 116.313C284.098 116.392 284.024 116.456 283.94 116.5C283.857 116.544 283.766 116.567 283.674 116.569C283.583 116.569 283.493 116.547 283.409 116.504C283.326 116.462 283.251 116.4 283.191 116.323C281.705 114.356 280.081 107.008 282.119 99.1003C282.143 99.0073 282.183 98.9206 282.236 98.8451C282.289 98.7695 282.355 98.7067 282.43 98.6601C282.504 98.6135 282.586 98.5841 282.671 98.5736C282.755 98.5631 282.841 98.5716 282.923 98.5987C283.004 98.6258 283.081 98.671 283.147 98.7317C283.213 98.7923 283.268 98.8673 283.309 98.9522C283.35 99.0371 283.376 99.1304 283.385 99.2267C283.395 99.323 283.387 99.4204 283.363 99.5134C281.584 106.398 282.767 112.457 283.787 114.68C284.738 113.68 285.952 113.065 287.242 112.929C287.913 112.909 288.58 113.051 289.2 113.346C289.819 113.641 290.377 114.083 290.835 114.641C292.503 116.48 292.71 119.46 291.354 122.234C290.144 124.713 287.691 126.857 284.806 126.394C284.201 129.03 282.119 139.338 283.804 149.558C283.82 149.653 283.82 149.751 283.802 149.847C283.785 149.942 283.751 150.033 283.703 150.113C283.655 150.194 283.593 150.263 283.522 150.316C283.45 150.369 283.37 150.405 283.286 150.423L283.113 150.413Z" fill="#0F2064"/>
<path d="M272.116 113.421C271.97 113.421 271.828 113.365 271.714 113.261C271.599 113.158 271.519 113.013 271.486 112.851C271.397 112.186 271.171 111.554 270.826 111.008C270.48 110.463 270.025 110.019 269.499 109.713C269.144 109.539 268.758 109.463 268.372 109.49C267.987 109.518 267.612 109.648 267.279 109.871C267.206 109.92 267.125 109.953 267.04 109.967C266.956 109.981 266.87 109.976 266.787 109.953C266.705 109.929 266.627 109.887 266.559 109.829C266.49 109.771 266.433 109.698 266.389 109.615C266.345 109.532 266.317 109.439 266.304 109.343C266.292 109.247 266.296 109.149 266.317 109.055C266.338 108.961 266.375 108.873 266.426 108.795C266.477 108.717 266.541 108.652 266.614 108.602C267.123 108.26 267.695 108.059 268.285 108.016C268.875 107.974 269.466 108.09 270.008 108.356C270.724 108.749 271.347 109.332 271.823 110.056C272.3 110.78 272.617 111.624 272.747 112.516C272.786 112.707 272.757 112.907 272.666 113.073C272.575 113.239 272.43 113.357 272.263 113.402L272.116 113.421Z" fill="#0F2064"/>
<path d="M254.166 112.477H254.097C254.012 112.467 253.929 112.438 253.854 112.392C253.778 112.345 253.712 112.282 253.658 112.206C253.604 112.13 253.564 112.043 253.54 111.949C253.516 111.856 253.509 111.758 253.518 111.661C253.6 110.745 253.94 109.884 254.486 109.205C255.032 108.526 255.756 108.066 256.55 107.893C257.37 107.65 258.236 107.7 259.03 108.036C259.825 108.372 260.509 108.978 260.99 109.772C261.072 109.939 261.094 110.135 261.051 110.319C261.009 110.504 260.905 110.663 260.762 110.762C260.619 110.861 260.447 110.893 260.284 110.852C260.12 110.81 259.977 110.698 259.885 110.539C259.542 110.012 259.068 109.615 258.524 109.399C257.98 109.184 257.391 109.159 256.835 109.329C256.306 109.434 255.821 109.732 255.454 110.18C255.088 110.627 254.86 111.199 254.805 111.808C254.79 111.99 254.717 112.159 254.599 112.282C254.481 112.406 254.326 112.475 254.166 112.477Z" fill="#0F2064"/>
<path d="M271.201 146.666C269.961 146.668 268.728 146.47 267.538 146.076C265.858 145.5 264.296 144.551 262.94 143.283C261.585 142.015 260.464 140.454 259.643 138.689C256.136 131.372 255.28 119.687 255.98 111.356C255.982 111.255 256.003 111.155 256.04 111.064C256.078 110.972 256.131 110.89 256.198 110.823C256.264 110.756 256.342 110.705 256.426 110.674C256.511 110.642 256.6 110.631 256.688 110.641C256.777 110.65 256.862 110.68 256.94 110.729C257.018 110.778 257.086 110.844 257.14 110.924C257.195 111.004 257.234 111.096 257.256 111.194C257.278 111.292 257.281 111.394 257.267 111.494C256.585 119.598 257.397 130.939 260.774 137.971C261.496 139.553 262.489 140.956 263.693 142.095C264.897 143.235 266.289 144.09 267.787 144.609C269.285 145.129 270.859 145.303 272.417 145.12C273.975 144.938 275.485 144.404 276.859 143.548C277.01 143.454 277.188 143.433 277.353 143.488C277.518 143.543 277.657 143.671 277.74 143.843C277.822 144.015 277.841 144.218 277.793 144.406C277.744 144.594 277.632 144.753 277.481 144.846C275.554 146.043 273.395 146.669 271.201 146.666Z" fill="#0F2064"/>
<path d="M268.54 122.815C269.337 122.815 269.983 121.789 269.983 120.523C269.983 119.257 269.337 118.231 268.54 118.231C267.743 118.231 267.098 119.257 267.098 120.523C267.098 121.789 267.743 122.815 268.54 122.815Z" fill="#0F2064"/>
<path d="M259.66 123.316C260.457 123.316 261.103 122.29 261.103 121.024C261.103 119.759 260.457 118.733 259.66 118.733C258.863 118.733 258.217 119.759 258.217 121.024C258.217 122.29 258.863 123.316 259.66 123.316Z" fill="#0F2064"/>
<path d="M264.748 132.444H264.696C264.316 132.423 263.944 132.313 263.603 132.12C263.262 131.927 262.961 131.655 262.718 131.322C261.206 129.237 261.681 124.526 262.338 118.015L262.424 117.11C262.432 117.013 262.458 116.919 262.499 116.834C262.54 116.749 262.595 116.673 262.662 116.613C262.729 116.552 262.806 116.508 262.888 116.482C262.97 116.455 263.056 116.448 263.141 116.461C263.312 116.483 263.467 116.581 263.574 116.734C263.681 116.887 263.73 117.083 263.711 117.277L263.625 118.182C263.029 124.083 262.562 128.785 263.72 130.388C263.852 130.568 264.017 130.714 264.204 130.816C264.39 130.918 264.593 130.973 264.799 130.978C264.971 130.986 265.133 131.071 265.25 131.215C265.367 131.359 265.428 131.55 265.421 131.745C265.415 131.941 265.34 132.125 265.213 132.258C265.087 132.391 264.919 132.461 264.748 132.453V132.444Z" fill="#0F2064"/>
<path d="M270.613 140.833C267.927 140.833 265.854 137.715 264.791 134.676C264.734 134.539 264.715 134.384 264.737 134.234C264.76 134.083 264.823 133.945 264.918 133.837C265.013 133.729 265.134 133.657 265.266 133.631C265.398 133.605 265.534 133.627 265.655 133.693C268.169 134.853 273.101 132.483 274.017 130.604C274.078 130.478 274.17 130.375 274.282 130.308C274.395 130.242 274.522 130.215 274.647 130.23C274.772 130.244 274.891 130.299 274.989 130.388C275.087 130.477 275.161 130.596 275.2 130.732C276.064 133.791 275.969 138.925 272.065 140.519C271.601 140.719 271.11 140.825 270.613 140.833ZM266.545 135.453C267.409 137.273 269.136 140.145 271.615 139.151C274.095 138.158 274.596 135.011 274.207 132.552C272.042 134.535 269.322 135.565 266.545 135.453Z" fill="#0F2064"/>
<path d="M228.459 211.208H228.312C228.145 211.164 228 211.045 227.909 210.879C227.818 210.713 227.789 210.513 227.828 210.323C229.711 201.264 234.039 194.487 237.589 189.589C240.403 185.79 242.703 181.533 244.413 176.96C244.47 176.775 244.588 176.623 244.743 176.537C244.897 176.451 245.076 176.439 245.238 176.503C245.401 176.567 245.535 176.702 245.61 176.878C245.685 177.054 245.696 177.257 245.64 177.442C244.776 180.235 242.047 185.773 238.591 190.533C235.136 195.294 230.912 201.913 229.089 210.667C229.051 210.824 228.969 210.962 228.855 211.06C228.741 211.157 228.601 211.21 228.459 211.208Z" fill="#0F2064"/>
<path d="M259.668 219.332C259.548 219.332 259.43 219.294 259.328 219.222C259.225 219.15 259.143 219.047 259.089 218.925C259.035 218.802 259.012 218.665 259.023 218.528C259.034 218.392 259.078 218.262 259.15 218.152C262.397 213.178 265.875 208.404 269.568 203.851C271.875 201.028 274.054 198.073 276.098 194.999C281.143 187.288 286.939 180.609 290.515 178.396C290.667 178.302 290.844 178.28 291.01 178.336C291.092 178.363 291.168 178.409 291.234 178.47C291.301 178.531 291.356 178.606 291.397 178.691C291.437 178.776 291.463 178.87 291.472 178.967C291.481 179.063 291.474 179.161 291.449 179.254C291.425 179.347 291.385 179.434 291.332 179.509C291.278 179.585 291.212 179.648 291.137 179.694C287.76 181.789 281.998 188.438 277.135 195.884C274.898 199.307 272.816 201.982 270.527 204.815C266.852 209.333 263.392 214.07 260.161 219.008C260.106 219.101 260.033 219.179 259.948 219.235C259.862 219.291 259.767 219.324 259.668 219.332Z" fill="#0F2064"/>
<path d="M264.014 220.985C263.956 220.994 263.898 220.994 263.841 220.985C257.682 219.017 241.779 214.1 231.974 211.837C229.876 211.306 227.753 210.902 225.617 210.628L223.759 210.46C219.771 210.036 215.765 209.872 211.761 209.969C211.676 209.972 211.591 209.956 211.511 209.922C211.432 209.888 211.359 209.836 211.297 209.77C211.234 209.704 211.184 209.624 211.149 209.536C211.114 209.448 211.094 209.352 211.092 209.256C211.089 209.159 211.103 209.062 211.133 208.971C211.163 208.881 211.208 208.798 211.266 208.727C211.324 208.656 211.394 208.599 211.472 208.559C211.549 208.519 211.633 208.497 211.718 208.493C215.771 208.399 219.826 208.567 223.863 208.995L225.729 209.162C227.915 209.439 230.086 209.849 232.234 210.392C242.073 212.713 258.01 217.572 264.195 219.568C264.344 219.618 264.473 219.726 264.557 219.875C264.642 220.023 264.677 220.201 264.656 220.376C264.635 220.551 264.559 220.712 264.443 220.829C264.327 220.946 264.178 221.012 264.022 221.014L264.014 220.985Z" fill="#0F2064"/>
<path d="M193.215 223.985C193.104 223.985 192.995 223.953 192.898 223.891C192.801 223.83 192.72 223.741 192.662 223.633C192.604 223.526 192.571 223.403 192.566 223.277C192.562 223.15 192.586 223.025 192.636 222.912C193.5 221.063 194.053 219.706 194.493 218.693C195.625 216.067 195.832 215.595 196.748 214.946C197.94 214.09 207.027 209.91 209.835 209.31C209.998 209.287 210.162 209.336 210.295 209.447C210.427 209.557 210.518 209.721 210.548 209.904C210.579 210.088 210.547 210.278 210.46 210.436C210.372 210.594 210.235 210.708 210.077 210.756C207.39 211.326 198.381 215.506 197.448 216.185C196.86 216.608 196.8 216.726 195.66 219.342C195.219 220.326 194.632 221.722 193.794 223.581C193.739 223.703 193.657 223.805 193.554 223.876C193.452 223.947 193.335 223.985 193.215 223.985Z" fill="#0F2064"/>
<path d="M195.772 230.053C195.661 230.054 195.552 230.023 195.455 229.963C195.358 229.903 195.277 229.815 195.218 229.709C195.159 229.602 195.125 229.48 195.119 229.355C195.113 229.229 195.136 229.104 195.184 228.991C198.458 220.729 201.792 217.749 201.931 217.621C202.067 217.501 202.24 217.448 202.41 217.472C202.581 217.497 202.737 217.599 202.842 217.754C202.947 217.909 202.994 218.105 202.972 218.3C202.951 218.495 202.862 218.671 202.725 218.791C202.725 218.791 199.486 221.742 196.368 229.611C196.317 229.743 196.234 229.855 196.128 229.933C196.022 230.012 195.898 230.054 195.772 230.053Z" fill="#0F2064"/>
<path d="M201.179 232.217C201.01 232.217 200.848 232.142 200.727 232.008C200.606 231.874 200.536 231.691 200.531 231.499C200.341 227.892 201.278 224.324 203.175 221.427C203.228 221.352 203.294 221.289 203.369 221.242C203.443 221.196 203.525 221.166 203.61 221.156C203.695 221.145 203.78 221.154 203.862 221.181C203.944 221.208 204.02 221.253 204.086 221.314C204.152 221.375 204.208 221.45 204.249 221.535C204.29 221.62 204.315 221.713 204.325 221.81C204.334 221.906 204.326 222.003 204.302 222.096C204.279 222.19 204.239 222.276 204.185 222.352C202.485 224.975 201.65 228.196 201.827 231.45C201.83 231.547 201.815 231.643 201.785 231.734C201.754 231.824 201.708 231.907 201.65 231.977C201.591 232.048 201.521 232.104 201.443 232.144C201.366 232.183 201.282 232.205 201.197 232.207L201.179 232.217Z" fill="#0F2064"/>
<path d="M206.198 232.217C206.028 232.217 205.864 232.141 205.743 232.004C205.622 231.868 205.552 231.683 205.55 231.489C205.55 229.306 205.714 224.496 206.777 221.939C206.85 221.761 206.982 221.624 207.144 221.558C207.306 221.491 207.485 221.501 207.641 221.585C207.796 221.668 207.917 221.819 207.975 222.003C208.033 222.187 208.025 222.391 207.952 222.568C207.088 224.702 206.811 229.148 206.846 231.42C206.847 231.517 206.831 231.613 206.8 231.703C206.768 231.793 206.722 231.875 206.662 231.945C206.603 232.014 206.532 232.07 206.454 232.108C206.376 232.146 206.292 232.166 206.207 232.168L206.198 232.217Z" fill="#0F2064"/>
<path d="M210.871 232.541H210.785C210.7 232.528 210.619 232.496 210.545 232.447C210.471 232.397 210.407 232.332 210.356 232.254C210.304 232.177 210.267 232.088 210.246 231.994C210.224 231.9 210.22 231.802 210.232 231.705C210.88 226.365 211.476 224.437 212.616 224.034C212.776 223.992 212.943 224.02 213.085 224.113C213.227 224.206 213.333 224.357 213.381 224.535C213.429 224.714 213.416 224.906 213.345 225.074C213.273 225.242 213.149 225.373 212.996 225.44C212.72 225.538 212.132 226.502 211.51 231.902C211.489 232.079 211.413 232.241 211.296 232.358C211.178 232.476 211.027 232.541 210.871 232.541Z" fill="#0F2064"/>
<path d="M250.564 242.22C250.438 242.221 250.315 242.18 250.21 242.102C244.906 238.168 237.373 233.988 231.992 231.224C229.4 229.896 227.457 228.962 226.809 228.647C222.17 230.614 219.518 228.303 217.929 226.916L217.54 226.581C216.244 225.499 214.171 226.001 212.124 226.699C212.042 226.727 211.956 226.736 211.872 226.726C211.787 226.716 211.705 226.688 211.63 226.641C211.555 226.595 211.488 226.533 211.434 226.458C211.381 226.382 211.34 226.296 211.316 226.203C211.292 226.11 211.284 226.012 211.292 225.916C211.301 225.819 211.326 225.725 211.367 225.64C211.407 225.555 211.462 225.479 211.528 225.418C211.595 225.357 211.671 225.311 211.752 225.283C214.119 224.476 216.547 223.936 218.309 225.391L218.723 225.745C220.218 227.044 222.464 229.011 226.584 227.162C226.739 227.091 226.913 227.091 227.068 227.162C227.068 227.162 229.331 228.234 232.527 229.866C237.952 232.65 245.554 236.82 250.927 240.853C251.044 240.939 251.134 241.067 251.183 241.217C251.231 241.366 251.236 241.53 251.196 241.683C251.156 241.836 251.074 241.97 250.962 242.065C250.849 242.16 250.713 242.211 250.573 242.21L250.564 242.22Z" fill="#0F2064"/>
<path d="M208.729 209.251C208.631 209.251 208.535 209.227 208.446 209.179C208.358 209.132 208.281 209.062 208.219 208.975C201.758 199.769 197.568 183.402 194.148 168.875C193.508 166.121 192.895 163.475 192.316 161.006C191.617 158.056 191.047 155.695 190.528 153.718C190.511 153.55 190.545 153.381 190.624 153.238C190.703 153.095 190.824 152.987 190.964 152.933C191.105 152.879 191.258 152.882 191.397 152.94C191.536 152.999 191.653 153.11 191.729 153.256C192.256 155.223 192.826 157.584 193.526 160.593C194.113 163.072 194.726 165.718 195.366 168.462C198.994 183.953 203.183 199.464 209.187 208.021C209.264 208.13 209.312 208.261 209.326 208.4C209.34 208.539 209.319 208.679 209.265 208.805C209.212 208.93 209.128 209.036 209.024 209.11C208.92 209.183 208.8 209.222 208.677 209.221L208.729 209.251Z" fill="#0F2064"/>
<path d="M197.568 149.686C197.468 149.686 197.369 149.659 197.279 149.608C197.189 149.557 197.111 149.482 197.05 149.391C196.242 148.212 195.758 146.787 195.659 145.296C195.561 143.805 195.853 142.314 196.497 141.011C194.381 140.696 189.924 139.919 188.101 138.345C186.9 137.303 187.004 136.27 187.168 135.749C187.859 133.624 191.954 132.483 197.594 132.847C197.679 132.853 197.763 132.878 197.839 132.92C197.916 132.963 197.985 133.022 198.041 133.094C198.098 133.167 198.141 133.252 198.169 133.343C198.197 133.435 198.208 133.532 198.203 133.629C198.198 133.726 198.176 133.821 198.139 133.908C198.102 133.995 198.05 134.073 197.986 134.138C197.922 134.202 197.848 134.252 197.768 134.283C197.687 134.315 197.602 134.328 197.517 134.322C191.228 133.909 188.637 135.454 188.377 136.29C188.274 136.614 188.645 137.008 188.878 137.204C190.036 138.188 192.852 139.034 197.249 139.663L197.646 139.722C197.759 139.741 197.866 139.793 197.955 139.873C198.045 139.954 198.114 140.06 198.157 140.18C198.199 140.301 198.212 140.433 198.195 140.561C198.178 140.69 198.132 140.811 198.061 140.912C197.329 142.007 196.933 143.344 196.933 144.719C196.933 146.094 197.329 147.431 198.061 148.525C198.133 148.635 198.177 148.765 198.188 148.902C198.199 149.038 198.176 149.175 198.122 149.298C198.068 149.42 197.986 149.523 197.883 149.595C197.781 149.667 197.663 149.706 197.543 149.706L197.568 149.686Z" fill="#0F2064"/>
<path d="M227.483 200.575C227.314 200.576 227.151 200.501 227.03 200.366C226.909 200.232 226.839 200.05 226.835 199.857C226.686 197.166 226.188 194.515 225.358 191.989C224.796 190.327 222.766 185.901 220.244 180.314C217.652 174.531 214.335 167.321 211.606 160.859C210.595 158.459 209.688 156.197 208.91 154.141L208.789 153.817C207.407 150.138 204.565 140.961 203.771 135.68C203.114 131.283 194.45 128.578 188.714 128.391C188.629 128.389 188.545 128.367 188.468 128.328C188.39 128.288 188.32 128.232 188.261 128.161C188.203 128.091 188.157 128.008 188.126 127.918C188.096 127.827 188.081 127.731 188.084 127.634C188.085 127.537 188.103 127.441 188.137 127.351C188.171 127.262 188.221 127.182 188.283 127.115C188.345 127.048 188.418 126.996 188.498 126.962C188.578 126.928 188.663 126.912 188.749 126.916C194.839 127.113 204.228 129.955 205.04 135.424C205.749 140.155 208.435 149.125 209.964 153.207L210.085 153.531C210.863 155.587 211.761 157.83 212.763 160.21C215.458 166.652 218.732 173.842 221.401 179.625C224.07 185.409 225.988 189.717 226.584 191.428C227.473 194.109 228 196.928 228.148 199.789C228.15 199.886 228.136 199.982 228.105 200.072C228.075 200.163 228.029 200.246 227.97 200.316C227.912 200.386 227.842 200.443 227.764 200.482C227.686 200.522 227.602 200.543 227.517 200.546L227.483 200.575Z" fill="#0F2064"/>
<path d="M188.274 154.594C186.66 154.558 185.077 154.079 183.661 153.197C183.581 153.156 183.51 153.096 183.451 153.022C183.392 152.948 183.347 152.861 183.319 152.766C183.29 152.672 183.279 152.572 183.286 152.473C183.292 152.373 183.316 152.276 183.357 152.187C183.397 152.099 183.453 152.021 183.52 151.957C183.588 151.894 183.666 151.847 183.751 151.819C183.835 151.791 183.923 151.783 184.01 151.795C184.097 151.807 184.181 151.839 184.257 151.889C188.058 154.122 191.375 153.325 194.692 149.391C194.813 149.29 194.961 149.241 195.111 149.251C195.261 149.261 195.403 149.33 195.514 149.446C195.624 149.562 195.695 149.718 195.715 149.887C195.736 150.057 195.704 150.229 195.625 150.374C193.284 153.256 190.865 154.594 188.274 154.594Z" fill="#0F2064"/>
<path d="M175.524 123.749C175.362 123.75 175.206 123.681 175.086 123.558C174.966 123.434 174.891 123.263 174.876 123.08C174.738 121.3 175.74 120.277 176.604 119.46C177.467 118.644 177.96 118.074 177.882 117.09C177.804 116.106 177.217 115.664 176.258 115.024C175.299 114.385 174.142 113.598 173.995 111.818C173.848 110.038 174.859 109.015 175.722 108.208C176.586 107.402 177.079 106.821 177.001 105.838C176.999 105.652 177.059 105.472 177.169 105.334C177.278 105.197 177.43 105.111 177.592 105.095C177.755 105.079 177.917 105.133 178.046 105.247C178.175 105.361 178.261 105.527 178.288 105.71C178.426 107.49 177.424 108.513 176.56 109.32C175.697 110.126 175.204 110.707 175.282 111.69C175.36 112.674 175.947 113.116 176.906 113.756C177.865 114.395 179.022 115.182 179.169 116.962C179.316 118.742 178.305 119.765 177.441 120.582C176.578 121.398 176.085 121.968 176.163 122.952C176.177 123.146 176.124 123.339 176.014 123.488C175.904 123.638 175.746 123.731 175.576 123.749H175.524Z" fill="#0F2064"/>
<path d="M169.27 121.398C169.105 121.398 168.946 121.328 168.826 121.2C168.706 121.072 168.633 120.897 168.622 120.71C168.607 120.258 168.683 119.808 168.845 119.396C169.007 118.983 169.249 118.618 169.555 118.329C169.952 117.867 170.159 117.601 170.125 117.08C170.09 116.559 169.857 116.333 169.408 115.939C169.061 115.715 168.768 115.397 168.554 115.012C168.341 114.628 168.214 114.19 168.185 113.737C168.156 113.284 168.226 112.829 168.388 112.414C168.55 111.999 168.799 111.635 169.114 111.356C169.52 110.884 169.719 110.628 169.684 110.117C169.678 110.02 169.689 109.922 169.715 109.83C169.742 109.738 169.785 109.653 169.84 109.579C169.896 109.506 169.964 109.445 170.04 109.402C170.116 109.358 170.199 109.332 170.285 109.325C170.37 109.318 170.455 109.33 170.536 109.36C170.617 109.391 170.692 109.439 170.757 109.503C170.821 109.566 170.874 109.643 170.912 109.73C170.951 109.817 170.974 109.911 170.98 110.008C170.995 110.46 170.919 110.909 170.757 111.322C170.595 111.735 170.352 112.1 170.047 112.389C169.641 112.861 169.442 113.116 169.477 113.628C169.511 114.139 169.745 114.375 170.194 114.769C170.541 114.993 170.834 115.312 171.047 115.696C171.26 116.08 171.387 116.518 171.416 116.971C171.445 117.424 171.376 117.879 171.214 118.294C171.052 118.709 170.802 119.073 170.488 119.352C170.09 119.815 169.883 120.08 169.917 120.601C169.929 120.796 169.873 120.987 169.762 121.135C169.65 121.282 169.492 121.373 169.321 121.388L169.27 121.398Z" fill="#0F2064"/>
<path d="M183.091 120.159C182.926 120.159 182.767 120.088 182.647 119.96C182.527 119.832 182.454 119.657 182.443 119.47C182.428 119.018 182.504 118.569 182.666 118.156C182.828 117.744 183.07 117.379 183.376 117.09C183.773 116.628 183.98 116.362 183.946 115.841C183.911 115.319 183.678 115.093 183.229 114.7C182.882 114.475 182.589 114.157 182.375 113.773C182.162 113.389 182.035 112.951 182.006 112.497C181.977 112.044 182.047 111.59 182.209 111.174C182.371 110.759 182.62 110.396 182.935 110.116C183.341 109.644 183.54 109.388 183.505 108.877C183.499 108.78 183.51 108.683 183.536 108.591C183.563 108.498 183.606 108.413 183.661 108.34C183.717 108.266 183.785 108.206 183.861 108.162C183.937 108.118 184.02 108.092 184.106 108.085C184.191 108.078 184.276 108.09 184.357 108.121C184.438 108.151 184.513 108.2 184.578 108.263C184.642 108.327 184.695 108.404 184.733 108.491C184.772 108.577 184.795 108.672 184.801 108.769C184.816 109.22 184.74 109.67 184.578 110.083C184.416 110.495 184.173 110.86 183.868 111.149C183.471 111.611 183.263 111.877 183.298 112.388C183.332 112.9 183.566 113.136 184.015 113.529C184.362 113.754 184.655 114.072 184.868 114.456C185.082 114.84 185.208 115.278 185.237 115.732C185.266 116.185 185.197 116.639 185.035 117.055C184.873 117.47 184.623 117.833 184.309 118.113C183.911 118.575 183.704 118.841 183.738 119.362C183.75 119.556 183.694 119.748 183.583 119.895C183.471 120.042 183.313 120.134 183.142 120.149L183.091 120.159Z" fill="#0F2064"/>
<path d="M196.454 235.787C196.315 235.788 196.179 235.738 196.067 235.644C195.955 235.55 195.873 235.417 195.832 235.266L181.441 182.861C176.569 182.252 136.332 176.714 122.64 174.501C122.556 174.487 122.475 174.455 122.401 174.406C122.327 174.356 122.263 174.291 122.212 174.213C122.108 174.057 122.063 173.859 122.088 173.665C122.112 173.471 122.202 173.295 122.34 173.177C122.478 173.059 122.651 173.008 122.822 173.035C137.999 175.485 180.966 181.347 181.985 181.445C182.113 181.458 182.234 181.513 182.334 181.604C182.434 181.695 182.508 181.818 182.547 181.956L197.076 234.833C197.127 235.02 197.112 235.222 197.032 235.395C196.953 235.569 196.817 235.699 196.653 235.758C196.588 235.779 196.521 235.789 196.454 235.787Z" fill="#0F2064"/>
<path d="M228.459 238.109H199.503C199.332 238.109 199.167 238.031 199.045 237.893C198.924 237.754 198.855 237.567 198.855 237.371C198.855 237.175 198.924 236.988 199.045 236.849C199.167 236.711 199.332 236.633 199.503 236.633H225.582L211.148 228.932C211.071 228.891 211.001 228.832 210.944 228.761C210.887 228.689 210.842 228.605 210.813 228.513C210.784 228.422 210.772 228.325 210.776 228.228C210.78 228.131 210.8 228.036 210.837 227.948C210.873 227.861 210.924 227.782 210.987 227.716C211.05 227.651 211.124 227.6 211.204 227.568C211.284 227.535 211.37 227.52 211.455 227.525C211.54 227.529 211.623 227.553 211.701 227.594L228.77 236.702C228.904 236.773 229.012 236.894 229.078 237.045C229.143 237.196 229.161 237.368 229.129 237.532C229.096 237.696 229.016 237.843 228.9 237.948C228.785 238.053 228.641 238.109 228.493 238.109H228.459Z" fill="#0F2064"/>
<path d="M159.914 214.621L159.638 214.444C156.153 212.191 152.533 210.219 148.806 208.542L148.175 208.267L148.443 207.559C149.428 204.962 152.451 203.221 155.958 203.221C160.277 203.221 163.802 205.956 163.802 209.319C163.802 211.405 162.463 213.323 160.217 214.444L159.914 214.621ZM149.963 207.5C153.397 209.083 156.741 210.91 159.975 212.969C161.564 212.083 162.497 210.746 162.497 209.339C162.497 206.831 159.5 204.716 155.949 204.716C153.332 204.726 151 205.838 149.955 207.51L149.963 207.5Z" fill="#0F2064"/>
<path d="M130.579 206.221C130.447 206.221 130.318 206.174 130.21 206.088C130.102 206.002 130.02 205.88 129.974 205.739L120.688 177.422C120.628 177.238 120.635 177.035 120.707 176.857C120.78 176.679 120.911 176.541 121.072 176.473C121.234 176.405 121.412 176.413 121.569 176.495C121.725 176.577 121.846 176.727 121.906 176.911L131.192 205.228C131.227 205.32 131.244 205.42 131.243 205.521C131.243 205.622 131.224 205.721 131.189 205.813C131.153 205.905 131.101 205.988 131.036 206.057C130.972 206.125 130.895 206.178 130.812 206.211C130.735 206.231 130.656 206.235 130.579 206.221Z" fill="#0F2064"/>
<path d="M105.882 161.39C100.483 161.39 92.2941 161.164 79.8292 160.573L77.1859 160.455C77.0535 160.453 76.923 160.419 76.8026 160.357C76.6821 160.294 76.5744 160.204 76.4862 160.091C74.8795 158.203 74.007 143.823 74.318 132.709C74.318 132.513 74.3862 132.326 74.5077 132.187C74.6292 132.049 74.794 131.971 74.9658 131.971C75.1377 131.971 75.3024 132.049 75.4239 132.187C75.5454 132.326 75.6137 132.513 75.6137 132.709C75.2509 145.417 76.3911 157.406 77.3413 158.931L79.8724 159.049C107.04 160.337 114.235 159.885 115.375 159.246C115.851 157.505 115.686 145.938 115.28 135.64C115.277 135.543 115.29 135.446 115.32 135.355C115.349 135.264 115.394 135.181 115.452 135.109C115.51 135.038 115.579 134.981 115.656 134.94C115.734 134.899 115.817 134.877 115.902 134.873C115.988 134.865 116.075 134.877 116.156 134.909C116.238 134.941 116.313 134.991 116.376 135.058C116.439 135.125 116.49 135.206 116.524 135.296C116.559 135.386 116.577 135.483 116.576 135.581C116.723 139.279 117.44 157.819 116.516 159.983C116.282 160.613 115.963 161.39 105.882 161.39Z" fill="#2E660F"/>
<path d="M113.734 158.272C113.642 158.271 113.552 158.248 113.468 158.204C113.385 158.16 113.311 158.096 113.251 158.017C113.181 157.928 106.4 149.165 100.345 143.834C97.1316 141.03 95.5076 140.637 94.7129 140.794C94.0477 140.932 92.7779 141.512 90.532 143.538C86.3345 147.568 82.5656 152.143 79.3023 157.171C79.1992 157.327 79.0457 157.431 78.8756 157.458C78.7055 157.486 78.5327 157.436 78.3952 157.318C78.2578 157.201 78.1669 157.026 78.1426 156.833C78.1183 156.639 78.1626 156.442 78.2657 156.286C81.5866 151.17 85.4287 146.522 89.7113 142.437C91.6809 140.657 93.2876 139.634 94.471 139.388C96.0259 139.083 98.2027 140.165 101.122 142.712C107.281 148.083 114.149 157.004 114.218 157.092C114.299 157.199 114.351 157.329 114.369 157.468C114.386 157.607 114.369 157.75 114.318 157.878C114.267 158.006 114.185 158.115 114.082 158.192C113.978 158.269 113.858 158.31 113.734 158.312V158.272Z" fill="#2E660F"/>
<path d="M235.456 249.351C235.366 249.352 235.278 249.332 235.196 249.292C228.484 245.899 219.449 238.296 219.069 237.971C218.93 237.855 218.838 237.681 218.812 237.487C218.786 237.293 218.829 237.096 218.931 236.938C219.033 236.78 219.185 236.675 219.355 236.646C219.526 236.616 219.699 236.665 219.838 236.781C219.933 236.86 229.141 244.649 235.723 247.935C235.861 248.001 235.974 248.121 236.044 248.272C236.113 248.423 236.134 248.597 236.104 248.764C236.073 248.931 235.993 249.08 235.876 249.187C235.76 249.295 235.614 249.352 235.464 249.351H235.456Z" fill="#0F2064"/>
<path d="M110.115 116.706C106.012 121.703 106.832 128.814 111.221 133.486C115.609 138.158 121.898 138.611 126.001 133.624C130.104 128.637 129.283 121.516 124.895 116.844C120.507 112.172 114.218 111.71 110.115 116.706Z" fill="white"/>
<path d="M118.926 137.942C115.869 137.861 112.955 136.454 110.78 134.008C108.567 131.744 107.165 128.631 106.841 125.264C106.711 123.611 106.893 121.945 107.376 120.379C107.859 118.813 108.631 117.383 109.64 116.185C113.855 111.051 120.455 111.09 125.335 116.284C130.216 121.477 130.691 128.972 126.467 134.106C125.513 135.307 124.35 136.269 123.052 136.929C121.753 137.59 120.348 137.935 118.926 137.942ZM117.198 113.874C115.955 113.877 114.726 114.175 113.59 114.749C112.453 115.323 111.435 116.161 110.599 117.208C109.707 118.249 109.025 119.498 108.6 120.868C108.175 122.239 108.017 123.699 108.137 125.146C108.435 128.151 109.693 130.926 111.67 132.945C115.989 137.549 121.828 137.627 125.491 133.113C129.153 128.598 128.747 121.988 124.42 117.375C122.482 115.22 119.898 113.983 117.19 113.913L117.198 113.874Z" fill="#0F2064"/>
<path d="M118.028 130.919C117.43 130.935 116.837 130.787 116.3 130.486C115.817 130.204 115.402 129.793 115.091 129.286C114.76 128.737 114.52 128.124 114.382 127.477C114.069 125.98 114.069 124.42 114.382 122.923C114.521 122.265 114.764 121.642 115.099 121.083C115.415 120.573 115.832 120.155 116.317 119.864C116.854 119.561 117.446 119.409 118.045 119.421C118.644 119.406 119.237 119.558 119.773 119.864C120.258 120.155 120.675 120.573 120.991 121.083C121.327 121.64 121.567 122.264 121.699 122.923C121.854 123.674 121.929 124.443 121.924 125.214C121.929 125.981 121.848 126.744 121.682 127.487C121.541 128.134 121.298 128.747 120.965 129.296C120.648 129.804 120.227 130.216 119.738 130.496C119.204 130.786 118.619 130.931 118.028 130.919ZM118.028 128.391C118.225 128.369 118.413 128.28 118.566 128.136C118.72 127.993 118.833 127.801 118.892 127.585C119.331 126.024 119.331 124.346 118.892 122.785C118.833 122.569 118.72 122.377 118.566 122.234C118.413 122.09 118.225 122.001 118.028 121.979C117.818 121.987 117.616 122.07 117.449 122.214C117.282 122.358 117.159 122.558 117.095 122.785C116.839 123.554 116.727 124.374 116.767 125.195C116.729 126.01 116.844 126.824 117.103 127.585C117.17 127.816 117.298 128.018 117.47 128.163C117.642 128.307 117.849 128.387 118.062 128.391H118.028Z" fill="#0F2064"/>
<path d="M189.613 138.64C189.544 144.355 188.377 150.571 183.972 152.548C183.232 152.87 182.455 153.068 181.665 153.138C170.937 154.191 166.341 149.932 166.03 130.25C166.03 127.3 188.256 125.421 188.757 128.283C189.111 130.333 189.357 132.406 189.492 134.49" fill="#0F2064"/>
<path d="M178.91 154.023C175.04 154.023 172.336 153.04 170.324 150.984C167.076 147.65 165.547 141.257 165.374 130.26C165.374 129.641 165.374 127.742 174.954 126.592C176.37 126.424 188.844 125.018 189.388 128.146C189.748 130.225 189.999 132.327 190.14 134.441C190.146 134.537 190.135 134.635 190.109 134.727C190.082 134.819 190.039 134.904 189.984 134.978C189.928 135.052 189.86 135.112 189.784 135.155C189.707 135.199 189.624 135.225 189.539 135.232C189.454 135.239 189.369 135.227 189.288 135.197C189.207 135.166 189.132 135.118 189.067 135.055C189.003 134.991 188.95 134.914 188.911 134.827C188.873 134.74 188.85 134.646 188.844 134.549C188.709 132.495 188.467 130.452 188.118 128.431C187.747 127.9 184.093 127.27 177.502 127.811C170.911 128.352 166.998 129.651 166.678 130.329C166.86 140.794 168.25 146.853 171.213 149.892C173.39 152.125 176.604 152.902 181.622 152.41C182.353 152.345 183.072 152.159 183.756 151.86C187.972 149.971 188.939 143.627 188.982 138.631C188.982 138.435 189.05 138.247 189.172 138.109C189.293 137.971 189.458 137.893 189.63 137.893C189.802 137.893 189.967 137.971 190.088 138.109C190.21 138.247 190.278 138.435 190.278 138.631C190.183 146.44 188.092 151.486 184.231 153.217C183.43 153.566 182.59 153.781 181.735 153.856C180.721 153.968 179.78 154.023 178.91 154.023Z" fill="#0F2064"/>
<path d="M188.939 145.122C190.332 145.143 191.696 144.669 192.841 143.767C193.987 142.864 194.857 141.578 195.331 140.086C192.575 140.086 186.157 137.214 186.157 137.214L188.939 145.122Z" fill="#0F2064"/>
<path d="M189.086 145.859H188.93C188.803 145.856 188.68 145.811 188.575 145.729C188.471 145.646 188.39 145.531 188.343 145.397L185.561 137.529C185.503 137.391 185.485 137.236 185.507 137.086C185.53 136.935 185.593 136.797 185.688 136.689C185.782 136.581 185.904 136.509 186.036 136.484C186.168 136.458 186.304 136.479 186.425 136.545C186.485 136.545 192.748 139.368 195.357 139.368C195.459 139.37 195.56 139.401 195.65 139.456C195.74 139.511 195.817 139.59 195.875 139.686C195.934 139.782 195.971 139.893 195.984 140.008C195.998 140.124 195.987 140.241 195.953 140.351C195.435 141.955 194.501 143.341 193.274 144.325C192.047 145.309 190.586 145.844 189.086 145.859ZM187.306 138.502L189.379 144.404C190.414 144.346 191.416 143.979 192.287 143.34C193.157 142.702 193.864 141.813 194.338 140.764C191.938 140.257 189.584 139.499 187.306 138.502Z" fill="#0F2064"/>
</svg>
