<svg width="382" height="356" viewBox="0 0 382 356" fill="none" xmlns="http://www.w3.org/2000/svg">
<path d="M334.537 87.1015C332.52 88.1281 330.25 88.8311 327.866 89.1678C323.406 89.5624 323.086 85.4658 321.712 84.9779C320.339 84.49 318.25 86.6926 313.903 86.3697C311.569 86.1904 309.095 83.1699 307.317 80.4221L306.583 81.075C306.583 81.075 270.019 156.407 267.695 160.604C273.882 170.675 279.332 181.001 284.02 191.533L334.593 87.9481L334.537 87.1015Z" fill="#2E660F"/>
<path d="M311.137 176.43C296.478 181.503 288.555 180.821 286.579 179.515C286.211 179.269 285.944 178.945 285.813 178.585C285.682 178.225 285.691 177.843 285.84 177.487C285.989 177.13 286.27 176.815 286.651 176.579C287.031 176.343 287.494 176.196 287.981 176.158C286.363 176.158 282.995 173.338 287.981 171.853C285.366 171.229 284.509 167.254 291.801 167.254C288.649 166.157 288.386 162.182 294.624 162.11C301.116 162.038 305.059 157.447 305.059 157.447L311.137 176.43Z" fill="white"/>
<path d="M332.673 218.674C323.744 210.574 306.328 208.881 289.072 209.634V209.584C289.242 206.276 287.877 201.218 285.534 195.235C284.499 195.888 283.587 196.44 282.947 196.799C268.184 205.15 229.165 210.28 214.13 210.667C214.788 213.895 224.226 237.047 228.977 241.029C229.598 242.464 244.671 275.38 240.418 281.342C238.471 284.083 210.846 296.208 190.24 311.949C191.972 318.348 200.28 325.982 210.131 327.194C235.272 317.659 266.66 304.91 273.594 296.1C280.529 287.29 281.206 274.964 282.157 244.286L282.072 243.942C296.411 241.962 299.29 241.072 299.29 241.072C299.29 241.072 308.219 274.204 316.151 290.992C316.151 290.992 334.188 288.667 339.928 285.769C341.922 272.073 349.243 233.697 332.673 218.674Z" fill="#0F2064"/>
<path d="M210.122 327.775H209.99C199.64 326.505 191.295 318.649 189.526 312.106C189.502 312.019 189.507 311.929 189.539 311.844C189.572 311.759 189.632 311.681 189.714 311.618C202.604 301.775 218.242 293.331 228.601 287.742C234.482 284.571 239.12 282.06 239.779 281.141C242.178 277.769 237.991 263.098 228.573 241.89L228.338 241.359C223.323 236.954 214.055 213.924 213.415 210.81C213.399 210.734 213.404 210.657 213.431 210.583C213.457 210.509 213.504 210.44 213.568 210.381C213.632 210.322 213.712 210.274 213.803 210.24C213.893 210.207 213.992 210.188 214.092 210.186C229.768 209.777 268.138 204.554 282.514 196.425C283.126 196.081 284.039 195.529 285.074 194.876C285.163 194.819 285.27 194.779 285.385 194.761C285.499 194.743 285.618 194.747 285.729 194.773C285.841 194.799 285.943 194.845 286.026 194.908C286.108 194.971 286.169 195.049 286.203 195.134C288.593 201.211 289.788 205.896 289.778 209.081C310.892 208.242 325.532 211.355 333.201 218.343C348.782 232.491 343.597 266.348 341.104 282.626C340.925 283.817 340.756 284.893 340.615 285.855C340.603 285.933 340.569 286.008 340.516 286.075C340.462 286.142 340.39 286.199 340.304 286.242C334.508 289.177 316.998 291.451 316.255 291.551C316.091 291.574 315.922 291.55 315.779 291.486C315.636 291.421 315.528 291.32 315.474 291.2C308.201 275.803 299.996 246.36 298.745 241.804C297.183 242.17 292.958 243.031 282.844 244.437C281.903 274.777 281.235 287.483 274.188 296.43C267.027 305.527 234.369 318.671 210.432 327.725C210.335 327.759 210.229 327.777 210.122 327.775ZM191.003 312.163C192.838 318.276 200.779 325.443 210.009 326.677C233.776 317.659 266.03 304.695 272.983 295.87C279.936 287.046 280.51 274.534 281.451 244.379L281.385 244.092C281.368 244.023 281.368 243.951 281.387 243.881C281.406 243.812 281.443 243.746 281.495 243.687C281.548 243.628 281.615 243.578 281.693 243.539C281.771 243.501 281.858 243.474 281.95 243.461C295.922 241.531 298.99 240.591 299.027 240.591C299.122 240.564 299.224 240.552 299.325 240.557C299.426 240.562 299.525 240.584 299.614 240.621C299.703 240.657 299.781 240.708 299.842 240.77C299.903 240.832 299.946 240.903 299.968 240.979C300.053 241.309 308.831 273.709 316.603 290.403C319.67 289.987 334.029 287.928 339.25 285.475C339.382 284.578 339.533 283.581 339.702 282.49C342.167 266.369 347.305 232.814 332.118 219.025C324.591 212.231 310.158 209.246 289.101 210.179C289.005 210.184 288.908 210.174 288.818 210.149C288.727 210.125 288.644 210.086 288.574 210.035C288.504 209.986 288.448 209.926 288.409 209.859C288.37 209.793 288.349 209.721 288.348 209.648C288.499 206.642 287.407 202.151 285.14 196.217C284.424 196.655 283.813 197.028 283.342 197.286C268.984 205.408 231.273 210.667 214.958 211.233C216.341 215.918 225.007 236.975 229.476 240.72C229.544 240.776 229.595 240.842 229.627 240.914L229.9 241.538C235.592 254.352 244.606 276.607 241.012 281.651C240.231 282.741 236.693 284.685 229.41 288.617C219.202 294.134 203.761 302.471 191.012 312.163H191.003Z" fill="#0F2064"/>
<path d="M327.066 312.092C323.773 312.092 322.531 308.713 319.482 300.44C318.974 299.056 318.41 297.528 317.779 295.849C317.741 295.715 317.77 295.575 317.863 295.457C317.955 295.34 318.102 295.253 318.275 295.216C318.448 295.178 318.633 295.192 318.793 295.255C318.952 295.318 319.074 295.425 319.134 295.555C319.764 297.233 320.329 298.762 320.847 300.146C323.744 308.038 324.949 311.26 327.433 310.987C328.844 310.836 331.648 309.638 334.894 308.261C339.674 306.223 345.62 303.69 351.717 302.356C354.898 301.639 358.783 301 362.538 300.362C370.131 299.077 379.577 297.492 380.029 295.806C380.029 295.698 379.935 295.246 379.032 294.486C374.92 291.035 360.844 285.79 334.132 288.029C333.951 288.037 333.772 287.992 333.633 287.903C333.494 287.814 333.405 287.687 333.386 287.549C333.366 287.411 333.417 287.273 333.528 287.163C333.639 287.053 333.802 286.98 333.981 286.96C361.267 284.7 375.795 290.188 380.085 293.79C380.81 294.4 381.628 295.282 381.421 296.05C380.829 298.245 374.007 299.551 362.848 301.438C359.085 302.069 355.246 302.729 352.112 303.411C346.175 304.716 340.304 307.213 335.59 309.222C332.081 310.714 329.315 311.891 327.64 312.092C327.449 312.102 327.257 312.102 327.066 312.092Z" fill="#0F2064"/>
<path d="M333.69 71.5041L321.242 68.0819L332.937 57.7148L333.69 71.5041Z" fill="#0F2064"/>
<path d="M333.69 72.0421C333.612 72.0523 333.533 72.0523 333.455 72.0421L321.016 68.5912C320.91 68.5611 320.814 68.5119 320.738 68.4477C320.662 68.3834 320.607 68.3061 320.578 68.2223C320.55 68.1385 320.548 68.0507 320.574 67.9663C320.599 67.8819 320.651 67.8034 320.724 67.7375L332.429 57.3704C332.521 57.288 332.644 57.2287 332.781 57.2004C332.919 57.172 333.064 57.1759 333.198 57.2116C333.332 57.2473 333.449 57.313 333.534 57.4003C333.618 57.4875 333.666 57.5921 333.671 57.7004L334.424 71.4897C334.428 71.5622 334.412 71.6345 334.379 71.7022C334.345 71.77 334.293 71.8319 334.227 71.8842C334.162 71.9365 334.082 71.978 333.995 72.0064C333.907 72.0348 333.813 72.0494 333.718 72.0493L333.69 72.0421ZM322.399 67.8451L332.9 70.7149L332.307 59.0995L322.399 67.8451Z" fill="#0F2064"/>
<path d="M327.367 89.7128C327.22 89.7207 327.072 89.7207 326.925 89.7128C325.043 89.5047 323.481 88.2779 322.136 86.018C321.901 85.6234 321.684 85.5588 321.609 85.5373C321.129 85.401 320.198 85.7453 319.21 86.1041C318.262 86.4814 317.266 86.782 316.236 87.0009C313.677 87.4816 311.259 86.2834 309.048 83.4137C308.966 83.2916 308.949 83.1503 308.999 83.0187C309.049 82.8872 309.164 82.7751 309.318 82.7056C309.473 82.636 309.657 82.6141 309.832 82.6444C310.008 82.6746 310.161 82.7548 310.262 82.8684C312.144 85.279 314.025 86.3193 315.907 85.9678C316.842 85.7663 317.746 85.4922 318.607 85.1499C319.925 84.6692 321.063 84.2459 322.108 84.54C322.412 84.6356 322.688 84.7779 322.918 84.9581C323.148 85.1383 323.327 85.3525 323.444 85.5875C324.554 87.4744 325.805 88.5075 327.151 88.6582C328.328 88.6315 329.478 88.3851 330.5 87.9407C330.67 87.8798 330.865 87.8728 331.041 87.9213C331.217 87.9697 331.361 88.0696 331.441 88.199C331.521 88.3284 331.53 88.4767 331.467 88.6112C331.403 88.7458 331.272 88.8556 331.103 88.9165C329.943 89.3768 328.671 89.648 327.367 89.7128Z" fill="#0F2064"/>
<path d="M180.258 355.655C177.021 355.655 175.299 353.553 171.517 345.331C170.634 343.309 170.075 341.213 169.852 339.089C169.513 336.142 169.482 333.18 169.758 330.229C169.965 326.9 170.557 323.592 171.526 320.343C172.053 319.381 174.274 318.664 180.86 316.54L184.558 315.342C184.73 315.286 184.924 315.284 185.098 315.337C185.272 315.39 185.411 315.494 185.485 315.625C185.558 315.757 185.56 315.905 185.491 316.037C185.421 316.17 185.285 316.276 185.113 316.332L181.415 317.53C176.259 319.195 173.145 320.199 172.844 320.751C171.948 323.892 171.391 327.083 171.178 330.293C170.908 333.189 170.94 336.097 171.272 338.989C171.485 341.027 172.018 343.039 172.862 344.98C176.927 353.811 178.329 354.687 180.587 354.579C182.469 354.478 182.921 353.388 183.767 350.934C183.89 350.576 184.022 350.217 184.172 349.801L184.812 348.05C185.612 345.898 186.825 342.562 188.133 339.132C189.074 336.772 190.382 333.328 191.52 330.767C191.981 329.712 192.386 328.851 192.734 328.199C192.809 328.072 192.946 327.973 193.115 327.922C193.283 327.87 193.472 327.87 193.64 327.922C193.809 327.974 193.945 328.073 194.02 328.2C194.095 328.326 194.103 328.47 194.042 328.6C193.713 329.232 193.308 330.071 192.857 331.104C191.718 333.651 190.391 337.073 189.488 339.427C188.18 342.849 186.976 346.149 186.176 348.33L185.527 350.088C185.386 350.475 185.254 350.848 185.132 351.207C184.304 353.603 183.655 355.512 180.681 355.648L180.258 355.655Z" fill="#0F2064"/>
<path d="M289.74 178.59C289.553 178.59 289.374 178.533 289.241 178.432C289.109 178.331 289.035 178.194 289.035 178.052C289.035 177.909 289.109 177.772 289.241 177.671C289.374 177.57 289.553 177.514 289.74 177.514C299.601 177.241 309.951 175.003 318.795 160.553C326.727 147.596 319.736 137.035 314.185 134.259C314.108 134.22 314.041 134.169 313.989 134.111C313.938 134.052 313.902 133.986 313.883 133.917C313.865 133.848 313.865 133.776 313.883 133.707C313.9 133.638 313.936 133.572 313.987 133.513C314.039 133.454 314.104 133.403 314.181 133.364C314.258 133.324 314.345 133.297 314.436 133.283C314.526 133.269 314.62 133.269 314.711 133.282C314.802 133.296 314.889 133.323 314.966 133.362C320.846 136.318 328.374 147.46 320.075 161.012C310.91 175.978 300.1 178.31 289.797 178.59H289.74Z" fill="#0F2064"/>
<path d="M318.918 162.11C318.756 162.11 318.599 162.066 318.474 161.988C318.349 161.91 318.263 161.801 318.231 161.68C316.933 156.851 311.061 153.071 306.188 151.93C306.008 151.889 305.857 151.795 305.768 151.669C305.679 151.544 305.659 151.396 305.712 151.259C305.766 151.122 305.889 151.007 306.054 150.939C306.219 150.871 306.412 150.856 306.592 150.897C311.852 152.109 318.212 156.22 319.614 161.457C319.633 161.527 319.635 161.598 319.618 161.668C319.601 161.737 319.566 161.804 319.515 161.863C319.464 161.922 319.399 161.974 319.322 162.013C319.246 162.053 319.159 162.081 319.068 162.096L318.918 162.11Z" fill="#0F2064"/>
<path d="M293.165 165.411C292.978 165.411 292.799 165.354 292.666 165.253C292.534 165.152 292.46 165.015 292.46 164.873C292.46 164.73 292.534 164.593 292.666 164.492C292.799 164.391 292.978 164.335 293.165 164.335C299.328 164.22 301.981 162.828 304.456 160.446C304.514 160.391 304.586 160.345 304.667 160.311C304.748 160.277 304.838 160.256 304.93 160.248C305.022 160.24 305.115 160.247 305.204 160.266C305.293 160.286 305.376 160.319 305.449 160.364C305.521 160.408 305.581 160.463 305.626 160.525C305.67 160.587 305.698 160.655 305.708 160.725C305.718 160.795 305.71 160.866 305.684 160.934C305.658 161.002 305.615 161.065 305.557 161.12C302.866 163.682 299.855 165.289 293.175 165.425L293.165 165.411Z" fill="#0F2064"/>
<path d="M290.286 170.935C290.099 170.935 289.919 170.878 289.787 170.777C289.655 170.676 289.58 170.539 289.58 170.397C289.58 170.254 289.655 170.117 289.787 170.016C289.919 169.915 290.099 169.858 290.286 169.858C298.011 169.715 301.332 167.936 304.475 164.901C304.532 164.845 304.604 164.799 304.685 164.764C304.766 164.73 304.855 164.708 304.947 164.699C305.039 164.691 305.132 164.697 305.222 164.716C305.311 164.735 305.395 164.767 305.467 164.811C305.54 164.855 305.601 164.909 305.647 164.971C305.692 165.033 305.721 165.101 305.732 165.171C305.743 165.241 305.735 165.313 305.71 165.381C305.685 165.449 305.643 165.513 305.585 165.568C302.273 168.768 298.557 170.784 290.324 170.935H290.286Z" fill="#0F2064"/>
<path d="M293.193 174.838C291.395 174.823 289.603 174.679 287.84 174.407C287.667 174.373 287.518 174.289 287.422 174.174C287.327 174.059 287.293 173.92 287.326 173.786C287.36 173.652 287.458 173.533 287.603 173.453C287.747 173.372 287.926 173.336 288.103 173.353C295.696 174.465 299.394 173.252 303.346 170.798C303.417 170.751 303.501 170.715 303.59 170.693C303.68 170.67 303.775 170.661 303.869 170.667C303.964 170.672 304.056 170.691 304.14 170.724C304.225 170.756 304.3 170.801 304.362 170.856C304.424 170.91 304.471 170.974 304.5 171.042C304.53 171.111 304.542 171.183 304.535 171.255C304.528 171.327 304.502 171.397 304.46 171.462C304.417 171.526 304.358 171.584 304.287 171.631C301.26 173.738 297.292 174.885 293.193 174.838Z" fill="#0F2064"/>
<path d="M150.714 74.1017C150.609 74.102 150.507 74.0849 150.412 74.0514C150.318 74.0179 150.234 73.9689 150.168 73.9079C145.112 69.4808 139.531 65.4196 133.495 61.776C133.348 61.6875 133.253 61.558 133.231 61.4161C133.209 61.2741 133.261 61.1313 133.378 61.0191C133.494 60.9068 133.663 60.8343 133.849 60.8175C134.036 60.8006 134.223 60.8409 134.37 60.9294C140.484 64.6179 146.138 68.7296 151.259 73.212C151.345 73.2908 151.4 73.3866 151.417 73.4883C151.434 73.5899 151.413 73.6932 151.355 73.7859C151.298 73.8786 151.207 73.9569 151.093 74.0116C150.98 74.0662 150.848 74.095 150.714 74.0945V74.1017Z" fill="#0F2064"/>
<path d="M134.935 70.7723C134.801 70.7713 134.671 70.7415 134.558 70.6862C129.482 68.2861 124.191 66.162 118.723 64.3297C118.632 64.3055 118.548 64.2674 118.477 64.2177C118.406 64.168 118.349 64.1076 118.31 64.0405C118.271 63.9733 118.25 63.9007 118.249 63.8271C118.248 63.7535 118.266 63.6806 118.304 63.6128C118.341 63.545 118.396 63.4837 118.466 63.4328C118.536 63.3819 118.618 63.3425 118.709 63.3168C118.799 63.2912 118.896 63.2801 118.992 63.284C119.088 63.2879 119.182 63.3068 119.269 63.3396C124.793 65.2027 130.138 67.3604 135.264 69.7966C135.392 69.8594 135.489 69.9518 135.542 70.0602C135.595 70.1686 135.601 70.2872 135.559 70.3984C135.517 70.5095 135.429 70.6074 135.308 70.6773C135.187 70.7472 135.039 70.7856 134.888 70.7866L134.935 70.7723Z" fill="#0F2064"/>
<path d="M129.873 73.8645C129.782 73.8632 129.693 73.8486 129.609 73.8215C125.014 72.5702 120.248 71.7206 115.402 71.2889C115.216 71.2699 115.048 71.1953 114.934 71.0816C114.82 70.9679 114.77 70.8244 114.795 70.6826C114.82 70.5409 114.918 70.4125 115.067 70.3257C115.216 70.2389 115.404 70.2009 115.59 70.2199C124.858 71.1884 129.929 72.7596 130.146 72.8242C130.295 72.8727 130.418 72.959 130.494 73.0685C130.569 73.1781 130.593 73.3041 130.561 73.4255C130.529 73.5468 130.443 73.656 130.318 73.7347C130.192 73.8134 130.035 73.8567 129.873 73.8573V73.8645Z" fill="#0F2064"/>
<path d="M128.283 75.8662C128.158 75.8661 128.035 75.8406 127.927 75.7923C127.819 75.744 127.729 75.6747 127.668 75.5915C127.607 75.5082 127.576 75.414 127.578 75.3186C127.58 75.2231 127.616 75.1298 127.681 75.0483C129.562 72.7166 135.029 68.663 138.36 68.0819C138.451 68.063 138.547 68.0584 138.641 68.0683C138.735 68.0782 138.825 68.1024 138.906 68.1395C138.988 68.1766 139.058 68.2258 139.114 68.2842C139.17 68.3425 139.21 68.4089 139.231 68.4793C139.253 68.5496 139.255 68.6226 139.239 68.6938C139.223 68.765 139.188 68.8329 139.137 68.8936C139.085 68.9543 139.018 69.0064 138.94 69.0469C138.861 69.0874 138.773 69.1155 138.68 69.1294C135.979 69.6029 130.701 73.2977 128.894 75.5864C128.834 75.6702 128.746 75.7403 128.638 75.7895C128.531 75.8387 128.408 75.8651 128.283 75.8662Z" fill="#0F2064"/>
<path d="M289.025 210.114C288.933 210.112 288.842 210.095 288.757 210.065C288.673 210.036 288.597 209.994 288.535 209.942C288.472 209.89 288.423 209.829 288.391 209.762C288.359 209.696 288.344 209.626 288.348 209.555C288.499 206.491 287.322 201.735 284.838 195.414C284.368 194.209 283.898 192.96 283.314 191.691C278.635 181.186 273.197 170.887 267.027 160.84C265.146 157.813 263.264 154.728 261.222 151.671C261.175 151.608 261.146 151.538 261.135 151.465C261.125 151.393 261.134 151.32 261.162 151.25C261.19 151.18 261.236 151.115 261.298 151.06C261.36 151.004 261.436 150.959 261.521 150.926C261.607 150.893 261.7 150.874 261.795 150.87C261.891 150.866 261.987 150.876 262.076 150.901C262.166 150.926 262.249 150.964 262.319 151.014C262.388 151.064 262.444 151.124 262.483 151.191C264.506 154.254 266.463 157.354 268.316 160.388C274.523 170.478 279.982 180.826 284.669 191.382C285.177 192.587 285.714 193.872 286.203 195.134C288.724 201.591 289.966 206.441 289.769 209.619C289.754 209.76 289.668 209.89 289.529 209.983C289.391 210.075 289.21 210.122 289.025 210.114Z" fill="#0F2064"/>
<path d="M265.136 156.6C264.971 156.6 264.812 156.556 264.685 156.476C264.558 156.396 264.472 156.284 264.442 156.161C264.412 156.037 264.439 155.909 264.52 155.8C264.6 155.69 264.728 155.605 264.882 155.56C268.928 154.376 270.292 154.082 270.349 154.068C270.523 154.043 270.702 154.068 270.852 154.14C271.002 154.211 271.112 154.323 271.159 154.452C271.206 154.582 271.188 154.721 271.108 154.841C271.027 154.961 270.891 155.054 270.725 155.101C270.725 155.101 269.342 155.402 265.39 156.536C265.312 156.569 265.226 156.591 265.136 156.6Z" fill="#0F2064"/>
<path d="M227.275 153.982C227.101 153.982 226.934 153.933 226.804 153.845C226.569 153.687 203.065 137.624 193.798 126.36C177.802 106.903 156.275 83.5142 156.058 83.2775C155.998 83.2126 155.958 83.1384 155.94 83.0603C155.922 82.9822 155.927 82.902 155.955 82.8255C156.539 80.9197 156.689 78.9515 156.397 77.007C156.067 73.9847 156.266 70.9422 156.99 67.96C157.035 67.8282 157.145 67.7145 157.296 67.6418C157.447 67.5691 157.629 67.5428 157.804 67.5683C157.98 67.5938 158.136 67.6692 158.242 67.7792C158.347 67.8892 158.394 68.0256 158.373 68.1609C157.671 71.0581 157.478 74.0136 157.799 76.9496C158.083 78.9263 157.946 80.925 157.394 82.8685C159.568 85.2361 179.769 107.262 195.03 125.793C203.404 135.974 223.643 150.186 227.237 152.669L233.447 146.865C233.567 146.759 233.737 146.693 233.92 146.681C234.103 146.669 234.285 146.712 234.427 146.801C234.569 146.89 234.66 147.017 234.681 147.156C234.702 147.295 234.65 147.435 234.538 147.546L227.867 153.788C227.807 153.844 227.733 153.889 227.649 153.923C227.565 153.956 227.473 153.976 227.378 153.982H227.275Z" fill="#0F2064"/>
<path d="M235.263 136.842C235.075 136.842 234.896 136.785 234.764 136.685C234.631 136.584 234.557 136.447 234.557 136.304C234.557 136.161 234.631 136.025 234.764 135.924C234.896 135.823 235.075 135.766 235.263 135.766C240.325 135.766 241.059 135.637 242.225 135.336L243.166 135.049C255.595 131.191 268.588 128.49 281.865 127.006C282.051 126.986 282.24 127.023 282.39 127.109C282.54 127.195 282.639 127.323 282.665 127.465C282.691 127.607 282.642 127.751 282.529 127.865C282.417 127.98 282.249 128.055 282.063 128.075C268.899 129.546 256.016 132.222 243.693 136.046L242.667 136.354C241.265 136.72 240.315 136.842 235.263 136.842Z" fill="#0F2064"/>
<path d="M233.945 147.74C233.765 147.746 233.589 147.699 233.453 147.609C233.317 147.519 233.231 147.393 233.213 147.256C233.195 147.119 233.246 146.983 233.356 146.874C233.466 146.765 233.626 146.692 233.804 146.671L241.331 145.516C239.45 143.873 234.453 139.776 230.982 138.808C230.871 138.776 230.773 138.724 230.696 138.657C230.619 138.589 230.565 138.508 230.539 138.42C230.539 138.348 230.003 136.584 229.73 135.084C229.717 135.014 229.722 134.942 229.746 134.874C229.769 134.805 229.81 134.741 229.866 134.684C229.922 134.627 229.992 134.58 230.072 134.544C230.152 134.508 230.24 134.484 230.332 134.474C230.424 134.464 230.518 134.468 230.608 134.486C230.698 134.504 230.783 134.535 230.857 134.578C230.931 134.62 230.994 134.674 231.041 134.735C231.088 134.796 231.119 134.863 231.132 134.933C231.339 136.053 231.687 137.351 231.838 137.911C236.542 139.461 242.95 145.265 243.232 145.523C243.311 145.595 243.365 145.681 243.387 145.773C243.409 145.865 243.399 145.96 243.358 146.049C243.317 146.137 243.247 146.216 243.154 146.277C243.061 146.339 242.948 146.38 242.827 146.398L234.077 147.733L233.945 147.74Z" fill="#0F2064"/>
<path d="M240.362 156.722C241.783 168.108 234.359 173.762 232.017 175.096C229.674 176.43 224.207 182.22 224.207 182.22L207.751 184.889C209.087 182.278 209.501 172.233 209.501 172.233C214.252 166.709 220.265 165.877 226.268 163.524C232.271 161.17 233.428 155.933 233.428 155.933C233.428 155.933 231.245 153.322 229.551 151.306L233.945 147.202L239.713 146.319C243.862 150.918 240.362 156.722 240.362 156.722Z" fill="#2E660F"/>
<path d="M233.945 147.74C233.867 147.75 233.788 147.75 233.71 147.74C226.867 146.019 219.907 144.582 212.86 143.435C212.71 143.412 212.574 143.353 212.473 143.266C212.371 143.18 212.309 143.07 212.295 142.954C212.295 142.89 211.495 136.641 205.925 128.77C205.845 128.645 205.832 128.502 205.888 128.369C205.944 128.237 206.065 128.126 206.225 128.061C206.386 127.995 206.574 127.979 206.749 128.016C206.925 128.054 207.075 128.141 207.167 128.261C210.399 132.668 212.591 137.474 213.641 142.459C221.337 143.672 229.834 145.616 233.268 146.47C233.268 144.985 233.268 141.505 232.129 139.073C232.082 138.942 232.102 138.802 232.184 138.681C232.267 138.561 232.406 138.469 232.574 138.423C232.742 138.378 232.926 138.383 233.09 138.437C233.254 138.491 233.384 138.59 233.456 138.714C235.008 142.065 234.66 147.029 234.651 147.237C234.641 147.375 234.563 147.505 234.431 147.599C234.3 147.694 234.126 147.747 233.945 147.747V147.74Z" fill="#0F2064"/>
<path d="M306.818 239.974C306.644 239.976 306.476 239.928 306.345 239.841C306.214 239.754 306.131 239.633 306.11 239.501C306.089 239.37 306.132 239.237 306.231 239.128C306.331 239.02 306.479 238.943 306.648 238.913C309.949 238.312 313.203 237.571 316.396 236.696C316.571 236.644 316.765 236.648 316.936 236.706C317.107 236.764 317.241 236.871 317.309 237.004C317.376 237.137 317.371 237.285 317.295 237.416C317.22 237.546 317.079 237.649 316.904 237.7C313.657 238.596 310.346 239.351 306.987 239.96L306.818 239.974Z" fill="white"/>
<path d="M149.998 102.211C149.849 102.21 149.705 102.173 149.585 102.105C149.465 102.038 149.376 101.943 149.331 101.835C149.286 101.726 149.288 101.61 149.335 101.502C149.382 101.395 149.473 101.301 149.594 101.235C154.824 98.3733 160.31 95.7937 166.012 93.5152C166.095 93.4752 166.188 93.4489 166.285 93.4378C166.382 93.4267 166.481 93.4312 166.576 93.451C166.67 93.4707 166.759 93.5053 166.835 93.5525C166.911 93.5996 166.973 93.6584 167.018 93.725C167.063 93.7916 167.088 93.8646 167.094 93.9393C167.1 94.0139 167.085 94.0887 167.05 94.1587C167.016 94.2288 166.963 94.2926 166.894 94.3461C166.826 94.3996 166.743 94.4416 166.652 94.4694C161.009 96.7246 155.579 99.2778 150.403 102.11C150.285 102.175 150.144 102.21 149.998 102.211Z" fill="#0F2064"/>
<path d="M205.098 128.886C203.888 128.888 202.697 128.659 201.635 128.218C200.465 127.743 199.51 127.009 198.895 126.113C198.281 125.217 198.036 124.2 198.191 123.196C198.244 122.362 198.639 121.561 199.32 120.908C200.525 119.81 202.585 119.473 205.286 119.982C205.816 120.074 206.335 120.199 206.838 120.355C207.01 120.411 207.146 120.517 207.216 120.65C207.286 120.782 207.283 120.93 207.21 121.062C207.136 121.193 206.997 121.297 206.823 121.35C206.65 121.403 206.455 121.401 206.283 121.345C205.855 121.214 205.415 121.108 204.966 121.029C203.47 120.757 201.466 120.635 200.402 121.603C199.91 122.09 199.631 122.682 199.603 123.297C199.481 124.091 199.676 124.894 200.161 125.603C200.646 126.311 201.399 126.893 202.322 127.271C203.45 127.707 204.721 127.878 205.977 127.765C207.232 127.651 208.416 127.257 209.379 126.633C209.527 126.557 209.707 126.527 209.884 126.548C210.06 126.57 210.219 126.641 210.329 126.749C210.438 126.856 210.491 126.991 210.475 127.127C210.459 127.262 210.377 127.388 210.244 127.479C208.783 128.373 206.971 128.868 205.098 128.886Z" fill="#0F2064"/>
<path d="M228.883 98.1286C221.977 101.371 202.99 106.351 202.99 106.351C210.046 113.073 205.107 120.506 205.107 120.506C203.573 120.226 201.174 120.047 199.838 121.259C186.355 111.932 188.697 107.326 190.833 105.188C192.715 103.337 195.359 101.601 197.213 97.4327C200.779 89.4404 207.995 89.3758 207.835 92.2169C218.129 84.2246 224.931 86.836 223.633 90.0645C234.049 85.7384 236.401 94.606 228.883 98.1286Z" fill="#0F2064"/>
<path d="M199.848 121.797C199.673 121.795 199.505 121.744 199.377 121.654C189.244 114.616 186.205 108.969 190.288 104.858C190.693 104.457 191.126 104.062 191.587 103.653C193.815 101.812 195.511 99.6338 196.564 97.2606C199.217 91.313 203.828 89.6772 206.255 90.0216C206.685 90.0717 207.093 90.1995 207.445 90.3942C207.796 90.5889 208.082 90.8448 208.278 91.1408C214.968 86.255 220.199 85.7815 222.711 86.915C223.236 87.1396 223.677 87.4622 223.993 87.8526C224.309 88.2429 224.49 88.6881 224.518 89.1463C229.091 87.5751 231.998 88.6225 233.221 90.2296C234.981 92.5398 233.814 96.4427 229.26 98.5807C223.163 101.45 208.071 105.561 204.148 106.609C210.517 113.36 205.794 120.664 205.747 120.743C205.677 120.851 205.56 120.937 205.416 120.988C205.273 121.039 205.111 121.051 204.957 121.022C203.461 120.75 201.457 120.635 200.393 121.596C200.333 121.652 200.259 121.698 200.175 121.731C200.09 121.764 199.999 121.784 199.904 121.79L199.848 121.797ZM205.559 91.0188C203.564 91.0188 200.073 92.6905 197.9 97.5762C196.785 100.077 195 102.374 192.659 104.32C192.217 104.722 191.794 105.102 191.408 105.49C187.889 109.012 190.721 114.063 199.876 120.491C201.014 119.774 202.699 119.566 204.75 119.86C205.615 118.303 208.372 112.262 202.492 106.659C202.42 106.592 202.372 106.512 202.349 106.428C202.327 106.343 202.331 106.255 202.363 106.172C202.394 106.089 202.451 106.013 202.529 105.951C202.608 105.888 202.704 105.841 202.811 105.813C203 105.762 221.808 100.79 228.564 97.6408C232.327 95.8616 233.438 92.5828 232.045 90.7462C230.756 89.053 227.764 88.9669 224.038 90.5238C223.915 90.5761 223.774 90.5989 223.633 90.5895C223.493 90.58 223.359 90.5386 223.249 90.4706C223.14 90.4026 223.06 90.3112 223.019 90.2081C222.979 90.1051 222.98 89.9951 223.022 89.8924C223.211 89.5177 223.221 89.104 223.049 88.7245C222.876 88.345 222.534 88.0242 222.081 87.819C219.719 86.75 214.554 87.819 208.447 92.5685C208.347 92.6451 208.219 92.6968 208.079 92.7169C207.94 92.737 207.795 92.7246 207.665 92.6812C207.535 92.6378 207.425 92.5654 207.35 92.4737C207.275 92.3819 207.237 92.2749 207.243 92.1667C207.264 92.0356 207.251 91.9027 207.204 91.7755C207.157 91.6484 207.077 91.5297 206.969 91.4262C206.862 91.3228 206.728 91.2367 206.576 91.1729C206.425 91.1091 206.258 91.0689 206.086 91.0547C205.912 91.0278 205.736 91.0158 205.559 91.0188Z" fill="#0F2064"/>
<path d="M210.781 112.341C210.709 112.35 210.636 112.35 210.564 112.341C210.388 112.297 210.241 112.201 210.156 112.075C210.072 111.949 210.056 111.802 210.113 111.667C210.35 110.935 210.8 110.253 211.431 109.671C212.061 109.09 212.855 108.625 213.754 108.309C215.081 107.873 216.575 107.832 217.941 108.195C218.028 108.224 218.107 108.266 218.172 108.32C218.238 108.373 218.288 108.436 218.321 108.504C218.353 108.573 218.367 108.646 218.361 108.719C218.356 108.791 218.331 108.863 218.288 108.928C218.245 108.993 218.186 109.051 218.113 109.098C218.04 109.145 217.955 109.18 217.863 109.202C217.772 109.223 217.676 109.23 217.581 109.222C217.486 109.214 217.394 109.192 217.31 109.156C216.287 108.94 215.198 108.998 214.224 109.321C213.53 109.577 212.917 109.946 212.429 110.403C211.942 110.859 211.591 111.391 211.402 111.961C211.36 112.065 211.279 112.157 211.168 112.224C211.057 112.292 210.922 112.333 210.781 112.341Z" fill="#0F2064"/>
<path d="M231.249 114.664C232.056 114.42 232.347 113.524 231.9 112.662C231.452 111.8 230.436 111.298 229.629 111.542C228.822 111.785 228.53 112.681 228.978 113.543C229.425 114.406 230.442 114.907 231.249 114.664Z" fill="#0F2064"/>
<path d="M221.078 117.563C222.068 117.265 222.426 116.165 221.877 115.108C221.329 114.05 220.081 113.435 219.09 113.734C218.1 114.033 217.742 115.133 218.29 116.19C218.839 117.247 220.087 117.862 221.078 117.563Z" fill="#0F2064"/>
<path d="M222.504 107.642C222.377 107.642 222.252 107.616 222.142 107.566C222.033 107.517 221.943 107.446 221.882 107.36C221.821 107.275 221.792 107.179 221.797 107.082C221.802 106.985 221.842 106.891 221.911 106.809C222.282 106.379 222.774 106.017 223.352 105.75C223.93 105.483 224.579 105.318 225.251 105.267C225.878 105.203 226.516 105.246 227.119 105.391C227.722 105.536 228.276 105.78 228.742 106.106C228.833 106.147 228.911 106.203 228.969 106.27C229.028 106.337 229.067 106.413 229.082 106.493C229.097 106.573 229.088 106.654 229.056 106.731C229.025 106.808 228.971 106.878 228.899 106.937C228.827 106.996 228.738 107.042 228.64 107.071C228.541 107.1 228.435 107.112 228.33 107.106C228.225 107.1 228.123 107.076 228.031 107.036C227.939 106.996 227.861 106.94 227.801 106.874C227.484 106.659 227.11 106.499 226.703 106.406C226.297 106.313 225.869 106.289 225.449 106.336C224.984 106.369 224.536 106.481 224.135 106.664C223.735 106.846 223.393 107.095 223.134 107.391C223.068 107.471 222.974 107.537 222.864 107.581C222.753 107.625 222.629 107.646 222.504 107.642Z" fill="#0F2064"/>
<path d="M225.91 120.836C225.733 120.836 225.563 120.784 225.433 120.693C225.303 120.601 225.223 120.476 225.209 120.341C225.195 120.206 225.247 120.073 225.356 119.966C225.465 119.86 225.623 119.789 225.797 119.767C229.335 119.336 229.74 118.856 229.749 118.849C229.749 118.275 228.808 115.979 224.433 113.109C224.363 113.062 224.306 113.005 224.265 112.941C224.225 112.877 224.201 112.808 224.195 112.737C224.189 112.666 224.202 112.595 224.232 112.527C224.263 112.46 224.31 112.398 224.372 112.345C224.434 112.292 224.509 112.248 224.592 112.217C224.676 112.186 224.767 112.168 224.86 112.163C224.953 112.159 225.047 112.169 225.135 112.192C225.223 112.215 225.304 112.251 225.374 112.298C229.956 115.333 231.17 117.88 231.16 118.906C231.16 119.817 229.627 120.391 226.042 120.829L225.91 120.836Z" fill="#0F2064"/>
<path d="M227.293 131.26H227.18C224.226 130.901 222.147 130.026 221.017 128.648C220.571 128.063 220.282 127.416 220.165 126.745C220.049 126.074 220.108 125.392 220.34 124.738C220.372 124.656 220.43 124.581 220.509 124.519C220.587 124.457 220.684 124.411 220.791 124.383C220.898 124.356 221.012 124.348 221.123 124.361C221.235 124.375 221.34 124.408 221.431 124.458C222.819 125.185 224.451 125.594 226.134 125.634C227.817 125.675 229.48 125.347 230.925 124.688C231.088 124.622 231.279 124.608 231.456 124.648C231.633 124.687 231.782 124.779 231.872 124.902C231.962 125.025 231.985 125.169 231.936 125.305C231.888 125.441 231.771 125.557 231.612 125.628C230.091 126.304 228.37 126.674 226.61 126.701C224.85 126.729 223.11 126.414 221.554 125.786C221.465 126.591 221.712 127.397 222.259 128.089C223.2 129.186 224.913 129.89 227.444 130.198C227.618 130.22 227.776 130.291 227.885 130.398C227.994 130.504 228.047 130.638 228.032 130.772C228.018 130.907 227.938 131.032 227.808 131.124C227.678 131.216 227.508 131.267 227.331 131.267L227.293 131.26Z" fill="#0F2064"/>
<path d="M229.749 128.598C229.569 128.599 229.397 128.547 229.266 128.454C229.135 128.36 229.055 128.233 229.043 128.096L228.817 125.772C228.81 125.701 228.822 125.63 228.851 125.563C228.88 125.495 228.927 125.433 228.987 125.38C229.048 125.326 229.122 125.282 229.205 125.25C229.288 125.218 229.378 125.199 229.471 125.194C229.564 125.189 229.657 125.198 229.745 125.22C229.833 125.242 229.915 125.277 229.985 125.324C230.056 125.37 230.113 125.426 230.155 125.49C230.197 125.553 230.222 125.622 230.229 125.693L230.454 128.017C230.467 128.159 230.406 128.299 230.285 128.406C230.163 128.514 229.991 128.58 229.805 128.591L229.749 128.598Z" fill="#0F2064"/>
<path d="M225.675 136.131C223.54 136.099 221.416 135.902 219.333 135.543C219.242 135.529 219.156 135.501 219.079 135.462C219.003 135.422 218.937 135.371 218.886 135.312C218.834 135.253 218.799 135.187 218.781 135.118C218.764 135.049 218.764 134.977 218.783 134.908C218.801 134.839 218.838 134.773 218.889 134.714C218.941 134.656 219.008 134.606 219.085 134.567C219.162 134.528 219.249 134.501 219.34 134.487C219.431 134.474 219.525 134.474 219.616 134.488C226.202 135.514 233.023 135.923 238.499 128.799C240.052 126.783 237.398 108.646 223.558 100.496C223.484 100.452 223.423 100.398 223.377 100.337C223.33 100.275 223.301 100.208 223.289 100.137C223.277 100.067 223.283 99.9957 223.308 99.9273C223.332 99.859 223.374 99.7949 223.431 99.7388C223.488 99.6828 223.558 99.6358 223.639 99.6006C223.72 99.5654 223.809 99.5427 223.901 99.5337C223.993 99.5247 224.087 99.5296 224.176 99.5482C224.266 99.5668 224.35 99.5987 224.423 99.642C238.537 107.964 241.802 126.632 239.722 129.337C235.583 134.725 230.596 136.131 225.675 136.131Z" fill="#0F2064"/>
<path d="M267.3 323.148C261.57 323.148 253.987 323.011 244.879 322.853C237.352 322.724 228.884 322.574 219.719 322.473C219.627 322.472 219.535 322.457 219.45 322.429C219.365 322.402 219.288 322.361 219.223 322.31C219.158 322.26 219.107 322.2 219.073 322.134C219.039 322.069 219.022 321.999 219.023 321.928C219.03 321.786 219.108 321.652 219.242 321.554C219.375 321.455 219.552 321.399 219.738 321.397C228.902 321.497 237.408 321.648 244.916 321.784C261.542 322.079 273.802 322.294 277.716 321.706C277.227 319.101 275.044 306.682 275.834 298.346C275.851 298.205 275.939 298.074 276.079 297.982C276.22 297.89 276.402 297.842 276.587 297.85C276.773 297.862 276.945 297.928 277.067 298.035C277.188 298.143 277.249 298.283 277.236 298.424C276.295 307.608 279.118 321.885 279.118 322.028C279.144 322.156 279.108 322.286 279.018 322.395C278.929 322.505 278.79 322.586 278.629 322.624C277.02 323.011 273.115 323.148 267.3 323.148Z" fill="#0F2064"/>
<path d="M266.745 120.836H266.66C266.475 120.82 266.305 120.748 266.188 120.636C266.072 120.524 266.018 120.382 266.04 120.24C267.799 108.948 270.471 71.7411 270.612 64.8106C270.744 58.533 272.052 40.8265 272.315 37.2751C264.045 37.7702 251.314 36.4501 236.665 34.9219C218.675 33.0566 198.295 30.9329 179.27 31.3347C166.098 31.6145 148.625 32.7696 131.727 33.939C116.042 35.0008 101.223 35.9981 90.139 36.2851C66.8706 36.8877 46.4532 37.3325 13.5688 37.189C13.3817 37.189 13.2022 37.1323 13.0698 37.0314C12.9375 36.9305 12.8632 36.7937 12.8632 36.6509C12.8632 36.5082 12.9375 36.3714 13.0698 36.2705C13.2022 36.1696 13.3817 36.1129 13.5688 36.1129C46.4249 36.2635 66.8235 35.8115 90.0825 35.2161C101.129 34.9291 115.929 33.9318 131.595 32.87C148.531 31.7293 166.022 30.5455 179.223 30.2657C198.398 29.8568 218.844 31.9804 236.881 33.8529C251.935 35.4169 264.957 36.7729 273.03 36.1416C273.132 36.1331 273.236 36.1417 273.333 36.1667C273.43 36.1918 273.519 36.2328 273.593 36.2867C273.668 36.3407 273.726 36.4064 273.763 36.4792C273.801 36.552 273.817 36.6302 273.811 36.7083C273.811 36.9164 272.202 57.8801 272.061 64.8178C271.92 71.7555 269.239 109.034 267.479 120.355C267.46 120.491 267.374 120.617 267.237 120.706C267.101 120.796 266.925 120.842 266.745 120.836Z" fill="#0F2064"/>
<path d="M116.465 23.6649C132.884 23.378 158.213 23.2775 168.6 23.2488C169.882 23.2449 171.117 23.6138 172.054 24.2804C172.991 24.9469 173.559 25.8609 173.643 26.836C174.123 31.7433 174.961 40.5751 175.309 45.8339C175.344 46.3534 175.241 46.873 175.006 47.3612C174.77 47.8494 174.406 48.2959 173.937 48.6737C173.468 49.0514 172.903 49.3526 172.277 49.5588C171.651 49.765 170.976 49.8719 170.294 49.8732C158.796 49.8732 131.002 50.0525 116.907 50.77C116.214 50.8057 115.518 50.7314 114.863 50.5519C114.209 50.3723 113.611 50.0913 113.106 49.7267C112.601 49.362 112.201 48.9216 111.931 48.4331C111.66 47.9446 111.525 47.4187 111.535 46.8886C111.61 41.8665 111.704 33.3863 111.535 27.6252C111.515 27.1178 111.627 26.6124 111.864 26.1381C112.101 25.6639 112.46 25.2302 112.918 24.862C113.376 24.4938 113.926 24.1985 114.535 23.993C115.143 23.7876 115.799 23.6761 116.465 23.6649Z" fill="#0F2064"/>
<path d="M153.969 33.8456C153.861 33.8448 153.755 33.8251 153.659 33.7882C151.974 33.1496 148.832 29.1176 147.298 24.8847C146.244 22.0149 145.548 17.8609 148.173 14.7257C151.391 10.8802 152.238 6.57552 150.271 3.96402C148.672 1.86908 145.266 0.864661 140.42 1.09424C135.226 1.3023 133.138 3.36137 132.3 5.04736C131.657 6.51926 131.547 8.09632 131.983 9.61179C132.419 11.1273 133.383 12.5248 134.775 13.6567C134.842 13.7066 134.896 13.7662 134.933 13.832C134.97 13.8977 134.99 13.9685 134.991 14.0401C134.993 14.1117 134.975 14.1828 134.941 14.2494C134.906 14.3159 134.854 14.3766 134.789 14.4279C134.723 14.4793 134.645 14.5203 134.559 14.5486C134.473 14.577 134.38 14.5921 134.286 14.5931C134.192 14.5941 134.099 14.5809 134.012 14.5544C133.924 14.528 133.845 14.4886 133.777 14.4387C132.183 13.1625 131.077 11.578 130.58 9.85675C130.082 8.13553 130.212 6.34331 130.955 4.67429C132.347 1.86191 135.659 0.218961 140.364 0.0252507C147.195 -0.247378 150.196 1.73994 151.504 3.46181C153.762 6.41768 152.934 11.0667 149.377 15.3068C147.025 18.112 147.693 21.9073 148.672 24.6336C150.262 29.0243 153.376 32.5255 154.317 32.8627C154.459 32.9172 154.573 33.0067 154.64 33.1167C154.707 33.2267 154.723 33.3507 154.686 33.4686C154.649 33.5866 154.561 33.6916 154.436 33.7665C154.311 33.8414 154.156 33.8819 153.997 33.8814L153.969 33.8456Z" fill="#0F2064"/>
<path d="M132.752 33.8454C132.63 33.845 132.511 33.8207 132.406 33.775C132.3 33.7292 132.212 33.6635 132.15 33.5841C132.087 33.5048 132.053 33.4145 132.049 33.3221C132.046 33.2296 132.074 33.138 132.131 33.0562C135.048 28.7946 136.901 18.5638 135.226 15.9523C135.186 15.8887 135.162 15.8196 135.156 15.749C135.15 15.6783 135.163 15.6075 135.193 15.5405C135.223 15.4736 135.27 15.4118 135.331 15.3588C135.393 15.3057 135.468 15.2624 135.551 15.2313C135.634 15.2002 135.725 15.1819 135.818 15.1775C135.91 15.1732 136.003 15.1827 136.091 15.2057C136.179 15.2287 136.26 15.2646 136.329 15.3115C136.399 15.3584 136.456 15.4152 136.497 15.4788C138.378 18.3486 136.496 28.9955 133.382 33.5512C133.323 33.6399 133.233 33.7143 133.121 33.7663C133.01 33.8182 132.882 33.8456 132.752 33.8454Z" fill="#0F2064"/>
<path d="M153.969 33.8453C153.861 33.8445 153.755 33.8249 153.659 33.7879C152.078 33.1853 149.02 29.3398 147.449 25.2862C147.425 25.2169 147.42 25.1448 147.433 25.074C147.446 25.0032 147.477 24.935 147.525 24.8734C147.572 24.8118 147.635 24.7579 147.71 24.7149C147.785 24.6718 147.871 24.6405 147.961 24.6226C148.052 24.6047 148.147 24.6006 148.24 24.6105C148.333 24.6205 148.422 24.6443 148.503 24.6806C148.584 24.7169 148.654 24.765 148.711 24.8221C148.767 24.8793 148.808 24.9443 148.832 25.0136C150.422 29.1317 153.329 32.4822 154.317 32.8624C154.459 32.9169 154.573 33.0064 154.64 33.1164C154.707 33.2264 154.723 33.3504 154.686 33.4684C154.649 33.5863 154.561 33.6913 154.436 33.7662C154.311 33.8411 154.156 33.8817 153.997 33.8812L153.969 33.8453Z" fill="white"/>
<path d="M132.752 33.8455C132.63 33.8451 132.511 33.8209 132.406 33.7751C132.3 33.7294 132.212 33.6636 132.15 33.5843C132.087 33.505 132.053 33.4147 132.049 33.3222C132.046 33.2297 132.074 33.1382 132.131 33.0563C133.593 30.6106 134.591 28.0185 135.095 25.3582C135.126 25.2174 135.229 25.0918 135.382 25.009C135.534 24.9263 135.724 24.8932 135.908 24.9169C136.093 24.9407 136.258 25.0195 136.366 25.1359C136.475 25.2522 136.518 25.3967 136.487 25.5375C135.958 28.3079 134.912 31.0064 133.382 33.5514C133.323 33.6401 133.233 33.7145 133.121 33.7664C133.01 33.8184 132.882 33.8457 132.752 33.8455Z" fill="white"/>
<path d="M278.205 128.44C278.018 128.44 277.838 128.384 277.706 128.283C277.574 128.182 277.499 128.045 277.499 127.902C277.584 106.157 278.309 85.114 278.657 81.3618C278.788 79.9627 278.901 76.9208 279.033 73.0609C279.315 65.3125 279.692 54.7015 280.595 46.2859C280.612 46.1438 280.701 46.0123 280.843 45.9197C280.986 45.8272 281.17 45.7809 281.357 45.7909C281.45 45.7963 281.54 45.8157 281.623 45.8479C281.706 45.8801 281.78 45.9244 281.84 45.9785C281.901 46.0325 281.946 46.095 281.975 46.1626C282.003 46.2301 282.014 46.3013 282.006 46.372C281.065 54.7589 280.727 65.3556 280.454 73.0896C280.313 76.9638 280.2 80.0201 280.068 81.4407C279.72 85.1786 278.995 106.185 278.911 127.91C278.908 128.051 278.833 128.186 278.701 128.285C278.569 128.385 278.391 128.44 278.205 128.44Z" fill="#0F2064"/>
<path d="M167.076 322.631C139.423 322.452 111.892 321.369 87.6077 320.407C62.3917 319.41 40.6194 318.556 26.553 319.044C26.4602 319.05 26.3668 319.041 26.2786 319.018C26.1904 318.996 26.1094 318.959 26.0405 318.911C25.9716 318.863 25.9164 318.805 25.8783 318.741C25.8402 318.676 25.8201 318.606 25.8191 318.535C25.8114 318.393 25.8772 318.255 26.0023 318.15C26.1274 318.045 26.3016 317.982 26.4871 317.975C40.6006 317.487 62.4294 318.341 87.6454 319.338C111.92 320.292 139.395 321.383 167.057 321.562C167.244 321.562 167.424 321.619 167.556 321.72C167.688 321.821 167.763 321.958 167.763 322.1C167.763 322.243 167.688 322.38 167.556 322.481C167.424 322.582 167.244 322.638 167.057 322.638L167.076 322.631Z" fill="#0F2064"/>
<path d="M263.838 316.827C263.715 316.833 263.591 316.819 263.476 316.786C263.361 316.752 263.256 316.7 263.17 316.633C261.288 316.518 256.96 316.325 247.174 315.973C246.989 315.966 246.815 315.903 246.69 315.798C246.565 315.693 246.499 315.555 246.506 315.414C246.521 315.273 246.605 315.143 246.741 315.048C246.877 314.953 247.056 314.902 247.24 314.904C256.452 315.234 261.015 315.399 263.283 315.571C263.546 314.137 263.725 309.265 263.405 301.072C263.402 301.001 263.418 300.931 263.451 300.865C263.485 300.799 263.534 300.738 263.598 300.687C263.662 300.636 263.738 300.595 263.823 300.566C263.908 300.537 263.999 300.521 264.092 300.519C264.185 300.514 264.279 300.524 264.368 300.549C264.456 300.573 264.537 300.611 264.605 300.66C264.673 300.709 264.727 300.769 264.763 300.835C264.8 300.901 264.818 300.972 264.816 301.043C264.995 305.685 265.174 313.06 264.638 315.715C265.513 315.851 265.503 316.009 265.503 316.267C265.503 316.805 264.873 316.827 263.838 316.827Z" fill="#0F2064"/>
<path d="M103.424 314.273C72.9861 314.273 48.9651 313.326 15.7891 309.911C15.697 309.901 15.6083 309.878 15.528 309.843C15.4477 309.807 15.3773 309.76 15.321 309.704C15.2072 309.59 15.1572 309.446 15.1822 309.305C15.2071 309.163 15.3049 309.034 15.454 308.948C15.6031 308.861 15.7913 308.823 15.9773 308.842C63.2573 313.706 91.9358 313.555 147.232 312.788C153.64 312.702 157.639 312.587 160.838 312.494C166.888 312.321 170.247 312.228 181.857 312.537C181.95 312.539 182.041 312.556 182.125 312.586C182.209 312.615 182.285 312.657 182.348 312.709C182.411 312.761 182.46 312.822 182.492 312.889C182.524 312.955 182.538 313.026 182.535 313.096C182.523 313.238 182.44 313.37 182.303 313.466C182.166 313.563 181.987 313.615 181.801 313.613C170.209 313.312 166.897 313.405 160.885 313.57C157.667 313.663 153.668 313.771 147.251 313.864C130.654 314.101 116.446 314.273 103.424 314.273Z" fill="#0F2064"/>
<path d="M14.5098 305.499C14.3423 305.499 14.1802 305.453 14.0526 305.37C13.9251 305.287 13.8403 305.173 13.8135 305.047C2.12758 251.776 1.37487 235.555 0.895014 206.757C0.556292 186.482 4.40455 152.819 7.81059 123.124C9.34425 109.758 10.7838 97.1313 11.5742 87.8404C12.9008 72.236 11.5742 64.4231 10.3416 57.5356C9.31603 51.6741 8.45982 46.6161 9.5983 38.2292C9.60432 38.1567 9.62953 38.0859 9.67241 38.021C9.71529 37.9561 9.77495 37.8985 9.8478 37.8517C9.92064 37.8049 10.0052 37.7698 10.0963 37.7486C10.1874 37.7274 10.2832 37.7204 10.3779 37.7282C10.4726 37.7359 10.5643 37.7582 10.6474 37.7937C10.7305 37.8292 10.8034 37.8772 10.8615 37.9347C10.9197 37.9923 10.9619 38.0582 10.9858 38.1285C11.0096 38.1989 11.0145 38.2721 11.0002 38.344C9.86174 46.6017 10.7368 51.6023 11.7435 57.3993C12.9573 64.3441 14.331 72.2073 12.9855 87.9193C12.1952 97.2461 10.7462 109.852 9.22194 123.225C5.8253 152.898 1.97704 186.532 2.31576 206.75C2.79562 235.526 3.54834 251.712 15.2155 304.91C15.2453 305.051 15.2006 305.195 15.0913 305.311C14.9819 305.426 14.8167 305.504 14.6321 305.527L14.5098 305.499Z" fill="#0F2064"/>
<path d="M37.4299 85.8102C37.4299 90.0359 41.918 92.0232 47.4599 92.0232C53.0018 92.0232 57.4898 90.0359 57.4898 85.8102C57.4898 81.5844 53.0018 78.8796 47.4599 78.8796C41.918 78.8796 37.4299 81.5844 37.4299 85.8102Z" fill="#2E660F"/>
<path d="M47.4599 86.8789C47.3488 86.8793 47.2392 86.8596 47.14 86.8215C46.9895 86.7641 43.4329 85.3077 38.6249 76.9639C38.5662 76.8359 38.573 76.6957 38.644 76.5713C38.7151 76.447 38.845 76.3477 39.0079 76.2933C39.1708 76.2389 39.3546 76.2334 39.5226 76.2779C39.6906 76.3225 39.8304 76.4137 39.9139 76.5334C43.4611 82.689 46.2556 84.9131 47.3188 85.6019C49.2758 83.6791 57.7627 75.6007 66.7671 70.4279C66.9168 70.3423 67.105 70.3055 67.2903 70.3257C67.4756 70.3459 67.6427 70.4214 67.755 70.5355C67.8673 70.6497 67.9156 70.7932 67.8891 70.9345C67.8626 71.0758 67.7636 71.2032 67.6139 71.2889C57.5463 77.0715 48.1091 86.5704 48.015 86.6709C47.9493 86.7354 47.8651 86.7877 47.769 86.8237C47.6728 86.8598 47.5671 86.8787 47.4599 86.8789Z" fill="#0F2064"/>
<path d="M36.489 124.186C36.489 128.412 41.918 131.834 47.4599 131.834C53.0017 131.834 56.5489 128.412 56.5489 124.186C56.5489 119.96 53.0017 116.538 47.4599 116.538C41.918 116.538 36.489 119.96 36.489 124.186Z" fill="#2E660F"/>
<path d="M47.4599 125.248C47.3488 125.248 47.2392 125.229 47.14 125.191C46.9895 125.133 43.4329 123.677 38.6249 115.333C38.5662 115.205 38.573 115.065 38.644 114.94C38.7151 114.816 38.845 114.717 39.0079 114.662C39.1708 114.608 39.3546 114.603 39.5226 114.647C39.6906 114.692 39.8304 114.783 39.9139 114.903C43.4611 121.058 46.2556 123.282 47.3188 123.971C49.2758 122.048 57.7627 113.97 66.7671 108.797C66.8412 108.755 66.9256 108.724 67.0153 108.706C67.1051 108.689 67.1985 108.685 67.2903 108.695C67.382 108.705 67.4703 108.729 67.55 108.765C67.6298 108.801 67.6994 108.848 67.755 108.905C67.8106 108.961 67.8511 109.026 67.8741 109.094C67.8971 109.162 67.9022 109.234 67.8891 109.304C67.876 109.374 67.8449 109.441 67.7977 109.502C67.7505 109.562 67.688 109.616 67.6139 109.658C57.5651 115.412 48.1562 124.94 48.0244 125.033C47.9587 125.1 47.8735 125.154 47.7755 125.191C47.6775 125.229 47.5694 125.248 47.4599 125.248Z" fill="#0F2064"/>
<path d="M37.4299 161.838C37.4299 163.866 38.4867 165.811 40.3676 167.246C42.2486 168.68 44.7998 169.486 47.4599 169.486C53.0017 169.486 57.4898 166.781 57.4898 162.555C57.496 161.548 57.2412 160.549 56.7399 159.617C56.2386 158.685 55.5008 157.838 54.5688 157.124C53.6368 156.41 52.529 155.843 51.3091 155.457C50.0891 155.07 48.781 154.871 47.4599 154.871C41.918 154.871 37.4299 157.612 37.4299 161.838Z" fill="#2E660F"/>
<path d="M47.4599 163.624C47.3488 163.625 47.2392 163.605 47.14 163.567C46.9895 163.509 43.4329 162.053 38.6249 153.709C38.5662 153.581 38.573 153.441 38.644 153.317C38.7151 153.192 38.845 153.093 39.0079 153.039C39.1708 152.984 39.3546 152.979 39.5226 153.023C39.6906 153.068 39.8304 153.159 39.9139 153.279C43.4611 159.434 46.2556 161.658 47.3188 162.347C49.2758 160.424 57.7627 152.346 66.7671 147.173C66.8412 147.131 66.9256 147.1 67.0153 147.083C67.1051 147.065 67.1985 147.061 67.2903 147.071C67.382 147.081 67.4703 147.105 67.55 147.141C67.6298 147.177 67.6994 147.224 67.755 147.281C67.8106 147.337 67.8511 147.402 67.8741 147.47C67.8971 147.539 67.9022 147.61 67.8891 147.68C67.876 147.75 67.8449 147.817 67.7977 147.878C67.7505 147.939 67.688 147.992 67.6139 148.034C57.5651 153.802 48.1562 163.309 48.0244 163.409C47.9587 163.476 47.8735 163.53 47.7755 163.567C47.6775 163.605 47.5694 163.624 47.4599 163.624Z" fill="#0F2064"/>
<path d="M38.3615 195.199C36.0751 199.044 39.1706 203.88 44.2138 205.623C46.6381 206.46 49.3993 206.529 51.8899 205.814C54.3806 205.099 56.3966 203.659 57.4946 201.81C58.5926 199.962 58.6826 197.856 57.7447 195.957C56.8069 194.058 54.918 192.521 52.4937 191.683C47.4505 189.94 40.629 191.353 38.3615 195.199Z" fill="#2E660F"/>
<path d="M47.4599 199.568C47.3488 199.568 47.2391 199.549 47.14 199.51C46.9895 199.453 43.4329 197.997 38.6249 189.653C38.5662 189.525 38.573 189.385 38.644 189.26C38.7151 189.136 38.845 189.037 39.0079 188.982C39.1708 188.928 39.3546 188.922 39.5226 188.967C39.6906 189.011 39.8304 189.103 39.9139 189.222C43.4611 195.378 46.2556 197.602 47.3188 198.291C49.2758 196.368 57.7627 188.29 66.7671 183.117C66.9168 183.031 67.105 182.994 67.2903 183.015C67.4756 183.035 67.6427 183.11 67.755 183.224C67.8673 183.339 67.9156 183.482 67.8891 183.623C67.8626 183.765 67.7636 183.892 67.6139 183.978C57.5651 189.753 48.1562 199.259 48.0244 199.353C47.9587 199.419 47.8735 199.474 47.7755 199.511C47.6775 199.548 47.5695 199.568 47.4599 199.568Z" fill="#0F2064"/>
<path d="M36.1406 234.264C38.2294 238.174 43.2162 240.326 48.3723 238.733C53.5284 237.141 55.0997 232.943 53.0109 229.033C50.9221 225.123 45.9354 222.971 40.7793 224.564C35.6232 226.156 34.0424 230.354 36.1406 234.264Z" fill="#2E660F"/>
<path d="M44.5619 232.714C44.4508 232.714 44.3411 232.695 44.242 232.656C44.0915 232.599 40.5349 231.143 35.7269 222.799C35.6812 222.733 35.6538 222.661 35.6463 222.587C35.6388 222.514 35.6514 222.439 35.6833 222.369C35.7152 222.299 35.7657 222.235 35.8317 222.181C35.8977 222.126 35.9777 222.083 36.0667 222.053C36.1558 222.023 36.2519 222.008 36.3491 222.008C36.4463 222.008 36.5425 222.023 36.6316 222.053C36.7208 222.082 36.8009 222.125 36.867 222.18C36.9332 222.234 36.9839 222.298 37.016 222.368C40.5631 228.524 43.3576 230.748 44.4208 231.437C46.3779 229.514 54.8648 221.436 63.8691 216.263C63.9433 216.22 64.0276 216.19 64.1174 216.172C64.2072 216.154 64.3006 216.151 64.3923 216.161C64.4841 216.171 64.5723 216.194 64.6521 216.23C64.7318 216.266 64.8015 216.314 64.8571 216.37C64.9127 216.427 64.9531 216.491 64.9761 216.56C64.9991 216.628 65.0042 216.699 64.9911 216.769C64.978 216.839 64.947 216.907 64.8997 216.967C64.8525 217.028 64.7901 217.081 64.7159 217.124C54.6578 222.899 45.2112 232.405 45.1171 232.506C45.0513 232.57 44.9672 232.623 44.871 232.659C44.7748 232.695 44.6691 232.713 44.5619 232.714Z" fill="#0F2064"/>
<path d="M36.9595 264.791C36.9595 269.017 41.4475 271.721 46.9894 271.721C52.5313 271.721 57.0194 269.017 57.0194 264.791C57.0194 260.565 53.4722 257.143 47.9303 257.143C42.3884 257.143 36.9595 260.565 36.9595 264.791Z" fill="#2E660F"/>
<path d="M46.9987 265.853C46.8876 265.853 46.7779 265.833 46.6788 265.795C46.5283 265.738 42.9717 264.281 38.1637 255.937C38.118 255.872 38.0906 255.8 38.083 255.726C38.0755 255.652 38.0881 255.578 38.12 255.508C38.1519 255.438 38.2025 255.374 38.2685 255.319C38.3345 255.265 38.4145 255.221 38.5035 255.192C38.5926 255.162 38.6887 255.147 38.7859 255.147C38.8831 255.146 38.9793 255.162 39.0684 255.191C39.1575 255.221 39.2377 255.264 39.3038 255.319C39.3699 255.373 39.4206 255.437 39.4527 255.507C42.9999 261.663 45.7944 263.887 46.8576 264.576C48.8146 262.653 57.3015 254.574 66.3059 249.402C66.4556 249.316 66.6438 249.279 66.8291 249.299C67.0144 249.32 67.1815 249.395 67.2938 249.509C67.4061 249.623 67.4543 249.767 67.4279 249.908C67.4014 250.049 67.3024 250.177 67.1527 250.262C57.0851 256.045 47.6479 265.544 47.5538 265.644C47.4881 265.709 47.4039 265.761 47.3078 265.797C47.2116 265.833 47.1059 265.852 46.9987 265.853Z" fill="#0F2064"/>
<path d="M78.6598 85.2791C78.4726 85.2791 78.2931 85.2224 78.1608 85.1215C78.0284 85.0206 77.9541 84.8838 77.9541 84.741C77.9541 84.5983 78.0284 84.4615 78.1608 84.3606C78.2931 84.2597 78.4726 84.203 78.6598 84.203C96.8285 83.2703 123.823 83.3564 138.275 83.4855C138.368 83.4865 138.459 83.5013 138.544 83.5292C138.629 83.5571 138.707 83.5975 138.771 83.6482C138.836 83.6988 138.887 83.7587 138.921 83.8243C138.955 83.89 138.972 83.9601 138.971 84.0308C138.96 84.1711 138.88 84.3032 138.748 84.4014C138.616 84.4995 138.44 84.5566 138.256 84.5617C123.813 84.4254 96.8567 84.3465 78.7538 85.2791H78.6598Z" fill="#0F2064"/>
<path d="M204.674 83.8443L161.882 83.4497C161.695 83.4497 161.516 83.393 161.383 83.2921C161.251 83.1912 161.177 83.0543 161.177 82.9116C161.177 82.7689 161.251 82.632 161.383 82.5311C161.516 82.4302 161.695 82.3735 161.882 82.3735L204.674 82.7681C204.861 82.7681 205.041 82.8248 205.173 82.9257C205.306 83.0266 205.38 83.1635 205.38 83.3062C205.38 83.4489 205.306 83.5858 205.173 83.6867C205.041 83.7876 204.861 83.8443 204.674 83.8443Z" fill="#0F2064"/>
<path d="M136.045 93.4938C131.962 93.4938 125.131 93.1494 117.491 92.7763C104.384 92.1091 88.069 91.2769 79.9867 91.9656C79.8936 91.9752 79.799 91.9706 79.7083 91.9519C79.6176 91.9333 79.5327 91.9011 79.4586 91.8571C79.3845 91.8131 79.3226 91.7583 79.2766 91.6958C79.2306 91.6334 79.2015 91.5645 79.1908 91.4934C79.1802 91.4222 79.1883 91.3502 79.2146 91.2814C79.241 91.2127 79.2851 91.1487 79.3443 91.0931C79.4035 91.0375 79.4767 90.9915 79.5595 90.9578C79.6424 90.924 79.7332 90.9032 79.8268 90.8966C88.0314 90.1792 104.422 91.0329 117.585 91.7002C127.474 92.2024 136.008 92.64 138.755 92.3387C138.941 92.3187 139.13 92.3559 139.28 92.442C139.43 92.5281 139.529 92.6561 139.555 92.7978C139.581 92.9396 139.532 93.0835 139.419 93.1979C139.306 93.3122 139.139 93.3877 138.953 93.4077C137.987 93.4841 137.016 93.5129 136.045 93.4938Z" fill="#0F2064"/>
<path d="M157.432 121.151C153.32 121.151 147.167 121.116 139.809 121.065C121.339 120.951 96.0384 120.793 78.6506 121.065C78.4635 121.065 78.284 121.009 78.1516 120.908C78.0193 120.807 77.9449 120.67 77.9449 120.527C77.9449 120.385 78.0193 120.248 78.1516 120.147C78.284 120.046 78.4635 119.989 78.6506 119.989C96.0384 119.688 121.348 119.846 139.809 119.989C149.302 120.047 156.811 120.097 160.462 120.061C160.649 120.061 160.828 120.118 160.961 120.218C161.093 120.319 161.167 120.456 161.167 120.599C161.167 120.742 161.093 120.879 160.961 120.979C160.828 121.08 160.649 121.137 160.462 121.137L157.432 121.151Z" fill="#0F2064"/>
<path d="M97.7129 132.372C97.6282 132.372 89.2448 132.229 79.9111 132.014C79.8184 132.012 79.7272 131.996 79.6425 131.967C79.5578 131.939 79.4813 131.897 79.4176 131.846C79.3538 131.795 79.3039 131.734 79.2707 131.668C79.2375 131.602 79.2218 131.532 79.2243 131.461C79.2316 131.319 79.3115 131.185 79.4468 131.087C79.5822 130.989 79.7623 130.936 79.9488 130.938C89.3013 131.153 97.6564 131.296 97.7411 131.296C97.9283 131.296 98.1077 131.353 98.2401 131.454C98.3724 131.555 98.4468 131.692 98.4468 131.834C98.4468 131.977 98.3724 132.114 98.2401 132.215C98.1077 132.316 97.9283 132.372 97.7411 132.372H97.7129Z" fill="#0F2064"/>
<path d="M133.147 164.736C114.612 164.736 95.1351 164.478 84.55 163.617C84.4549 163.612 84.362 163.593 84.277 163.56C84.1919 163.528 84.1164 163.482 84.055 163.426C83.9936 163.371 83.9476 163.306 83.9197 163.237C83.8919 163.168 83.8828 163.094 83.8929 163.022C83.9031 162.95 83.9324 162.88 83.9789 162.817C84.0255 162.753 84.0884 162.698 84.1638 162.653C84.2393 162.609 84.3258 162.577 84.418 162.559C84.5102 162.541 84.6063 162.537 84.7005 162.548C108.392 164.485 176.72 163.358 178.79 163.172C178.882 163.163 178.976 163.168 179.066 163.187C179.155 163.206 179.239 163.239 179.312 163.283C179.384 163.327 179.445 163.382 179.489 163.444C179.534 163.506 179.562 163.575 179.571 163.645C179.592 163.787 179.539 163.93 179.422 164.041C179.306 164.153 179.136 164.225 178.95 164.241C177.802 164.341 156.209 164.736 133.147 164.736Z" fill="#0F2064"/>
<path d="M153.537 199.568C153.028 199.568 102.916 198.628 78.3495 197.645C78.2568 197.642 78.1659 197.624 78.0821 197.593C77.9984 197.563 77.9233 197.52 77.8612 197.468C77.7992 197.415 77.7513 197.353 77.7205 197.287C77.6897 197.22 77.6764 197.149 77.6815 197.078C77.6837 197.007 77.7051 196.937 77.7442 196.872C77.7833 196.807 77.8394 196.749 77.909 196.701C77.9786 196.654 78.0603 196.617 78.149 196.595C78.2377 196.572 78.3315 196.563 78.4248 196.569C102.963 197.552 153.066 198.485 153.565 198.492C153.752 198.492 153.931 198.548 154.064 198.649C154.196 198.75 154.27 198.887 154.27 199.03C154.27 199.173 154.196 199.309 154.064 199.41C153.931 199.511 153.752 199.568 153.565 199.568H153.537Z" fill="#0F2064"/>
<path d="M126.589 209.964H126.514C126.297 209.964 104.873 208.299 84.8883 206.692C84.7086 206.671 84.5463 206.598 84.4353 206.489C84.3243 206.379 84.2732 206.241 84.2926 206.103C84.312 205.965 84.4005 205.838 84.5395 205.749C84.6785 205.659 84.8574 205.614 85.0389 205.623C104.995 207.23 126.438 208.88 126.655 208.895C126.842 208.901 127.018 208.964 127.144 209.07C127.27 209.176 127.336 209.315 127.327 209.458C127.319 209.601 127.236 209.735 127.097 209.831C126.959 209.927 126.776 209.978 126.589 209.971V209.964Z" fill="#0F2064"/>
<path d="M113.266 234.142C102.376 234.215 91.4903 233.736 80.6831 232.707C80.591 232.697 80.5025 232.673 80.4224 232.637C80.3423 232.601 80.2723 232.553 80.2163 232.497C80.1034 232.382 80.0547 232.239 80.0809 232.097C80.1071 231.955 80.2061 231.827 80.3561 231.741C80.5061 231.655 80.6948 231.618 80.8807 231.638C103.735 234.041 133.919 232.958 155.211 231.638C163.764 231.206 172.345 231.206 180.898 231.638C180.991 231.643 181.081 231.662 181.164 231.694C181.247 231.726 181.321 231.77 181.382 231.823C181.442 231.877 181.489 231.939 181.518 232.006C181.547 232.074 181.559 232.145 181.552 232.215C181.545 232.286 181.52 232.355 181.478 232.418C181.437 232.481 181.379 232.538 181.309 232.584C181.238 232.63 181.157 232.666 181.068 232.688C180.98 232.71 180.887 232.719 180.794 232.714C172.314 232.286 163.805 232.286 155.324 232.714C143.187 233.467 128.189 234.142 113.266 234.142Z" fill="#0F2064"/>
<path d="M138.482 268.134H138.341C132.752 267.294 122.289 267.216 111.206 267.137C98.814 267.043 85.999 266.95 76.9193 265.86C76.7347 265.837 76.5695 265.759 76.4601 265.643C76.3508 265.527 76.3061 265.383 76.336 265.243C76.3683 265.103 76.4709 264.978 76.622 264.895C76.7731 264.812 76.9608 264.777 77.1451 264.798C86.1213 265.881 98.8798 265.974 111.224 266.06C122.374 266.139 132.865 266.218 138.614 267.079C138.79 267.101 138.949 267.173 139.059 267.281C139.168 267.389 139.22 267.525 139.203 267.661C139.186 267.796 139.103 267.922 138.969 268.013C138.835 268.103 138.661 268.152 138.482 268.148V268.134Z" fill="#0F2064"/>
<path d="M116.738 279.104C116.55 279.104 98.0045 278.214 79.8358 277.245C79.7431 277.241 79.6524 277.222 79.5691 277.191C79.4857 277.16 79.4113 277.116 79.3501 277.063C79.289 277.009 79.2422 276.947 79.2125 276.88C79.1828 276.813 79.1708 276.742 79.1772 276.671C79.1917 276.529 79.2786 276.397 79.4193 276.303C79.56 276.209 79.7433 276.161 79.9299 276.169C98.0892 277.145 116.625 278.02 116.813 278.027C117 278.027 117.18 278.084 117.312 278.185C117.444 278.286 117.519 278.423 117.519 278.566C117.519 278.708 117.444 278.845 117.312 278.946C117.18 279.047 117 279.104 116.813 279.104H116.738Z" fill="#0F2064"/>
<path d="M214.356 212.396C214.19 212.399 214.028 212.355 213.901 212.273C213.775 212.191 213.692 212.077 213.669 211.951C213.594 211.557 213.518 211.184 213.434 210.803C209.426 192.975 185.847 158.939 175.892 145.136C167.988 134.159 159.897 121.187 157.243 115.957C154.59 110.727 141.107 87.776 140.157 86.169C133.919 81.6025 126.496 78.0831 118.366 75.8378C118.188 75.7902 118.043 75.6909 117.962 75.5617C117.881 75.4326 117.87 75.2841 117.933 75.149C117.995 75.0139 118.125 74.9032 118.295 74.8414C118.464 74.7795 118.659 74.7714 118.836 74.819C127.229 77.1262 134.886 80.762 141.305 85.4874C141.359 85.5316 141.404 85.5826 141.436 85.638C141.578 85.882 155.898 110.153 158.608 115.577C161.214 120.771 169.296 133.685 177.172 144.619C187.155 158.473 210.818 192.63 214.864 210.624C214.958 211.011 215.024 211.399 215.099 211.772C215.126 211.914 215.08 212.059 214.969 212.176C214.858 212.292 214.692 212.371 214.506 212.396H214.356Z" fill="#0F2064"/>
<path d="M244.022 216.435C243.853 216.435 243.688 216.388 243.56 216.303C243.432 216.219 243.348 216.101 243.324 215.973C243.3 215.845 243.337 215.714 243.429 215.605C243.521 215.497 243.662 215.417 243.825 215.38L244.399 215.251C251.634 213.615 273.651 208.651 292.789 207.818C292.976 207.81 293.16 207.858 293.3 207.953C293.441 208.048 293.526 208.182 293.537 208.324C293.548 208.467 293.485 208.607 293.36 208.714C293.236 208.821 293.061 208.886 292.874 208.895C273.896 209.72 252.001 214.634 244.803 216.284L244.229 216.413C244.162 216.428 244.092 216.435 244.022 216.435Z" fill="white"/>
<path d="M250.693 247.536C244.973 247.536 240.475 246.97 236.712 245.829C236.618 245.807 236.532 245.771 236.457 245.723C236.383 245.675 236.323 245.615 236.281 245.548C236.238 245.481 236.214 245.408 236.211 245.334C236.207 245.259 236.224 245.185 236.26 245.116C236.296 245.047 236.35 244.984 236.419 244.932C236.489 244.879 236.572 244.838 236.663 244.812C236.754 244.785 236.851 244.773 236.949 244.776C237.046 244.78 237.142 244.799 237.229 244.832C244.041 246.898 253.939 246.984 269.314 245.09C274.291 244.48 278.421 243.942 281.94 243.454C295.913 241.524 298.989 240.584 299.018 240.584C299.187 240.54 299.373 240.546 299.536 240.601C299.7 240.657 299.83 240.758 299.899 240.884C299.969 241.01 299.973 241.152 299.911 241.28C299.848 241.408 299.724 241.514 299.563 241.574C299.441 241.61 296.449 242.543 282.194 244.509C278.666 244.997 274.526 245.535 269.539 246.152C263.314 246.987 257.013 247.45 250.693 247.536Z" fill="white"/>
<path d="M334.574 88.4861C334.392 88.4863 334.217 88.4325 334.085 88.3362C333.953 88.2399 333.876 88.1085 333.869 87.9696L333.003 71.8845L321.458 68.7134L307.1 81.4265C307.038 81.4802 306.963 81.5241 306.879 81.5557C306.795 81.5873 306.704 81.6059 306.61 81.6106C306.517 81.6153 306.423 81.6058 306.334 81.5829C306.246 81.5599 306.164 81.5238 306.093 81.4767C306.023 81.4296 305.965 81.3724 305.924 81.3083C305.882 81.2442 305.858 81.1746 305.852 81.1033C305.846 81.032 305.858 80.9605 305.888 80.8928C305.918 80.8252 305.966 80.7628 306.027 80.7091L320.696 67.7161C320.789 67.6335 320.912 67.5741 321.05 67.546C321.187 67.5178 321.333 67.5221 321.468 67.5583L333.916 70.9805C334.048 71.016 334.163 71.0806 334.247 71.1662C334.331 71.2518 334.379 71.3545 334.386 71.4612L335.27 87.905C335.274 87.9757 335.26 88.0462 335.228 88.1126C335.196 88.179 335.147 88.2399 335.084 88.2919C335.021 88.3439 334.945 88.3859 334.861 88.4155C334.777 88.4452 334.686 88.4619 334.593 88.4646L334.574 88.4861Z" fill="#0F2064"/>
<path d="M293.165 155.862C293.052 155.862 292.941 155.842 292.84 155.802C292.739 155.763 292.653 155.705 292.587 155.635C292.522 155.565 292.479 155.483 292.464 155.398C292.448 155.313 292.46 155.226 292.497 155.144L320.574 96.4214C320.641 96.2911 320.772 96.1859 320.94 96.1283C321.107 96.0706 321.297 96.065 321.47 96.1127C321.643 96.1603 321.784 96.2574 321.865 96.3834C321.945 96.5094 321.958 96.6543 321.9 96.7873L293.824 155.51C293.774 155.613 293.684 155.702 293.567 155.764C293.449 155.827 293.309 155.861 293.165 155.862Z" fill="white"/>
<path d="M277.678 163.366C277.597 163.377 277.514 163.377 277.433 163.366C277.343 163.341 277.259 163.303 277.189 163.253C277.118 163.203 277.062 163.143 277.023 163.075C276.984 163.008 276.964 162.936 276.963 162.862C276.963 162.789 276.982 162.716 277.019 162.648L310.478 94.032C310.543 93.8979 310.675 93.7889 310.845 93.729C311.015 93.6691 311.21 93.6633 311.386 93.7127C311.562 93.7622 311.705 93.8629 311.783 93.9928C311.862 94.1226 311.869 94.2709 311.804 94.4051L278.346 163.021C278.294 163.124 278.202 163.212 278.083 163.274C277.964 163.335 277.822 163.367 277.678 163.366Z" fill="white"/>
</svg>
