<svg width="168" height="80" viewBox="0 0 168 80" fill="none" xmlns="http://www.w3.org/2000/svg">
<ellipse cx="46" cy="40" rx="46" ry="40" fill="#FFFDFD"/>
<path d="M70.4592 41.1678C87.738 36.2155 86.3975 20.3433 83.353 9.72098C80.3086 -0.901337 80.388 10.5709 63.1092 15.5232C45.8304 20.4755 20.7696 55.4093 16.2928 74.5321C19.3372 85.1544 53.1804 46.12 70.4592 41.1678Z" fill="#0F2E66"/>
<path d="M109.157 26.3C112.39 26.3 115.057 26.7 117.157 27.5C119.257 28.2667 120.824 29.45 121.857 31.05C122.89 32.6167 123.407 34.6 123.407 37C123.407 38.6333 123.09 40.0667 122.457 41.3C121.857 42.5 121.04 43.5333 120.007 44.4C119.007 45.2333 117.924 45.9167 116.757 46.45L127.257 62H118.857L110.357 48.3H106.307V62H98.7568V26.3H109.157ZM108.607 32.5H106.307V42.15H108.757C110.424 42.15 111.774 41.9667 112.807 41.6C113.84 41.2333 114.59 40.6833 115.057 39.95C115.524 39.1833 115.757 38.2667 115.757 37.2C115.757 36.0667 115.49 35.1667 114.957 34.5C114.457 33.8 113.674 33.3 112.607 33C111.574 32.6667 110.24 32.5 108.607 32.5ZM165.754 52.1C165.754 54.2 165.237 56.0333 164.204 57.6C163.171 59.1667 161.671 60.3833 159.704 61.25C157.771 62.0833 155.404 62.5 152.604 62.5C151.371 62.5 150.154 62.4167 148.954 62.25C147.787 62.0833 146.654 61.85 145.554 61.55C144.487 61.2167 143.471 60.8167 142.504 60.35V53.3C144.204 54.0333 145.954 54.7167 147.754 55.35C149.587 55.95 151.404 56.25 153.204 56.25C154.437 56.25 155.421 56.0833 156.154 55.75C156.921 55.4167 157.471 54.9667 157.804 54.4C158.171 53.8333 158.354 53.1833 158.354 52.45C158.354 51.55 158.037 50.7833 157.404 50.15C156.804 49.5167 155.987 48.9333 154.954 48.4C153.921 47.8333 152.737 47.2333 151.404 46.6C150.571 46.2 149.671 45.7333 148.704 45.2C147.737 44.6333 146.804 43.95 145.904 43.15C145.037 42.3167 144.321 41.3167 143.754 40.15C143.187 38.9833 142.904 37.5833 142.904 35.95C142.904 33.8167 143.387 32 144.354 30.5C145.354 28.9667 146.754 27.8 148.554 27C150.387 26.2 152.537 25.8 155.004 25.8C156.871 25.8 158.637 26.0167 160.304 26.45C162.004 26.8833 163.771 27.5 165.604 28.3L163.154 34.2C161.521 33.5333 160.054 33.0167 158.754 32.65C157.454 32.2833 156.121 32.1 154.754 32.1C153.821 32.1 153.021 32.25 152.354 32.55C151.687 32.85 151.171 33.2667 150.804 33.8C150.471 34.3333 150.304 34.9667 150.304 35.7C150.304 36.5333 150.554 37.25 151.054 37.85C151.554 38.4167 152.304 38.9667 153.304 39.5C154.304 40.0333 155.554 40.6667 157.054 41.4C158.887 42.2667 160.437 43.1667 161.704 44.1C163.004 45.0333 164.004 46.1333 164.704 47.4C165.404 48.6667 165.754 50.2333 165.754 52.1Z" fill="white"/>
<path d="M137.733 34.7V62H130.283V34.7H137.733ZM134.033 24C135.133 24 136.083 24.2667 136.883 24.8C137.683 25.3 138.083 26.25 138.083 27.65C138.083 29.0167 137.683 29.9667 136.883 30.5C136.083 31.0333 135.133 31.3 134.033 31.3C132.899 31.3 131.933 31.0333 131.133 30.5C130.366 29.9667 129.983 29.0167 129.983 27.65C129.983 26.25 130.366 25.3 131.133 24.8C131.933 24.2667 132.899 24 134.033 24Z" fill="white"/>
<rect x="128" y="12" width="14" height="27" fill="#0F2E66"/>
<path d="M144.426 24.1683C148.937 22.8755 148.2 17.3832 147.132 13.6564C146.064 9.92958 146.358 13.8783 141.848 15.171C137.337 16.4637 131.455 27.8859 130.711 34.3582C131.779 38.085 139.916 25.461 144.426 24.1683Z" fill="#2E660F"/>
</svg>
