<svg width="74" height="74" viewBox="0 0 74 74" fill="none" xmlns="http://www.w3.org/2000/svg">
<g filter="url(#filter0_d_4003_722)">
<g clip-path="url(#clip0_4003_722)">
<rect x="7" y="3" width="60" height="60" rx="30" fill="white"/>
<circle cx="37" cy="33" r="30" fill="#DEF4FF"/>
<path d="M31.1504 11.0403C31.1504 11.0403 23.9084 12.6063 24.4364 22.1163C24.9644 31.6263 23.2664 34.3083 23.2664 34.3083L25.1264 33.7923L31.1444 37.9143L47.3684 34.6683L49.9124 35.4243L50.6984 33.6483C50.6984 33.6483 51.5924 34.6083 52.4804 34.6623C52.4804 34.6623 51.6524 30.3903 51.8084 28.4823C52.1384 24.4863 50.2184 18.6723 50.2184 18.6723L31.1384 11.0403H31.1504Z" fill="#441D39"/>
<path d="M60.8743 55.6804C56.7823 54.3064 47.6563 49.7104 44.5543 48.1264C44.3143 48.0064 44.1163 47.8984 43.9543 47.8204C43.6663 47.6704 43.4983 47.5864 43.4983 47.5864H31.1563C31.1563 47.5864 30.9943 47.6704 30.7003 47.8204C30.5383 47.9044 30.3343 48.0064 30.1003 48.1264C29.6443 48.3604 29.0623 48.6544 28.3843 48.9964C24.4303 50.9884 17.2723 54.5104 13.7803 55.6804C8.81226 57.3544 8.81226 65.8384 8.81226 65.8384H65.8423C65.8423 65.8384 65.8423 57.3544 60.8743 55.6804Z" fill="#FDEBD9"/>
<path d="M42.7241 41.7119H31.8521L31.1501 47.5799C31.1501 48.7319 33.9161 49.6679 37.3241 49.6679C40.7321 49.6679 43.4981 48.7319 43.4981 47.5799L42.7302 41.7119H42.7241Z" fill="#C1735C"/>
<path d="M27.1058 21.3599C27.1058 21.3599 27.5018 18.1319 30.2378 17.5319C30.2378 17.5319 49.4798 17.5319 45.6218 17.5319C45.6218 17.5319 48.1238 17.5319 48.6458 21.1319C48.7238 21.6719 49.5218 27.2099 49.4738 29.3879C49.4438 30.7859 49.9898 30.0479 49.9898 30.0479C49.9898 30.0479 50.5778 27.8159 50.6738 24.8879C50.8538 19.3079 50.1278 9.71387 38.3618 9.71387C26.5958 9.71387 25.5098 16.7759 25.5098 25.8839L25.9418 30.3659C25.9598 30.5459 26.1098 30.6779 26.2898 30.6779C26.6318 30.6779 27.0998 21.3599 27.0998 21.3599H27.1058Z" fill="#C1735C"/>
<path d="M48.238 20.1957C48.4666 20.1957 48.652 20.0103 48.652 19.7817C48.652 19.553 48.4666 19.3677 48.238 19.3677C48.0093 19.3677 47.824 19.553 47.824 19.7817C47.824 20.0103 48.0093 20.1957 48.238 20.1957Z" fill="#FF9988"/>
<path d="M31.3838 45.6358C31.3838 45.6358 39.8138 46.4098 42.7838 42.7138V38.4658L32.0978 39.4918L31.3838 45.6358Z" fill="#A5503C"/>
<path fill-rule="evenodd" clip-rule="evenodd" d="M38.2107 43.416C43.9164 43.416 48.7151 38.4595 50.1085 31.7357C50.3679 31.6653 50.4863 31.6075 50.4863 31.6075C51.7463 30.9366 52.4243 29.3849 52.2323 27.366C52.0998 25.9727 51.0472 25.6637 50.4075 25.6059C49.6027 17.9245 44.4487 12 38.2107 12C31.844 12 26.6066 18.1715 25.9697 26.0835C25.6676 26.078 23.8706 26.1241 23.8047 27.984C23.7327 30.0149 24.5067 31.5186 25.8027 32.1117C25.8027 32.1117 25.9974 32.192 26.4295 32.2603C27.9583 38.7157 32.6545 43.416 38.2107 43.416Z" fill="#C1735C"/>
<path d="M43.6359 28.9436C44.0369 28.9436 44.3619 28.3795 44.3619 27.6836C44.3619 26.9877 44.0369 26.4236 43.6359 26.4236C43.235 26.4236 42.9099 26.9877 42.9099 27.6836C42.9099 28.3795 43.235 28.9436 43.6359 28.9436Z" fill="#441D39"/>
<path d="M32.7463 28.6858C33.1472 28.6858 33.4723 28.1216 33.4723 27.4258C33.4723 26.7299 33.1472 26.1658 32.7463 26.1658C32.3453 26.1658 32.0203 26.7299 32.0203 27.4258C32.0203 28.1216 32.3453 28.6858 32.7463 28.6858Z" fill="#441D39"/>
<path d="M38.6742 33.3477H37.5282C37.0182 33.3477 36.5682 33.1497 36.3282 32.8257C36.1542 32.5917 36.1062 32.3157 36.1902 32.0457C36.4482 31.2057 36.8022 28.9257 36.8082 28.9017C36.8322 28.7397 36.9882 28.6317 37.1502 28.6497C37.3122 28.6737 37.4262 28.8297 37.4022 28.9917C37.3902 29.0877 37.0362 31.3437 36.7662 32.2197C36.7422 32.3037 36.7542 32.3877 36.8142 32.4717C36.9402 32.6457 37.2222 32.7537 37.5342 32.7537H38.6802C38.8482 32.7537 38.9802 32.8857 38.9802 33.0537C38.9802 33.2217 38.8482 33.3537 38.6802 33.3537L38.6742 33.3477Z" fill="#A5503C"/>
<path d="M44.2778 30.918C45.4343 30.918 46.3718 30.7031 46.3718 30.438C46.3718 30.1729 45.4343 29.958 44.2778 29.958C43.1214 29.958 42.1838 30.1729 42.1838 30.438C42.1838 30.7031 43.1214 30.918 44.2778 30.918Z" fill="#AF5D4E"/>
<path d="M32.0564 30.918C33.2129 30.918 34.1504 30.7031 34.1504 30.438C34.1504 30.1729 33.2129 29.958 32.0564 29.958C30.8999 29.958 29.9624 30.1729 29.9624 30.438C29.9624 30.7031 30.8999 30.918 32.0564 30.918Z" fill="#AF5D4E"/>
<path d="M46.2163 24.6182C44.1883 24.1562 42.6823 24.6182 41.7643 24.7982C41.3743 24.8762 41.2543 24.3902 41.2543 24.3902C41.1583 24.0662 41.5843 23.8082 41.8963 23.7362C42.9343 23.4782 44.2663 23.2982 46.2943 23.8682C46.6843 23.9762 46.7263 24.3002 46.7263 24.3002C46.7023 24.6602 46.4803 24.6842 46.2163 24.6182Z" fill="#441D39"/>
<path d="M30.0402 24.5336C32.0862 24.1496 33.5742 24.6776 34.4862 24.8876C34.8762 24.9776 35.0082 24.5036 35.0082 24.5036C35.1162 24.1856 34.7022 23.9096 34.3962 23.8196C33.3702 23.5256 32.0442 23.2916 29.9922 23.7776C29.5962 23.8736 29.5422 24.1916 29.5422 24.1916C29.5482 24.5516 29.7702 24.5816 30.0402 24.5336Z" fill="#441D39"/>
<path d="M37.7622 37.9076C36.3402 37.9076 35.2182 37.6076 35.1402 37.5896C34.9782 37.5476 34.8882 37.3796 34.9302 37.2236C34.9722 37.0616 35.1402 36.9716 35.2962 37.0136C35.3262 37.0196 38.0862 37.7516 40.3122 36.8816C40.4682 36.8216 40.6422 36.8996 40.7022 37.0496C40.7622 37.2056 40.6842 37.3796 40.5342 37.4396C39.6162 37.7996 38.6322 37.9136 37.7622 37.9136V37.9076Z" fill="#A5503C"/>
<path d="M46.6783 10.7345C38.4463 4.22453 31.1503 11.0405 31.1503 11.0405C23.9323 12.3605 24.9583 23.0165 25.1323 24.1565C25.3063 25.2905 25.5283 26.0765 25.5283 26.0765C25.6843 26.0825 25.8283 26.0765 25.9663 26.0465L26.5783 30.4385C26.6203 30.5945 26.8543 30.6065 26.9083 30.4385C26.9623 30.3785 27.1303 27.8105 27.2923 25.1285C28.6603 23.1065 28.6003 18.3725 31.1503 16.2545C32.3983 15.2165 34.1503 16.0325 34.1503 16.0325C34.1503 16.0325 35.4583 13.7225 38.5723 15.0665C41.3743 16.2725 44.8183 23.8745 48.6163 25.6805C48.7663 28.1525 48.9163 30.3845 48.9643 30.4445C49.0183 30.6125 49.2523 30.6005 49.2943 30.4445L49.9063 26.0585L51.6463 25.1525C51.6463 25.1525 52.4323 14.3285 46.6663 10.7405L46.6783 10.7345Z" fill="#441D39"/>
<path d="M60.8739 55.6806C58.7139 54.9546 55.1499 53.3286 51.8079 51.7266L42.4839 55.0326V63.9546H41.8839V55.2426L39.9519 55.9266V65.8326H65.8419C65.8419 65.8326 65.8419 57.3486 60.8739 55.6746V55.6806Z" fill="#4598C4"/>
<path d="M47.3439 48.2404C44.3919 47.2264 39.9519 55.9264 39.9519 55.9264L41.8839 55.2424V63.9544H42.4839V55.0324L51.8079 51.7264L51.8439 51.7144C51.8439 51.7144 50.3019 49.2544 47.3499 48.2404H47.3439Z" fill="#2B7FA5"/>
<path d="M32.9261 55.2839L31.5401 63.7139L30.9461 63.6179L32.35 55.0799L22.858 51.7139C19.51 53.3219 15.934 54.9539 13.768 55.6799C8.80005 57.3539 8.80005 65.8379 8.80005 65.8379H34.618L34.75 55.9319L32.9261 55.2839Z" fill="#4598C4"/>
<path d="M27.3583 48.2403C24.4123 49.2483 22.8703 51.7023 22.8643 51.7143L32.3563 55.0803L30.9523 63.6183L31.5463 63.7143L32.9323 55.2843L34.7563 55.9323C34.7563 55.9323 30.3103 47.2323 27.3643 48.2463L27.3583 48.2403Z" fill="#2B7FA5"/>
</g>
</g>
<defs>
<filter id="filter0_d_4003_722" x="0" y="0" width="74" height="74" filterUnits="userSpaceOnUse" color-interpolation-filters="sRGB">
<feFlood flood-opacity="0" result="BackgroundImageFix"/>
<feColorMatrix in="SourceAlpha" type="matrix" values="0 0 0 0 0 0 0 0 0 0 0 0 0 0 0 0 0 0 127 0" result="hardAlpha"/>
<feMorphology radius="3" operator="dilate" in="SourceAlpha" result="effect1_dropShadow_4003_722"/>
<feOffset dy="4"/>
<feGaussianBlur stdDeviation="2"/>
<feComposite in2="hardAlpha" operator="out"/>
<feColorMatrix type="matrix" values="0 0 0 0 0 0 0 0 0 0 0 0 0 0 0 0 0 0 0.35 0"/>
<feBlend mode="normal" in2="BackgroundImageFix" result="effect1_dropShadow_4003_722"/>
<feBlend mode="normal" in="SourceGraphic" in2="effect1_dropShadow_4003_722" result="shape"/>
</filter>
<clipPath id="clip0_4003_722">
<rect x="7" y="3" width="60" height="60" rx="30" fill="white"/>
</clipPath>
</defs>
</svg>
