<svg width="74" height="74" viewBox="0 0 74 74" fill="none" xmlns="http://www.w3.org/2000/svg">
<g filter="url(#filter0_d_4003_653)">
<g clip-path="url(#clip0_4003_653)">
<rect x="7" y="3" width="60" height="60" rx="30" fill="white"/>
<circle cx="37" cy="33" r="30" fill="#DEF4FF"/>
<path d="M60.8739 55.6806C55.9059 54.0066 43.4919 47.5806 43.4919 47.5806H31.1499C31.1499 47.5806 18.7419 54.0066 13.7679 55.6806C8.79993 57.3546 8.79993 65.8386 8.79993 65.8386H65.8479C65.8479 65.8386 65.8479 57.3546 60.8799 55.6806H60.8739Z" fill="#424777"/>
<path fill-rule="evenodd" clip-rule="evenodd" d="M31.0421 48.5157L31.8521 41.7117H42.7301L43.5701 48.1557L42.4176 48.1888L39.5497 50.1362L38.1697 63.7202L35.8897 50.3042L33.6968 48.4394L31.0421 48.5157Z" fill="#C1735C"/>
<path d="M31.3837 45.6356C31.3837 45.6356 39.8137 46.4096 42.7837 42.7136V38.4656L32.0977 39.4916L31.3837 45.6356Z" fill="#A5503C"/>
<path d="M31.2938 46.3921L27.2318 49.5661L32.7098 54.9121L35.8898 50.3041L31.2938 46.3921Z" fill="#515882"/>
<path d="M39.5499 50.136L43.3479 46.446L47.0499 49.374L42.1479 54.738L39.5499 50.136Z" fill="#515882"/>
<path d="M34.8219 6.87614C34.0359 4.93214 30.3279 3.74414 30.3279 3.74414C31.2459 9.82214 34.7379 8.51414 34.7379 8.51414C34.8099 8.37014 34.8579 8.22614 34.8999 8.08814C37.6359 9.61214 39.9159 4.02014 39.9159 4.02014C36.1059 4.29614 35.0619 5.78414 34.8219 6.87614Z" fill="#FF7C59"/>
<path fill-rule="evenodd" clip-rule="evenodd" d="M37.828 43.4159C43.3385 43.4159 48.003 38.7856 49.5709 32.4025C50.0864 32.3007 50.3139 32.1894 50.3139 32.1894C51.5739 31.5174 52.2519 29.9634 52.0599 27.9414C51.9158 26.424 50.6836 26.1906 50.0777 26.1687C49.4813 18.191 44.2246 11.9519 37.828 11.9519C31.4319 11.9519 26.1754 18.1902 25.5785 26.167C25.0536 26.1595 23.6086 26.2903 23.4519 27.9414C23.2599 29.9634 23.9379 31.5174 25.1979 32.1894C25.1979 32.1894 25.4679 32.3214 26.0859 32.4294L26.0843 32.3991C27.6514 38.784 32.3166 43.4159 37.828 43.4159Z" fill="#C1735C"/>
<path d="M37.8279 11.0278C24.6279 10.8418 25.5219 26.2678 25.5219 26.2678L37.8279 27.1678L50.1339 26.2678C50.1339 26.2678 51.0279 10.8418 37.8279 11.0278Z" fill="#C1735C"/>
<path d="M29.3918 24.5284C31.4198 24.1624 33.2138 24.4504 34.1258 24.6244C34.4018 24.6784 34.6778 24.5464 34.7618 24.3184C34.8578 24.0604 34.6778 23.7964 34.3658 23.7364C33.3278 23.5384 31.4618 23.2384 29.5058 23.9224C29.2058 24.0304 28.6718 24.3244 28.8338 24.5584C28.9238 24.6424 29.1218 24.5704 29.3918 24.5224V24.5284Z" fill="#441D39"/>
<path d="M46.3901 24.5345C44.3621 24.1685 42.5681 24.4565 41.6561 24.6305C41.3801 24.6845 41.1041 24.5465 41.0201 24.3185C40.9241 24.0605 41.1041 23.7905 41.4161 23.7305C42.4541 23.5265 44.3201 23.2265 46.2761 23.9225C46.5761 24.0305 47.1101 24.3245 46.9481 24.5645C46.8581 24.6485 46.6601 24.5765 46.3901 24.5285V24.5345Z" fill="#441D39"/>
<path d="M43.6421 28.9433C44.0431 28.9433 44.3681 28.3792 44.3681 27.6833C44.3681 26.9875 44.0431 26.4233 43.6421 26.4233C43.2412 26.4233 42.9161 26.9875 42.9161 27.6833C42.9161 28.3792 43.2412 28.9433 43.6421 28.9433Z" fill="#441D39"/>
<path d="M32.7519 28.6855C33.1528 28.6855 33.4779 28.1214 33.4779 27.4255C33.4779 26.7296 33.1528 26.1655 32.7519 26.1655C32.3509 26.1655 32.0259 26.7296 32.0259 27.4255C32.0259 28.1214 32.3509 28.6855 32.7519 28.6855Z" fill="#441D39"/>
<path d="M38.6799 33.3477H37.5339C37.0239 33.3477 36.5739 33.1497 36.3339 32.8257C36.1599 32.5917 36.1119 32.3157 36.1959 32.0457C36.4599 31.1817 36.6819 30.3657 36.6819 30.3597C36.7239 30.1977 36.8859 30.1077 37.0479 30.1497C37.2099 30.1917 37.3059 30.3597 37.2579 30.5157C37.2579 30.5157 37.0359 31.3497 36.7659 32.2197C36.7419 32.3037 36.7539 32.3877 36.8139 32.4717C36.9399 32.6457 37.2219 32.7537 37.5339 32.7537H38.6799C38.8479 32.7537 38.9799 32.8857 38.9799 33.0537C38.9799 33.2217 38.8479 33.3537 38.6799 33.3537V33.3477Z" fill="#A5503C"/>
<path d="M36.0642 37.2597C35.5062 37.2597 35.1402 37.2297 35.0982 37.2237C34.9302 37.2117 34.8102 37.0617 34.8222 36.8997C34.8342 36.7377 34.9782 36.6117 35.1462 36.6237C35.1822 36.6237 38.5662 36.8997 41.0742 35.6637C41.2242 35.5917 41.4042 35.6517 41.4762 35.8017C41.5482 35.9517 41.4882 36.1317 41.3382 36.2037C39.5022 37.1097 37.3002 37.2537 36.0582 37.2537L36.0642 37.2597Z" fill="#A5503C"/>
<path d="M44.2419 30.9178C45.3984 30.9178 46.336 30.7029 46.336 30.4378C46.336 30.1727 45.3984 29.9578 44.2419 29.9578C43.0855 29.9578 42.1479 30.1727 42.1479 30.4378C42.1479 30.7029 43.0855 30.9178 44.2419 30.9178Z" fill="#AF5D4E"/>
<path d="M32.0258 30.9178C33.1822 30.9178 34.1198 30.7029 34.1198 30.4378C34.1198 30.1727 33.1822 29.9578 32.0258 29.9578C30.8693 29.9578 29.9318 30.1727 29.9318 30.4378C29.9318 30.7029 30.8693 30.9178 32.0258 30.9178Z" fill="#AF5D4E"/>
<path d="M45.8558 16.8061C45.8558 16.8061 49.4918 23.3641 50.1278 26.2681C50.1278 26.2681 52.0958 17.5261 47.4578 12.7981L45.8558 16.8001V16.8061Z" fill="#FF7C59"/>
<path d="M25.5218 26.2686L26.8298 21.2766H25.2338L25.5218 26.2686Z" fill="#FF7C59"/>
<path d="M45.4418 10.2121C45.4418 10.2121 45.4418 10.1821 45.4418 10.1701C45.4418 8.77214 44.3078 7.64414 42.9158 7.64414C42.6098 7.64414 42.3278 7.70414 42.0578 7.80614C41.3138 7.02014 40.1498 6.51014 38.8298 6.51014C37.6118 6.51014 36.5198 6.94814 35.7698 7.63814C34.9838 7.16414 34.0118 6.87614 32.9618 6.87614C32.5178 6.87614 32.0918 6.93014 31.6838 7.02014C31.0898 6.50414 30.3218 6.19214 29.4758 6.19214C28.1438 6.19214 26.9978 6.96614 26.4518 8.08814C26.1218 7.81214 25.7018 7.64414 25.2398 7.64414C24.1838 7.64414 23.3318 8.50214 23.3318 9.55214C23.3318 9.66614 23.3438 9.77414 23.3678 9.88214C21.2858 9.91214 19.6058 11.6101 19.6058 13.6981C19.6058 14.9641 20.2238 16.0861 21.1778 16.7821C20.8238 17.3581 20.6198 18.0361 20.6198 18.7681C20.6198 20.8801 22.3298 22.5901 24.4418 22.5901C26.5538 22.5901 28.2638 20.8801 28.2638 18.7681C28.2638 18.7261 28.2638 18.6841 28.2578 18.6421C28.7678 18.8941 29.3378 19.0381 29.9438 19.0381C31.9658 19.0381 33.6158 17.4661 33.7538 15.4861C34.4438 16.1881 35.4038 16.6201 36.4658 16.6201C38.0438 16.6201 39.3998 15.6601 39.9818 14.2921C40.2998 16.0861 41.8598 17.4481 43.7438 17.4481C45.8558 17.4481 47.5658 15.7381 47.5658 13.6261C47.5658 12.1321 46.7078 10.8421 45.4538 10.2121H45.4418Z" fill="#441D39"/>
</g>
</g>
<defs>
<filter id="filter0_d_4003_653" x="0" y="0" width="74" height="74" filterUnits="userSpaceOnUse" color-interpolation-filters="sRGB">
<feFlood flood-opacity="0" result="BackgroundImageFix"/>
<feColorMatrix in="SourceAlpha" type="matrix" values="0 0 0 0 0 0 0 0 0 0 0 0 0 0 0 0 0 0 127 0" result="hardAlpha"/>
<feMorphology radius="3" operator="dilate" in="SourceAlpha" result="effect1_dropShadow_4003_653"/>
<feOffset dy="4"/>
<feGaussianBlur stdDeviation="2"/>
<feComposite in2="hardAlpha" operator="out"/>
<feColorMatrix type="matrix" values="0 0 0 0 0 0 0 0 0 0 0 0 0 0 0 0 0 0 0.35 0"/>
<feBlend mode="normal" in2="BackgroundImageFix" result="effect1_dropShadow_4003_653"/>
<feBlend mode="normal" in="SourceGraphic" in2="effect1_dropShadow_4003_653" result="shape"/>
</filter>
<clipPath id="clip0_4003_653">
<rect x="7" y="3" width="60" height="60" rx="30" fill="white"/>
</clipPath>
</defs>
</svg>
