<svg width="60" height="60" viewBox="0 0 60 60" fill="none" xmlns="http://www.w3.org/2000/svg">
<path d="M42.7979 23.1774C42.7979 23.1774 44.9219 22.9194 45.1139 24.9414C45.3059 26.9634 44.6279 28.5174 43.3679 29.1894C43.3679 29.1894 43.0979 29.3214 42.4799 29.4294L42.7979 23.1834V23.1774Z" fill="#FFB69F"/>
<path d="M18.7679 23.1774C18.7679 23.1774 16.6439 22.9194 16.4519 24.9414C16.2599 26.9634 16.9379 28.5174 18.1979 29.1894C18.1979 29.1894 18.4679 29.3214 19.0859 29.4294L18.7679 23.1834V23.1774Z" fill="#FFB69F"/>
<path d="M1.79993 62.8386C1.79993 62.8386 1.79993 54.3546 6.76793 52.6806C11.7359 51.0066 22.9619 44.5806 22.9619 44.5806H30.5579V62.8386H1.79993Z" fill="#F49037"/>
<path d="M58.8476 62.8386C58.8476 62.8386 58.8476 54.3546 53.8796 52.6806C48.9116 51.0066 37.8056 44.5806 37.8056 44.5806H30.0896V62.8386H58.8476Z" fill="#F49037"/>
<path d="M24.8519 38.7117L24.1499 44.5797H36.4979L35.7299 38.7117H24.8519Z" fill="#FFB69F"/>
<path d="M30.3239 48.0906C33.7337 48.0906 36.4979 46.8898 36.4979 45.4086C36.4979 43.9273 33.7337 42.7266 30.3239 42.7266C26.9141 42.7266 24.1499 43.9273 24.1499 45.4086C24.1499 46.8898 26.9141 48.0906 30.3239 48.0906Z" fill="#FFB69F"/>
<path d="M24.3837 42.6356C24.3837 42.6356 32.8137 43.4096 35.7837 39.7136V35.4656L25.0977 36.4916L24.3837 42.6356Z" fill="#FF9988"/>
<path d="M30.828 40.4159C37.6244 40.4159 43.134 33.3724 43.134 24.6839C43.134 15.9954 37.6244 8.9519 30.828 8.9519C24.0316 8.9519 18.522 15.9954 18.522 24.6839C18.522 33.3724 24.0316 40.4159 30.828 40.4159Z" fill="#FFB69F"/>
<path d="M41.574 12.1205C41.574 12.1205 41.586 12.0905 41.574 12.0725C41.166 11.0945 40.668 6.18047 32.664 5.43647C30.612 5.24447 27.678 5.58647 25.818 6.47447C23.268 7.68647 20.418 8.38247 17.898 8.37647C17.79 8.37647 17.748 8.52047 17.844 8.57447L19.812 10.1405C19.89 10.1825 19.884 10.2965 19.8 10.3325L17.328 11.0825C17.238 11.1185 17.238 11.2505 17.328 11.2805C17.73 11.4125 18.75 11.8625 19.674 12.1805C18.162 14.8565 18.51 18.7025 18.51 23.3225C18.51 23.3225 18.462 28.1105 20.076 33.6005C21.84 39.6005 25.71 42.1745 31.164 42.1925C36.972 42.2165 40.002 37.2365 40.812 35.4665C42.048 32.7545 43.11 27.7145 43.116 24.6845C43.116 24.6845 45.348 17.0285 41.562 12.1205H41.574ZM36.642 34.3505C35.442 34.9625 36.048 31.7765 33.66 31.6445C32.862 31.5965 30.15 31.4105 27.87 31.6025C26.136 31.7525 25.716 33.3125 25.638 34.1045C25.602 34.4465 25.482 34.6025 25.158 34.4825C24.438 34.2185 22.908 33.3665 22.188 32.5745C21.444 31.7585 20.1 29.5565 19.974 24.9065L20.106 18.2645C20.106 18.2645 22.776 16.0265 23.238 14.4365C23.238 14.4365 35.166 16.3445 38.622 14.4365C38.622 14.4365 40.068 17.2025 41.646 18.0365C42.132 18.2885 42.048 21.4445 42.006 23.6225C41.964 23.9165 41.928 24.2525 41.91 24.6485C41.592 30.8705 37.83 33.7445 36.636 34.3565L36.642 34.3505Z" fill="#B54D4D"/>
<path d="M36.6421 25.9433C37.0431 25.9433 37.3681 25.3792 37.3681 24.6833C37.3681 23.9875 37.0431 23.4233 36.6421 23.4233C36.2412 23.4233 35.9161 23.9875 35.9161 24.6833C35.9161 25.3792 36.2412 25.9433 36.6421 25.9433Z" fill="#441D39"/>
<path d="M25.7519 25.6855C26.1528 25.6855 26.4779 25.1214 26.4779 24.4255C26.4779 23.7296 26.1528 23.1655 25.7519 23.1655C25.3509 23.1655 25.0259 23.7296 25.0259 24.4255C25.0259 25.1214 25.3509 25.6855 25.7519 25.6855Z" fill="#441D39"/>
<path d="M31.6741 30.348H30.5281C30.0181 30.348 29.5681 30.15 29.3281 29.82C29.1541 29.586 29.1061 29.31 29.1901 29.04C29.4481 28.212 29.7841 25.122 29.7841 25.092C29.8021 24.924 29.9461 24.81 30.1141 24.828C30.2761 24.846 30.3961 24.996 30.3781 25.158C30.3661 25.29 30.0301 28.332 29.7601 29.22C29.7361 29.31 29.7481 29.388 29.8081 29.472C29.9341 29.64 30.2161 29.754 30.5281 29.754H31.6741C31.8421 29.754 31.9741 29.886 31.9741 30.054C31.9741 30.222 31.8421 30.354 31.6741 30.354V30.348Z" fill="#FF9988"/>
<path d="M37.2777 27.9178C38.4342 27.9178 39.3717 27.7029 39.3717 27.4378C39.3717 27.1727 38.4342 26.9578 37.2777 26.9578C36.1212 26.9578 35.1837 27.1727 35.1837 27.4378C35.1837 27.7029 36.1212 27.9178 37.2777 27.9178Z" fill="#FF9988"/>
<path d="M25.0557 27.9178C26.2122 27.9178 27.1497 27.7029 27.1497 27.4378C27.1497 27.1727 26.2122 26.9578 25.0557 26.9578C23.8992 26.9578 22.9617 27.1727 22.9617 27.4378C22.9617 27.7029 23.8992 27.9178 25.0557 27.9178Z" fill="#FF9988"/>
<path d="M39.1857 21.7556C37.1877 21.1676 35.6577 21.5396 34.7277 21.6596C34.3317 21.7076 34.2477 21.2216 34.2477 21.2216C34.1697 20.8916 34.6137 20.6636 34.9257 20.6036C35.9757 20.4116 37.3197 20.3156 39.3117 21.0056C39.6957 21.1376 39.7197 21.4616 39.7197 21.4616C39.6777 21.8216 39.4497 21.8276 39.1857 21.7496V21.7556Z" fill="#B54D4D"/>
<path d="M23.0997 21.7924C25.0857 21.1684 26.6217 21.5164 27.5517 21.6184C27.9477 21.6604 28.0257 21.1744 28.0257 21.1744C28.0977 20.8444 27.6477 20.6224 27.3357 20.5684C26.2797 20.3944 24.9357 20.3164 22.9617 21.0424C22.5777 21.1804 22.5597 21.5044 22.5597 21.5044C22.6077 21.8644 22.8357 21.8644 23.0937 21.7864L23.0997 21.7924Z" fill="#B54D4D"/>
<path d="M30.7619 35.2206C29.3459 35.2206 28.2179 34.9206 28.1459 34.9026C27.9839 34.8606 27.8939 34.6926 27.9359 34.5366C27.9779 34.3806 28.1459 34.2846 28.3019 34.3266C28.3319 34.3326 31.0919 35.0646 33.3179 34.1946C33.4739 34.1346 33.6479 34.2126 33.7079 34.3626C33.7679 34.5186 33.6899 34.6926 33.5399 34.7526C32.6219 35.1126 31.6379 35.2266 30.7679 35.2266L30.7619 35.2206Z" fill="#9B3D3D"/>
<path d="M24.414 42.6655L29.19 46.0735L26.8799 51.6055L20.7 45.8515L24.414 42.6655Z" fill="#FFA242"/>
<path d="M29.19 46.0735L29.478 48.1195L28.392 47.9815L29.19 46.0735Z" fill="#F49037"/>
<path d="M31.914 45.9658L31.494 48.1198L32.67 47.9218L31.914 45.9658Z" fill="#F49037"/>
<path d="M31.9141 45.9659L36.2881 42.7559L40.3861 46.0439L34.2901 52.1339L31.9141 45.9659Z" fill="#FFA242"/>
<path d="M31.4879 48.9058H29.4779V62.8318H31.4879V48.9058Z" fill="white"/>
<path d="M29.4358 47.8327L29.4778 49.0567C29.4778 49.0567 30.4138 49.4647 31.4878 49.0567L31.5178 47.9467L29.4298 47.8267L29.4358 47.8327Z" fill="#FFB69F"/>
<path d="M31.4879 51.8462H29.4779V52.4462H31.4879V51.8462Z" fill="#D6D6D6"/>
<path d="M31.4879 54.552H29.4779V55.152H31.4879V54.552Z" fill="#D6D6D6"/>
<path d="M31.4879 57.2578H29.4779V57.8578H31.4879V57.2578Z" fill="#D6D6D6"/>
<path d="M31.4879 59.9636H29.4779V60.5636H31.4879V59.9636Z" fill="#D6D6D6"/>
<path d="M33.198 55.1346C33.4896 55.1346 33.726 54.8982 33.726 54.6066C33.726 54.315 33.4896 54.0786 33.198 54.0786C32.9064 54.0786 32.67 54.315 32.67 54.6066C32.67 54.8982 32.9064 55.1346 33.198 55.1346Z" fill="#FFA242"/>
<path d="M33.198 61.0255C33.4896 61.0255 33.726 60.7891 33.726 60.4975C33.726 60.2059 33.4896 59.9695 33.198 59.9695C32.9064 59.9695 32.67 60.2059 32.67 60.4975C32.67 60.7891 32.9064 61.0255 33.198 61.0255Z" fill="#FFA242"/>
</svg>
