<svg width="74" height="74" viewBox="0 0 74 74" fill="none" xmlns="http://www.w3.org/2000/svg">
<g filter="url(#filter0_d_4003_616)">
<g clip-path="url(#clip0_4003_616)">
<rect x="7" y="3" width="60" height="60" rx="30" fill="white"/>
<circle cx="37" cy="33" r="30" fill="#DEF4FF"/>
<path d="M59.938 44.6935C62.002 39.6535 58.648 39.1375 55.156 36.5335C51.664 33.9295 57.352 32.8135 58.516 30.1375C59.68 27.4615 57.61 25.5775 55.03 24.1555C52.444 22.7335 48.688 17.2015 48.688 17.2015L48.52 17.1235C50.47 21.0355 50.386 25.5055 50.356 26.1715C50.98 26.2075 52.144 26.4655 52.288 27.9415C52.48 29.9635 51.802 31.5175 50.542 32.1895C50.542 32.1895 50.302 32.2975 49.792 32.3995C48.226 38.7835 43.564 43.4215 38.05 43.4215C32.536 43.4215 27.868 38.7835 26.308 32.3875V32.4295C25.69 32.3215 25.42 32.1895 25.42 32.1895C24.16 31.5175 23.482 29.9635 23.674 27.9415C23.824 26.3455 25.18 26.1715 25.744 26.1655C25.732 25.7935 25.702 24.2875 25.99 22.3675C25.036 22.8355 22.174 24.3835 22.228 26.1655C22.3 28.3075 22.912 31.2475 20.158 32.0455C17.404 32.8435 17.308 37.9735 18.466 40.5775C19.624 43.1815 20.404 44.8195 16.768 46.4095C13.132 47.9995 17.176 51.0235 16.786 56.8315C16.396 62.6395 21.694 60.0655 32.242 58.1275C42.79 56.1895 50.368 58.7755 56.056 58.1275C61.738 57.4795 61.096 55.6795 59.026 53.0035C56.956 50.3275 57.862 49.7335 59.932 44.6935H59.938Z" fill="#441D39"/>
<path d="M39.8081 13.0501L48.5261 17.1241C46.8881 13.8421 43.8161 10.9501 38.0561 11.0281C29.1881 10.9021 26.6861 17.8201 25.9961 22.3681C26.1881 22.2721 26.3081 22.2181 26.3081 22.2181L39.8081 13.0441V13.0501Z" fill="#C1735C"/>
<path d="M61.102 55.6806C56.134 54.0066 43.7199 47.5806 43.7199 47.5806H31.378C31.378 47.5806 18.97 54.0066 13.996 55.6806C9.02795 57.3546 9.02795 65.8386 9.02795 65.8386H66.076C66.076 65.8386 66.076 57.3546 61.108 55.6806H61.102Z" fill="#4598C4"/>
<path d="M42.9581 41.7119H32.0801L31.2701 48.5159L37.6661 62.2259L43.7981 48.1559L42.9581 41.7119Z" fill="#C1735C"/>
<path d="M32.0978 41.448L31.6118 45.636C31.6118 45.636 40.0418 46.41 43.0118 42.714V42.084C41.4938 42.942 39.8198 43.422 38.0498 43.422C35.8898 43.422 33.8618 42.702 32.0978 41.448Z" fill="#A5503C"/>
<path d="M52.2939 27.942C52.1559 26.466 50.9859 26.208 50.3619 26.172C50.3859 25.506 50.4759 21.036 48.5259 17.124L39.8079 13.05L26.3079 22.224C26.3079 22.224 26.1879 22.278 25.9959 22.3741C25.7019 24.2941 25.7319 25.8 25.7499 26.172C25.1859 26.172 23.8299 26.3521 23.6799 27.9481C23.4879 29.9701 24.1659 31.524 25.4259 32.196C25.4259 32.196 25.6959 32.3281 26.3139 32.4361V32.3941C27.2619 36.2821 29.3619 39.516 32.1039 41.454C33.8679 42.708 35.8959 43.428 38.0559 43.428C39.8199 43.428 41.4999 42.9481 43.0179 42.0901C46.2399 40.2721 48.7359 36.744 49.7979 32.406C50.3139 32.304 50.5479 32.196 50.5479 32.196C51.8079 31.524 52.4859 29.9701 52.2939 27.9481V27.942Z" fill="#C1735C"/>
<path d="M29.584 24.2644C31.642 24.1204 33.394 24.6004 34.282 24.8704C34.552 24.9544 34.834 24.8464 34.948 24.6364C35.068 24.3904 34.918 24.1084 34.618 24.0124C33.61 23.7004 31.786 23.2024 29.764 23.6764C29.452 23.7484 28.894 23.9824 29.026 24.2404C29.104 24.3304 29.314 24.2884 29.584 24.2704V24.2644Z" fill="#441D39"/>
<path d="M46.6418 24.3659C44.5898 24.1379 42.8258 24.5519 41.9258 24.7919C41.6558 24.8639 41.3738 24.7499 41.2718 24.5279C41.1578 24.2759 41.3198 23.9939 41.6258 23.9159C42.6458 23.6399 44.4878 23.2139 46.4918 23.7659C46.7978 23.8499 47.3498 24.1079 47.2058 24.3599C47.1218 24.4499 46.9178 24.3959 46.6478 24.3599L46.6418 24.3659Z" fill="#441D39"/>
<path d="M43.8702 28.9436C44.2711 28.9436 44.5962 28.3795 44.5962 27.6836C44.5962 26.9877 44.2711 26.4236 43.8702 26.4236C43.4692 26.4236 43.1442 26.9877 43.1442 27.6836C43.1442 28.3795 43.4692 28.9436 43.8702 28.9436Z" fill="#441D39"/>
<path d="M32.9799 28.6858C33.3809 28.6858 33.7059 28.1216 33.7059 27.4258C33.7059 26.7299 33.3809 26.1658 32.9799 26.1658C32.5789 26.1658 32.2539 26.7299 32.2539 27.4258C32.2539 28.1216 32.5789 28.6858 32.9799 28.6858Z" fill="#441D39"/>
<path d="M38.908 33.3481H37.762C37.252 33.3481 36.802 33.1501 36.562 32.8201C36.388 32.5861 36.34 32.3101 36.424 32.0401C36.688 31.1821 36.91 30.3601 36.91 30.3541C36.952 30.1921 37.114 30.1021 37.276 30.1441C37.438 30.1861 37.534 30.3541 37.486 30.5101C37.486 30.5101 37.264 31.3441 36.994 32.2141C36.97 32.3041 36.982 32.3821 37.042 32.4661C37.168 32.6401 37.45 32.7481 37.762 32.7481H38.908C39.076 32.7481 39.208 32.8801 39.208 33.0481C39.208 33.2161 39.076 33.3481 38.908 33.3481Z" fill="#A5503C"/>
<path d="M37.8102 37.1221C36.4122 37.1221 35.3502 36.9301 35.2722 36.9121C35.1102 36.8821 35.0022 36.7261 35.0322 36.5641C35.0622 36.4021 35.2182 36.2941 35.3802 36.3241C35.4102 36.3241 38.7582 36.9421 41.3742 35.9641C41.5302 35.9041 41.7042 35.9821 41.7582 36.1381C41.8182 36.2941 41.7342 36.4681 41.5842 36.5221C40.3302 36.9901 38.9562 37.1221 37.8042 37.1221H37.8102Z" fill="#A5503C"/>
<path d="M44.47 30.918C45.6265 30.918 46.564 30.7031 46.564 30.438C46.564 30.1729 45.6265 29.958 44.47 29.958C43.3135 29.958 42.376 30.1729 42.376 30.438C42.376 30.7031 43.3135 30.918 44.47 30.918Z" fill="#AF5D4E"/>
<path d="M32.2538 30.918C33.4103 30.918 34.3478 30.7031 34.3478 30.438C34.3478 30.1729 33.4103 29.958 32.2538 29.958C31.0973 29.958 30.1598 30.1729 30.1598 30.438C30.1598 30.7031 31.0973 30.918 32.2538 30.918Z" fill="#AF5D4E"/>
<path d="M25.3118 22.7639L25.3478 23.0459L23.6438 24.8159L22.3358 28.6859C22.3358 28.6859 23.8658 33.6479 26.0438 36.7259C28.2158 39.8099 27.2258 35.1539 26.3078 32.3819C25.3898 29.6099 27.1058 29.5739 27.5078 27.6839C27.7598 26.4899 27.3158 25.3919 26.9558 24.7499C26.6378 23.6519 26.9198 22.3319 28.4258 21.9239C31.9538 20.9579 29.6438 15.1079 29.6438 15.1079C27.6158 16.4099 25.8518 21.6659 25.3178 22.7579L25.3118 22.7639Z" fill="#441D39"/>
<path d="M52.3238 24.816L51.0758 24.912C50.5658 22.278 49.4438 17.082 48.4298 16.542C47.0618 15.816 45.5078 16.998 45.5078 16.998C45.5078 16.998 46.2878 21.252 47.9978 22.212C49.0118 22.782 49.0058 24.066 49.0298 25.014C48.4418 28.08 46.9178 31.488 50.3558 34.566C54.1058 37.92 54.9158 28.944 54.9158 28.944L52.3238 24.816Z" fill="#441D39"/>
<path d="M50.4521 11.9886C48.5141 8.76665 41.0621 7.17065 34.8581 8.43665L34.4441 7.03865C34.3661 6.78065 34.0961 6.63065 33.8321 6.70865C33.5741 6.78665 33.4241 7.05665 33.5021 7.32065L33.8981 8.67065C29.1041 9.92465 24.1121 13.4946 21.9221 17.9826C19.6661 22.6026 25.3541 22.7046 25.3541 22.7046C30.1961 15.4026 48.6881 17.2026 48.6881 17.2026C49.7621 16.9746 52.4441 15.3126 50.4461 11.9946L50.4521 11.9886Z" fill="#FF7C59"/>
<path d="M28.522 52.6559C28.408 52.6559 28.3 52.5959 28.252 52.4879C28.18 52.3379 28.246 52.1579 28.39 52.0859L30.652 50.9999C30.802 50.9279 30.982 50.9939 31.054 51.1439C31.126 51.2939 31.06 51.4739 30.916 51.5459L28.654 52.6319C28.612 52.6499 28.57 52.6619 28.522 52.6619V52.6559Z" fill="#2A5E70"/>
<path d="M29.5539 56.2256C29.4399 56.2256 29.3319 56.1656 29.2839 56.0576C29.2119 55.9076 29.2779 55.7276 29.4219 55.6556L31.6839 54.5696C31.8339 54.4976 32.0139 54.5636 32.0859 54.7076C32.1579 54.8516 32.0919 55.0376 31.9479 55.1096L29.6859 56.1956C29.6439 56.2136 29.6019 56.2256 29.5539 56.2256Z" fill="#2A5E70"/>
<path d="M30.8681 60.4444C30.7541 60.4444 30.6461 60.3844 30.5981 60.2764C30.5261 60.1264 30.5921 59.9464 30.7361 59.8744L32.9981 58.7884C33.1481 58.7164 33.3281 58.7824 33.4001 58.9264C33.4721 59.0764 33.4061 59.2564 33.2621 59.3284L31.0001 60.4144C30.9581 60.4324 30.9161 60.4444 30.8681 60.4444Z" fill="#2A5E70"/>
<path d="M46.1741 52.6561C46.1321 52.6561 46.0841 52.6441 46.0421 52.6261L43.7801 51.5401C43.6301 51.4681 43.5701 51.2881 43.6421 51.1381C43.7141 50.9881 43.8941 50.9221 44.0441 50.9941L46.3061 52.0801C46.4561 52.1521 46.5161 52.3321 46.4441 52.4821C46.3901 52.5901 46.2881 52.6501 46.1741 52.6501V52.6561Z" fill="#2A5E70"/>
<path d="M45.1423 56.2254C45.1003 56.2254 45.0523 56.2134 45.0103 56.1954L42.7483 55.1094C42.5983 55.0374 42.5383 54.8574 42.6103 54.7074C42.6823 54.5574 42.8623 54.4974 43.0123 54.5694L45.2743 55.6554C45.4243 55.7274 45.4843 55.9074 45.4123 56.0574C45.3583 56.1654 45.2563 56.2254 45.1423 56.2254Z" fill="#2A5E70"/>
<path d="M43.828 60.4442C43.786 60.4442 43.738 60.4322 43.696 60.4142L41.434 59.3282C41.284 59.2562 41.224 59.0762 41.296 58.9262C41.368 58.7762 41.548 58.7162 41.698 58.7882L43.96 59.8742C44.11 59.9462 44.17 60.1262 44.098 60.2762C44.044 60.3842 43.942 60.4442 43.828 60.4442Z" fill="#2A5E70"/>
</g>
</g>
<defs>
<filter id="filter0_d_4003_616" x="0" y="0" width="74" height="74" filterUnits="userSpaceOnUse" color-interpolation-filters="sRGB">
<feFlood flood-opacity="0" result="BackgroundImageFix"/>
<feColorMatrix in="SourceAlpha" type="matrix" values="0 0 0 0 0 0 0 0 0 0 0 0 0 0 0 0 0 0 127 0" result="hardAlpha"/>
<feMorphology radius="3" operator="dilate" in="SourceAlpha" result="effect1_dropShadow_4003_616"/>
<feOffset dy="4"/>
<feGaussianBlur stdDeviation="2"/>
<feComposite in2="hardAlpha" operator="out"/>
<feColorMatrix type="matrix" values="0 0 0 0 0 0 0 0 0 0 0 0 0 0 0 0 0 0 0.35 0"/>
<feBlend mode="normal" in2="BackgroundImageFix" result="effect1_dropShadow_4003_616"/>
<feBlend mode="normal" in="SourceGraphic" in2="effect1_dropShadow_4003_616" result="shape"/>
</filter>
<clipPath id="clip0_4003_616">
<rect x="7" y="3" width="60" height="60" rx="30" fill="white"/>
</clipPath>
</defs>
</svg>
